<mxfile host="app.diagrams.net" agent="Mozilla/5.0 (Windows NT 10.0; Win64; x64) AppleWebKit/537.36 (KHTML, like Gecko) Chrome/135.0.0.0 Safari/537.36" version="26.2.13" pages="6">
  <diagram id="DN-tf207zQvm0hgLBhuV" name="Cas d’Utilisation">
    <mxGraphModel dx="2698" dy="658" grid="1" gridSize="10" guides="1" tooltips="1" connect="1" arrows="1" fold="1" page="1" pageScale="1" pageWidth="827" pageHeight="1169" math="0" shadow="0">
      <root>
        <mxCell id="0" />
        <mxCell id="1" parent="0" />
        <UserObject label="" plantUmlData="{&#xa;  &quot;data&quot;: &quot;@startuml\nactor Citoyen\nactor Agent\nactor Admin\n\nrectangle \&quot;Plateforme État Civil\&quot; {\n  Citoyen -- (Créer un Compte)\n  Citoyen -- (Faire une Demande d&#39;Acte)\n  Citoyen -- (Payer en ligne)\n  Citoyen -- (Suivre la Demande)\n  Citoyen -- (Télécharger l&#39;Acte PDF)\n\n  Agent -- (Valider une Demande)\n  Agent -- (Refuser une Demande)\n  Agent -- (Générer et Signer un Acte)\n  Agent -- (Archiver un Acte)\n  Agent -- (Voir Statistiques)\n\n  Admin -- (Gérer Agents)\n  Admin -- (Configurer Frais de Timbre)\n  Admin -- (Consulter Historique et Logs)\n}\n@enduml&quot;,&#xa;  &quot;format&quot;: &quot;svg&quot;&#xa;}" id="JS00diqwO9PEn23xHTg3-1">
          <mxCell style="shape=image;noLabel=1;verticalAlign=top;aspect=fixed;imageAspect=0;image=data:image/svg+xml,PHN2ZyB4bWxucz0iaHR0cDovL3d3dy53My5vcmcvMjAwMC9zdmciIHhtbG5zOnhsaW5rPSJodHRwOi8vd3d3LnczLm9yZy8xOTk5L3hsaW5rIiBjb250ZW50U3R5bGVUeXBlPSJ0ZXh0L2NzcyIgZGF0YS1kaWFncmFtLXR5cGU9IkRFU0NSSVBUSU9OIiBoZWlnaHQ9IjIxMnB4IiBwcmVzZXJ2ZUFzcGVjdFJhdGlvPSJub25lIiBzdHlsZT0id2lkdGg6MjcxOHB4O2hlaWdodDoyMTJweDtiYWNrZ3JvdW5kOiNGRkZGRkY7IiB2ZXJzaW9uPSIxLjEiIHZpZXdCb3g9IjAgMCAyNzE4IDIxMiIgd2lkdGg9IjI3MThweCIgem9vbUFuZFBhbj0ibWFnbmlmeSI+PGRlZnMvPjxnPjwhLS1jbHVzdGVyIFBsYXRlZm9ybWUgP3RhdCBDaXZpbC0tPjxnIGNsYXNzPSJjbHVzdGVyIiBkYXRhLWVudGl0eT0iUGxhdGVmb3JtZSAmIzIwMTt0YXQgQ2l2aWwiIGRhdGEtc291cmNlLWxpbmU9IjUiIGRhdGEtdWlkPSJlbnQwMDA1IiBpZD0iY2x1c3Rlcl9QbGF0ZWZvcm1lICYjMjAxO3RhdCBDaXZpbCI+PHJlY3QgZmlsbD0ibm9uZSIgaGVpZ2h0PSI5OSIgcng9IjIuNSIgcnk9IjIuNSIgc3R5bGU9InN0cm9rZTojMTgxODE4O3N0cm9rZS13aWR0aDoxOyIgd2lkdGg9IjI3MDUiIHg9IjciIHk9IjEwNy41Ii8+PHRleHQgZmlsbD0iIzAwMDAwMCIgZm9udC1mYW1pbHk9InNhbnMtc2VyaWYiIGZvbnQtc2l6ZT0iMTQiIGZvbnQtd2VpZ2h0PSJib2xkIiBsZW5ndGhBZGp1c3Q9InNwYWNpbmciIHRleHRMZW5ndGg9IjE0NyIgeD0iMTI4NiIgeT0iMTIyLjczNDQiPlBsYXRlZm9ybWUgJiMyMDE7dGF0IENpdmlsPC90ZXh0PjwvZz48ZyBjbGFzcz0iZW50aXR5IiBkYXRhLWVudGl0eT0iQ3ImIzIzMztlciB1biBDb21wdGUiIGRhdGEtc291cmNlLWxpbmU9IjYiIGRhdGEtdWlkPSJlbnQwMDA2IiBpZD0iZW50aXR5X0NyJiMyMzM7ZXIgdW4gQ29tcHRlIj48ZWxsaXBzZSBjeD0iOTIwLjk2NjMiIGN5PSIxNjUuMzkzMyIgZmlsbD0iI0YxRjFGMSIgcng9IjcyLjQ2NjMiIHJ5PSIxNi44OTMzIiBzdHlsZT0ic3Ryb2tlOiMxODE4MTg7c3Ryb2tlLXdpZHRoOjAuNTsiLz48dGV4dCBmaWxsPSIjMDAwMDAwIiBmb250LWZhbWlseT0ic2Fucy1zZXJpZiIgZm9udC1zaXplPSIxNCIgbGVuZ3RoQWRqdXN0PSJzcGFjaW5nIiB0ZXh0TGVuZ3RoPSIxMDUiIHg9Ijg2OC40NjYzIiB5PSIxNjkuMTM1NSI+Q3ImIzIzMztlciB1biBDb21wdGU8L3RleHQ+PC9nPjxnIGNsYXNzPSJlbnRpdHkiIGRhdGEtZW50aXR5PSJGYWlyZSB1bmUgRGVtYW5kZSBkJ0FjdGUiIGRhdGEtc291cmNlLWxpbmU9IjciIGRhdGEtdWlkPSJlbnQwMDA4IiBpZD0iZW50aXR5X0ZhaXJlIHVuZSBEZW1hbmRlIGQnQWN0ZSI+PGVsbGlwc2UgY3g9IjcxMi45ODUiIGN5PSIxNjUuNDk3IiBmaWxsPSIjRjFGMUYxIiByeD0iMTAwLjQ4NSIgcnk9IjIyLjQ5NyIgc3R5bGU9InN0cm9rZTojMTgxODE4O3N0cm9rZS13aWR0aDowLjU7Ii8+PHRleHQgZmlsbD0iIzAwMDAwMCIgZm9udC1mYW1pbHk9InNhbnMtc2VyaWYiIGZvbnQtc2l6ZT0iMTQiIGxlbmd0aEFkanVzdD0ic3BhY2luZyIgdGV4dExlbmd0aD0iMTY4IiB4PSI2MjguOTg1IiB5PSIxNjkuMjM5MiI+RmFpcmUgdW5lIERlbWFuZGUgZCdBY3RlPC90ZXh0PjwvZz48ZyBjbGFzcz0iZW50aXR5IiBkYXRhLWVudGl0eT0iUGF5ZXIgZW4gbGlnbmUiIGRhdGEtc291cmNlLWxpbmU9IjgiIGRhdGEtdWlkPSJlbnQwMDEwIiBpZD0iZW50aXR5X1BheWVyIGVuIGxpZ25lIj48ZWxsaXBzZSBjeD0iNTA4LjA0NTYiIGN5PSIxNjUuMzA5MSIgZmlsbD0iI0YxRjFGMSIgcng9IjY5LjU0NTYiIHJ5PSIxNi4zMDkxIiBzdHlsZT0ic3Ryb2tlOiMxODE4MTg7c3Ryb2tlLXdpZHRoOjAuNTsiLz48dGV4dCBmaWxsPSIjMDAwMDAwIiBmb250LWZhbWlseT0ic2Fucy1zZXJpZiIgZm9udC1zaXplPSIxNCIgbGVuZ3RoQWRqdXN0PSJzcGFjaW5nIiB0ZXh0TGVuZ3RoPSI5OCIgeD0iNDU5LjA0NTYiIHk9IjE2OS4wNTEzIj5QYXllciBlbiBsaWduZTwvdGV4dD48L2c+PGcgY2xhc3M9ImVudGl0eSIgZGF0YS1lbnRpdHk9IlN1aXZyZSBsYSBEZW1hbmRlIiBkYXRhLXNvdXJjZS1saW5lPSI5IiBkYXRhLXVpZD0iZW50MDAxMiIgaWQ9ImVudGl0eV9TdWl2cmUgbGEgRGVtYW5kZSI+PGVsbGlwc2UgY3g9IjMyNC45NTU4IiBjeT0iMTY1LjU5MTIiIGZpbGw9IiNGMUYxRjEiIHJ4PSI3OC40NTU4IiByeT0iMTguMDkxMiIgc3R5bGU9InN0cm9rZTojMTgxODE4O3N0cm9rZS13aWR0aDowLjU7Ii8+PHRleHQgZmlsbD0iIzAwMDAwMCIgZm9udC1mYW1pbHk9InNhbnMtc2VyaWYiIGZvbnQtc2l6ZT0iMTQiIGxlbmd0aEFkanVzdD0ic3BhY2luZyIgdGV4dExlbmd0aD0iMTE5IiB4PSIyNjUuNDU1OCIgeT0iMTY5LjMzMzMiPlN1aXZyZSBsYSBEZW1hbmRlPC90ZXh0PjwvZz48ZyBjbGFzcz0iZW50aXR5IiBkYXRhLWVudGl0eT0iVCYjMjMzO2wmIzIzMztjaGFyZ2VyIGwnQWN0ZSBQREYiIGRhdGEtc291cmNlLWxpbmU9IjEwIiBkYXRhLXVpZD0iZW50MDAxNCIgaWQ9ImVudGl0eV9UJiMyMzM7bCYjMjMzO2NoYXJnZXIgbCdBY3RlIFBERiI+PGVsbGlwc2UgY3g9IjExNy4wNjIyIiBjeT0iMTY1LjcxMjQiIGZpbGw9IiNGMUYxRjEiIHJ4PSI5NC4wNjIyIiByeT0iMjEuMjEyNCIgc3R5bGU9InN0cm9rZTojMTgxODE4O3N0cm9rZS13aWR0aDowLjU7Ii8+PHRleHQgZmlsbD0iIzAwMDAwMCIgZm9udC1mYW1pbHk9InNhbnMtc2VyaWYiIGZvbnQtc2l6ZT0iMTQiIGxlbmd0aEFkanVzdD0ic3BhY2luZyIgdGV4dExlbmd0aD0iMTU0IiB4PSI0MC4wNjIyIiB5PSIxNjkuNDU0NiI+VCYjMjMzO2wmIzIzMztjaGFyZ2VyIGwnQWN0ZSBQREY8L3RleHQ+PC9nPjxnIGNsYXNzPSJlbnRpdHkiIGRhdGEtZW50aXR5PSJWYWxpZGVyIHVuZSBEZW1hbmRlIiBkYXRhLXNvdXJjZS1saW5lPSIxMiIgZGF0YS11aWQ9ImVudDAwMTYiIGlkPSJlbnRpdHlfVmFsaWRlciB1bmUgRGVtYW5kZSI+PGVsbGlwc2UgY3g9IjE5MzcuMTA2MiIgY3k9IjE2NS4zMjEyIiBmaWxsPSIjRjFGMUYxIiByeD0iODQuNjA2MiIgcnk9IjE5LjMyMTIiIHN0eWxlPSJzdHJva2U6IzE4MTgxODtzdHJva2Utd2lkdGg6MC41OyIvPjx0ZXh0IGZpbGw9IiMwMDAwMDAiIGZvbnQtZmFtaWx5PSJzYW5zLXNlcmlmIiBmb250LXNpemU9IjE0IiBsZW5ndGhBZGp1c3Q9InNwYWNpbmciIHRleHRMZW5ndGg9IjEzMyIgeD0iMTg3MC42MDYyIiB5PSIxNjkuMDYzNCI+VmFsaWRlciB1bmUgRGVtYW5kZTwvdGV4dD48L2c+PGcgY2xhc3M9ImVudGl0eSIgZGF0YS1lbnRpdHk9IlJlZnVzZXIgdW5lIERlbWFuZGUiIGRhdGEtc291cmNlLWxpbmU9IjEzIiBkYXRhLXVpZD0iZW50MDAxOCIgaWQ9ImVudGl0eV9SZWZ1c2VyIHVuZSBEZW1hbmRlIj48ZWxsaXBzZSBjeD0iMTczMy4xMDYyIiBjeT0iMTY1LjMyMTIiIGZpbGw9IiNGMUYxRjEiIHJ4PSI4NC42MDYyIiByeT0iMTkuMzIxMiIgc3R5bGU9InN0cm9rZTojMTgxODE4O3N0cm9rZS13aWR0aDowLjU7Ii8+PHRleHQgZmlsbD0iIzAwMDAwMCIgZm9udC1mYW1pbHk9InNhbnMtc2VyaWYiIGZvbnQtc2l6ZT0iMTQiIGxlbmd0aEFkanVzdD0ic3BhY2luZyIgdGV4dExlbmd0aD0iMTMzIiB4PSIxNjY2LjYwNjIiIHk9IjE2OS4wNjM0Ij5SZWZ1c2VyIHVuZSBEZW1hbmRlPC90ZXh0PjwvZz48ZyBjbGFzcz0iZW50aXR5IiBkYXRhLWVudGl0eT0iRyYjMjMzO24mIzIzMztyZXIgZXQgU2lnbmVyIHVuIEFjdGUiIGRhdGEtc291cmNlLWxpbmU9IjE0IiBkYXRhLXVpZD0iZW50MDAyMCIgaWQ9ImVudGl0eV9HJiMyMzM7biYjMjMzO3JlciBldCBTaWduZXIgdW4gQWN0ZSI+PGVsbGlwc2UgY3g9IjE1MTAuMjI1MiIgY3k9IjE2NS42NDUiIGZpbGw9IiNGMUYxRjEiIHJ4PSIxMDMuNzI1MiIgcnk9IjIzLjE0NSIgc3R5bGU9InN0cm9rZTojMTgxODE4O3N0cm9rZS13aWR0aDowLjU7Ii8+PHRleHQgZmlsbD0iIzAwMDAwMCIgZm9udC1mYW1pbHk9InNhbnMtc2VyaWYiIGZvbnQtc2l6ZT0iMTQiIGxlbmd0aEFkanVzdD0ic3BhY2luZyIgdGV4dExlbmd0aD0iMTc1IiB4PSIxNDIyLjcyNTIiIHk9IjE2OS4zODcyIj5HJiMyMzM7biYjMjMzO3JlciBldCBTaWduZXIgdW4gQWN0ZTwvdGV4dD48L2c+PGcgY2xhc3M9ImVudGl0eSIgZGF0YS1lbnRpdHk9IkFyY2hpdmVyIHVuIEFjdGUiIGRhdGEtc291cmNlLWxpbmU9IjE1IiBkYXRhLXVpZD0iZW50MDAyMiIgaWQ9ImVudGl0eV9BcmNoaXZlciB1biBBY3RlIj48ZWxsaXBzZSBjeD0iMTI5NS45Mzg0IiBjeT0iMTY1LjQ4NzciIGZpbGw9IiNGMUYxRjEiIHJ4PSI3NS40Mzg0IiByeT0iMTcuNDg3NyIgc3R5bGU9InN0cm9rZTojMTgxODE4O3N0cm9rZS13aWR0aDowLjU7Ii8+PHRleHQgZmlsbD0iIzAwMDAwMCIgZm9udC1mYW1pbHk9InNhbnMtc2VyaWYiIGZvbnQtc2l6ZT0iMTQiIGxlbmd0aEFkanVzdD0ic3BhY2luZyIgdGV4dExlbmd0aD0iMTEyIiB4PSIxMjM5LjkzODQiIHk9IjE2OS4yMjk5Ij5BcmNoaXZlciB1biBBY3RlPC90ZXh0PjwvZz48ZyBjbGFzcz0iZW50aXR5IiBkYXRhLWVudGl0eT0iVm9pciBTdGF0aXN0aXF1ZXMiIGRhdGEtc291cmNlLWxpbmU9IjE2IiBkYXRhLXVpZD0iZW50MDAyNCIgaWQ9ImVudGl0eV9Wb2lyIFN0YXRpc3RpcXVlcyI+PGVsbGlwc2UgY3g9IjExMDYuOTU1OCIgY3k9IjE2NS41OTEyIiBmaWxsPSIjRjFGMUYxIiByeD0iNzguNDU1OCIgcnk9IjE4LjA5MTIiIHN0eWxlPSJzdHJva2U6IzE4MTgxODtzdHJva2Utd2lkdGg6MC41OyIvPjx0ZXh0IGZpbGw9IiMwMDAwMDAiIGZvbnQtZmFtaWx5PSJzYW5zLXNlcmlmIiBmb250LXNpemU9IjE0IiBsZW5ndGhBZGp1c3Q9InNwYWNpbmciIHRleHRMZW5ndGg9IjExOSIgeD0iMTA0Ny40NTU4IiB5PSIxNjkuMzMzMyI+Vm9pciBTdGF0aXN0aXF1ZXM8L3RleHQ+PC9nPjxnIGNsYXNzPSJlbnRpdHkiIGRhdGEtZW50aXR5PSJHJiMyMzM7cmVyIEFnZW50cyIgZGF0YS1zb3VyY2UtbGluZT0iMTgiIGRhdGEtdWlkPSJlbnQwMDI2IiBpZD0iZW50aXR5X0cmIzIzMztyZXIgQWdlbnRzIj48ZWxsaXBzZSBjeD0iMjM2OC44ODc4IiBjeT0iMTY1LjY3NzYiIGZpbGw9IiNGMUYxRjEiIHJ4PSI2My44ODc4IiByeT0iMTUuMTc3NiIgc3R5bGU9InN0cm9rZTojMTgxODE4O3N0cm9rZS13aWR0aDowLjU7Ii8+PHRleHQgZmlsbD0iIzAwMDAwMCIgZm9udC1mYW1pbHk9InNhbnMtc2VyaWYiIGZvbnQtc2l6ZT0iMTQiIGxlbmd0aEFkanVzdD0ic3BhY2luZyIgdGV4dExlbmd0aD0iODQiIHg9IjIzMjYuODg3OCIgeT0iMTY5LjQxOTciPkcmIzIzMztyZXIgQWdlbnRzPC90ZXh0PjwvZz48ZyBjbGFzcz0iZW50aXR5IiBkYXRhLWVudGl0eT0iQ29uZmlndXJlciBGcmFpcyBkZSBUaW1icmUiIGRhdGEtc291cmNlLWxpbmU9IjE5IiBkYXRhLXVpZD0iZW50MDAyOCIgaWQ9ImVudGl0eV9Db25maWd1cmVyIEZyYWlzIGRlIFRpbWJyZSI+PGVsbGlwc2UgY3g9IjIxNjIuOTgyMyIgY3k9IjE2NS4yOTY1IiBmaWxsPSIjRjFGMUYxIiByeD0iMTA2Ljk4MjMiIHJ5PSIyMy43OTY1IiBzdHlsZT0ic3Ryb2tlOiMxODE4MTg7c3Ryb2tlLXdpZHRoOjAuNTsiLz48dGV4dCBmaWxsPSIjMDAwMDAwIiBmb250LWZhbWlseT0ic2Fucy1zZXJpZiIgZm9udC1zaXplPSIxNCIgbGVuZ3RoQWRqdXN0PSJzcGFjaW5nIiB0ZXh0TGVuZ3RoPSIxODIiIHg9IjIwNzEuOTgyMyIgeT0iMTY5LjAzODciPkNvbmZpZ3VyZXIgRnJhaXMgZGUgVGltYnJlPC90ZXh0PjwvZz48ZyBjbGFzcz0iZW50aXR5IiBkYXRhLWVudGl0eT0iQ29uc3VsdGVyIEhpc3RvcmlxdWUgZXQgTG9ncyIgZGF0YS1zb3VyY2UtbGluZT0iMjAiIGRhdGEtdWlkPSJlbnQwMDMwIiBpZD0iZW50aXR5X0NvbnN1bHRlciBIaXN0b3JpcXVlIGV0IExvZ3MiPjxlbGxpcHNlIGN4PSIyNTgyLjA0MSIgY3k9IjE2NS42MDgyIiBmaWxsPSIjRjFGMUYxIiByeD0iMTEzLjU0MSIgcnk9IjI1LjEwODIiIHN0eWxlPSJzdHJva2U6IzE4MTgxODtzdHJva2Utd2lkdGg6MC41OyIvPjx0ZXh0IGZpbGw9IiMwMDAwMDAiIGZvbnQtZmFtaWx5PSJzYW5zLXNlcmlmIiBmb250LXNpemU9IjE0IiBsZW5ndGhBZGp1c3Q9InNwYWNpbmciIHRleHRMZW5ndGg9IjE5NiIgeD0iMjQ4NC4wNDEiIHk9IjE2OS4zNTA0Ij5Db25zdWx0ZXIgSGlzdG9yaXF1ZSBldCBMb2dzPC90ZXh0PjwvZz48IS0tZW50aXR5IENpdG95ZW4tLT48ZyBjbGFzcz0iZW50aXR5IiBkYXRhLWVudGl0eT0iQ2l0b3llbiIgZGF0YS1zb3VyY2UtbGluZT0iMSIgZGF0YS11aWQ9ImVudDAwMDIiIGlkPSJlbnRpdHlfQ2l0b3llbiI+PGVsbGlwc2UgY3g9IjUwOCIgY3k9IjE0IiBmaWxsPSIjRjFGMUYxIiByeD0iOCIgcnk9IjgiIHN0eWxlPSJzdHJva2U6IzE4MTgxODtzdHJva2Utd2lkdGg6MC41OyIvPjxwYXRoIGQ9Ik01MDgsMjIgTDUwOCw0OSBNNDk1LDMwIEw1MjEsMzAgTTUwOCw0OSBMNDk1LDY0IE01MDgsNDkgTDUyMSw2NCIgZmlsbD0ibm9uZSIgc3R5bGU9InN0cm9rZTojMTgxODE4O3N0cm9rZS13aWR0aDowLjU7Ii8+PHRleHQgZmlsbD0iIzAwMDAwMCIgZm9udC1mYW1pbHk9InNhbnMtc2VyaWYiIGZvbnQtc2l6ZT0iMTQiIGxlbmd0aEFkanVzdD0ic3BhY2luZyIgdGV4dExlbmd0aD0iNDkiIHg9IjQ4My41IiB5PSI3OC43MzQ0Ij5DaXRveWVuPC90ZXh0PjwvZz48IS0tZW50aXR5IEFnZW50LS0+PGcgY2xhc3M9ImVudGl0eSIgZGF0YS1lbnRpdHk9IkFnZW50IiBkYXRhLXNvdXJjZS1saW5lPSIyIiBkYXRhLXVpZD0iZW50MDAwMyIgaWQ9ImVudGl0eV9BZ2VudCI+PGVsbGlwc2UgY3g9IjE1MTAiIGN5PSIxNCIgZmlsbD0iI0YxRjFGMSIgcng9IjgiIHJ5PSI4IiBzdHlsZT0ic3Ryb2tlOiMxODE4MTg7c3Ryb2tlLXdpZHRoOjAuNTsiLz48cGF0aCBkPSJNMTUxMCwyMiBMMTUxMCw0OSBNMTQ5NywzMCBMMTUyMywzMCBNMTUxMCw0OSBMMTQ5Nyw2NCBNMTUxMCw0OSBMMTUyMyw2NCIgZmlsbD0ibm9uZSIgc3R5bGU9InN0cm9rZTojMTgxODE4O3N0cm9rZS13aWR0aDowLjU7Ii8+PHRleHQgZmlsbD0iIzAwMDAwMCIgZm9udC1mYW1pbHk9InNhbnMtc2VyaWYiIGZvbnQtc2l6ZT0iMTQiIGxlbmd0aEFkanVzdD0ic3BhY2luZyIgdGV4dExlbmd0aD0iMzUiIHg9IjE0OTIuNSIgeT0iNzguNzM0NCI+QWdlbnQ8L3RleHQ+PC9nPjwhLS1lbnRpdHkgQWRtaW4tLT48ZyBjbGFzcz0iZW50aXR5IiBkYXRhLWVudGl0eT0iQWRtaW4iIGRhdGEtc291cmNlLWxpbmU9IjMiIGRhdGEtdWlkPSJlbnQwMDA0IiBpZD0iZW50aXR5X0FkbWluIj48ZWxsaXBzZSBjeD0iMjM2OSIgY3k9IjE0IiBmaWxsPSIjRjFGMUYxIiByeD0iOCIgcnk9IjgiIHN0eWxlPSJzdHJva2U6IzE4MTgxODtzdHJva2Utd2lkdGg6MC41OyIvPjxwYXRoIGQ9Ik0yMzY5LDIyIEwyMzY5LDQ5IE0yMzU2LDMwIEwyMzgyLDMwIE0yMzY5LDQ5IEwyMzU2LDY0IE0yMzY5LDQ5IEwyMzgyLDY0IiBmaWxsPSJub25lIiBzdHlsZT0ic3Ryb2tlOiMxODE4MTg7c3Ryb2tlLXdpZHRoOjAuNTsiLz48dGV4dCBmaWxsPSIjMDAwMDAwIiBmb250LWZhbWlseT0ic2Fucy1zZXJpZiIgZm9udC1zaXplPSIxNCIgbGVuZ3RoQWRqdXN0PSJzcGFjaW5nIiB0ZXh0TGVuZ3RoPSIzNSIgeD0iMjM1MS41IiB5PSI3OC43MzQ0Ij5BZG1pbjwvdGV4dD48L2c+PCEtLWxpbmsgQ2l0b3llbiB0byBDcj9lciB1biBDb21wdGUtLT48ZyBjbGFzcz0ibGluayIgZGF0YS1lbnRpdHktMT0iQ2l0b3llbiIgZGF0YS1lbnRpdHktMj0iQ3ImIzIzMztlciB1biBDb21wdGUiIGRhdGEtc291cmNlLWxpbmU9IjYiIGRhdGEtdWlkPSJsbms3IiBpZD0ibGlua19DaXRveWVuX0NyJiMyMzM7ZXIgdW4gQ29tcHRlIj48cGF0aCBkPSJNNTMyLjU1LDQ0LjQ4IEM1ODcuOTYsNDYuMzQgNzI2LjA5LDU1LjQxIDgzMSw5OS41IEM4NTkuMjUsMTExLjM3IDg4Ny4xMywxMzMuNTcgOTA0LjIsMTQ4LjY5IiBmaWxsPSJub25lIiBpZD0iQ2l0b3llbi1DciYjMjMzO2VyIHVuIENvbXB0ZSIgc3R5bGU9InN0cm9rZTojMTgxODE4O3N0cm9rZS13aWR0aDoxOyIvPjwvZz48IS0tbGluayBDaXRveWVuIHRvIEZhaXJlIHVuZSBEZW1hbmRlIGQnQWN0ZS0tPjxnIGNsYXNzPSJsaW5rIiBkYXRhLWVudGl0eS0xPSJDaXRveWVuIiBkYXRhLWVudGl0eS0yPSJGYWlyZSB1bmUgRGVtYW5kZSBkJ0FjdGUiIGRhdGEtc291cmNlLWxpbmU9IjciIGRhdGEtdWlkPSJsbms5IiBpZD0ibGlua19DaXRveWVuX0ZhaXJlIHVuZSBEZW1hbmRlIGQnQWN0ZSI+PHBhdGggZD0iTTUzMi43Myw1OC41NCBDNTY5LjE1LDc5Ljk0IDYzNy4zNSwxMjAuMDMgNjc4LjYyLDE0NC4yOSIgZmlsbD0ibm9uZSIgaWQ9IkNpdG95ZW4tRmFpcmUgdW5lIERlbWFuZGUgZCdBY3RlIiBzdHlsZT0ic3Ryb2tlOiMxODE4MTg7c3Ryb2tlLXdpZHRoOjE7Ii8+PC9nPjwhLS1saW5rIENpdG95ZW4gdG8gUGF5ZXIgZW4gbGlnbmUtLT48ZyBjbGFzcz0ibGluayIgZGF0YS1lbnRpdHktMT0iQ2l0b3llbiIgZGF0YS1lbnRpdHktMj0iUGF5ZXIgZW4gbGlnbmUiIGRhdGEtc291cmNlLWxpbmU9IjgiIGRhdGEtdWlkPSJsbmsxMSIgaWQ9ImxpbmtfQ2l0b3llbl9QYXllciBlbiBsaWduZSI+PHBhdGggZD0iTTUwOCw4MC44MSBDNTA4LDEwMy42NSA1MDgsMTMxLjgxIDUwOCwxNDguOTUiIGZpbGw9Im5vbmUiIGlkPSJDaXRveWVuLVBheWVyIGVuIGxpZ25lIiBzdHlsZT0ic3Ryb2tlOiMxODE4MTg7c3Ryb2tlLXdpZHRoOjE7Ii8+PC9nPjwhLS1saW5rIENpdG95ZW4gdG8gU3VpdnJlIGxhIERlbWFuZGUtLT48ZyBjbGFzcz0ibGluayIgZGF0YS1lbnRpdHktMT0iQ2l0b3llbiIgZGF0YS1lbnRpdHktMj0iU3VpdnJlIGxhIERlbWFuZGUiIGRhdGEtc291cmNlLWxpbmU9IjkiIGRhdGEtdWlkPSJsbmsxMyIgaWQ9ImxpbmtfQ2l0b3llbl9TdWl2cmUgbGEgRGVtYW5kZSI+PHBhdGggZD0iTTQ4My4xMyw1OS42MSBDNDY1LjY3LDcwLjYzIDQ0MS44MSw4NS44MiA0MjEsOTkuNSBDMzk2LjExLDExNS44NiAzNjcuOTEsMTM1LjAzIDM0OC41NSwxNDguMjkiIGZpbGw9Im5vbmUiIGlkPSJDaXRveWVuLVN1aXZyZSBsYSBEZW1hbmRlIiBzdHlsZT0ic3Ryb2tlOiMxODE4MTg7c3Ryb2tlLXdpZHRoOjE7Ii8+PC9nPjwhLS1saW5rIENpdG95ZW4gdG8gVD9sP2NoYXJnZXIgbCdBY3RlIFBERi0tPjxnIGNsYXNzPSJsaW5rIiBkYXRhLWVudGl0eS0xPSJDaXRveWVuIiBkYXRhLWVudGl0eS0yPSJUJiMyMzM7bCYjMjMzO2NoYXJnZXIgbCdBY3RlIFBERiIgZGF0YS1zb3VyY2UtbGluZT0iMTAiIGRhdGEtdWlkPSJsbmsxNSIgaWQ9ImxpbmtfQ2l0b3llbl9UJiMyMzM7bCYjMjMzO2NoYXJnZXIgbCdBY3RlIFBERiI+PHBhdGggZD0iTTQ4My4zNyw0Ni4xNiBDNDMzLjgxLDUxLjA4IDMxOS4wOSw2NS40NyAyMjksOTkuNSBDMTk4LjI5LDExMS4xIDE2Ni4xOCwxMzAuNjEgMTQ0LjI2LDE0NS4yMyIgZmlsbD0ibm9uZSIgaWQ9IkNpdG95ZW4tVCYjMjMzO2wmIzIzMztjaGFyZ2VyIGwnQWN0ZSBQREYiIHN0eWxlPSJzdHJva2U6IzE4MTgxODtzdHJva2Utd2lkdGg6MTsiLz48L2c+PCEtLWxpbmsgQWdlbnQgdG8gVmFsaWRlciB1bmUgRGVtYW5kZS0tPjxnIGNsYXNzPSJsaW5rIiBkYXRhLWVudGl0eS0xPSJBZ2VudCIgZGF0YS1lbnRpdHktMj0iVmFsaWRlciB1bmUgRGVtYW5kZSIgZGF0YS1zb3VyY2UtbGluZT0iMTIiIGRhdGEtdWlkPSJsbmsxNyIgaWQ9ImxpbmtfQWdlbnRfVmFsaWRlciB1bmUgRGVtYW5kZSI+PHBhdGggZD0iTTE1MjcuNTYsNDQuNTcgQzE1NzcuNCw0Ni42OSAxNzIzLjM5LDU2LjQzIDE4MzUsOTkuNSBDMTg2NC41OCwxMTAuOTEgMTg5NC43NSwxMzEuNDggMTkxNC41MywxNDYuNDMiIGZpbGw9Im5vbmUiIGlkPSJBZ2VudC1WYWxpZGVyIHVuZSBEZW1hbmRlIiBzdHlsZT0ic3Ryb2tlOiMxODE4MTg7c3Ryb2tlLXdpZHRoOjE7Ii8+PC9nPjwhLS1saW5rIEFnZW50IHRvIFJlZnVzZXIgdW5lIERlbWFuZGUtLT48ZyBjbGFzcz0ibGluayIgZGF0YS1lbnRpdHktMT0iQWdlbnQiIGRhdGEtZW50aXR5LTI9IlJlZnVzZXIgdW5lIERlbWFuZGUiIGRhdGEtc291cmNlLWxpbmU9IjEzIiBkYXRhLXVpZD0ibG5rMTkiIGlkPSJsaW5rX0FnZW50X1JlZnVzZXIgdW5lIERlbWFuZGUiPjxwYXRoIGQ9Ik0xNTI3LjYsNTEuMTcgQzE1NTEuNDgsNjEuMTEgMTU5NS4yOCw4MC4wNSAxNjMxLDk5LjUgQzE2NTcuNzQsMTE0LjA2IDE2ODYuOTEsMTMyLjk4IDE3MDcuMTgsMTQ2LjY1IiBmaWxsPSJub25lIiBpZD0iQWdlbnQtUmVmdXNlciB1bmUgRGVtYW5kZSIgc3R5bGU9InN0cm9rZTojMTgxODE4O3N0cm9rZS13aWR0aDoxOyIvPjwvZz48IS0tbGluayBBZ2VudCB0byBHP24/cmVyIGV0IFNpZ25lciB1biBBY3RlLS0+PGcgY2xhc3M9ImxpbmsiIGRhdGEtZW50aXR5LTE9IkFnZW50IiBkYXRhLWVudGl0eS0yPSJHJiMyMzM7biYjMjMzO3JlciBldCBTaWduZXIgdW4gQWN0ZSIgZGF0YS1zb3VyY2UtbGluZT0iMTQiIGRhdGEtdWlkPSJsbmsyMSIgaWQ9ImxpbmtfQWdlbnRfRyYjMjMzO24mIzIzMztyZXIgZXQgU2lnbmVyIHVuIEFjdGUiPjxwYXRoIGQ9Ik0xNTEwLDgwLjgxIEMxNTEwLDEwMC44OCAxNTEwLDEyNS4wNiAxNTEwLDE0Mi4yNiIgZmlsbD0ibm9uZSIgaWQ9IkFnZW50LUcmIzIzMztuJiMyMzM7cmVyIGV0IFNpZ25lciB1biBBY3RlIiBzdHlsZT0ic3Ryb2tlOiMxODE4MTg7c3Ryb2tlLXdpZHRoOjE7Ii8+PC9nPjwhLS1saW5rIEFnZW50IHRvIEFyY2hpdmVyIHVuIEFjdGUtLT48ZyBjbGFzcz0ibGluayIgZGF0YS1lbnRpdHktMT0iQWdlbnQiIGRhdGEtZW50aXR5LTI9IkFyY2hpdmVyIHVuIEFjdGUiIGRhdGEtc291cmNlLWxpbmU9IjE1IiBkYXRhLXVpZD0ibG5rMjMiIGlkPSJsaW5rX0FnZW50X0FyY2hpdmVyIHVuIEFjdGUiPjxwYXRoIGQ9Ik0xNDkyLjI4LDUwLjk1IEMxNDY4LjI1LDYwLjY0IDE0MjQuMyw3OS4yOSAxMzg5LDk5LjUgQzEzNjMuMDIsMTE0LjM4IDEzMzUuMSwxMzQuNSAxMzE2LjcxLDE0OC40IiBmaWxsPSJub25lIiBpZD0iQWdlbnQtQXJjaGl2ZXIgdW4gQWN0ZSIgc3R5bGU9InN0cm9rZTojMTgxODE4O3N0cm9rZS13aWR0aDoxOyIvPjwvZz48IS0tbGluayBBZ2VudCB0byBWb2lyIFN0YXRpc3RpcXVlcy0tPjxnIGNsYXNzPSJsaW5rIiBkYXRhLWVudGl0eS0xPSJBZ2VudCIgZGF0YS1lbnRpdHktMj0iVm9pciBTdGF0aXN0aXF1ZXMiIGRhdGEtc291cmNlLWxpbmU9IjE2IiBkYXRhLXVpZD0ibG5rMjUiIGlkPSJsaW5rX0FnZW50X1ZvaXIgU3RhdGlzdGlxdWVzIj48cGF0aCBkPSJNMTQ5Mi4zMiw0NC42NSBDMTQ0NC4xMyw0Ni45NiAxMzA3LjA4LDU3LjA4IDEyMDMsOTkuNSBDMTE3My45MiwxMTEuMzUgMTE0NC42NCwxMzIuOSAxMTI2LjE5LDE0Ny45MiIgZmlsbD0ibm9uZSIgaWQ9IkFnZW50LVZvaXIgU3RhdGlzdGlxdWVzIiBzdHlsZT0ic3Ryb2tlOiMxODE4MTg7c3Ryb2tlLXdpZHRoOjE7Ii8+PC9nPjwhLS1saW5rIEFkbWluIHRvIEc/cmVyIEFnZW50cy0tPjxnIGNsYXNzPSJsaW5rIiBkYXRhLWVudGl0eS0xPSJBZG1pbiIgZGF0YS1lbnRpdHktMj0iRyYjMjMzO3JlciBBZ2VudHMiIGRhdGEtc291cmNlLWxpbmU9IjE4IiBkYXRhLXVpZD0ibG5rMjciIGlkPSJsaW5rX0FkbWluX0cmIzIzMztyZXIgQWdlbnRzIj48cGF0aCBkPSJNMjM2OSw4MC44MSBDMjM2OSwxMDQuMzQgMjM2OSwxMzMuNTMgMjM2OSwxNTAuNDgiIGZpbGw9Im5vbmUiIGlkPSJBZG1pbi1HJiMyMzM7cmVyIEFnZW50cyIgc3R5bGU9InN0cm9rZTojMTgxODE4O3N0cm9rZS13aWR0aDoxOyIvPjwvZz48IS0tbGluayBBZG1pbiB0byBDb25maWd1cmVyIEZyYWlzIGRlIFRpbWJyZS0tPjxnIGNsYXNzPSJsaW5rIiBkYXRhLWVudGl0eS0xPSJBZG1pbiIgZGF0YS1lbnRpdHktMj0iQ29uZmlndXJlciBGcmFpcyBkZSBUaW1icmUiIGRhdGEtc291cmNlLWxpbmU9IjE5IiBkYXRhLXVpZD0ibG5rMjkiIGlkPSJsaW5rX0FkbWluX0NvbmZpZ3VyZXIgRnJhaXMgZGUgVGltYnJlIj48cGF0aCBkPSJNMjM1MS40NCw1NC4yNyBDMjMxOC4wNiw3My44IDIyNDQuODQsMTE2LjYzIDIyMDAuMTMsMTQyLjc4IiBmaWxsPSJub25lIiBpZD0iQWRtaW4tQ29uZmlndXJlciBGcmFpcyBkZSBUaW1icmUiIHN0eWxlPSJzdHJva2U6IzE4MTgxODtzdHJva2Utd2lkdGg6MTsiLz48L2c+PCEtLWxpbmsgQWRtaW4gdG8gQ29uc3VsdGVyIEhpc3RvcmlxdWUgZXQgTG9ncy0tPjxnIGNsYXNzPSJsaW5rIiBkYXRhLWVudGl0eS0xPSJBZG1pbiIgZGF0YS1lbnRpdHktMj0iQ29uc3VsdGVyIEhpc3RvcmlxdWUgZXQgTG9ncyIgZGF0YS1zb3VyY2UtbGluZT0iMjAiIGRhdGEtdWlkPSJsbmszMSIgaWQ9ImxpbmtfQWRtaW5fQ29uc3VsdGVyIEhpc3RvcmlxdWUgZXQgTG9ncyI+PHBhdGggZD0iTTIzODYuNzksNTQuMDcgQzI0MjAuNzksNzMuMyAyNDk1LjcyLDExNS42OSAyNTQyLjIyLDE0MiIgZmlsbD0ibm9uZSIgaWQ9IkFkbWluLUNvbnN1bHRlciBIaXN0b3JpcXVlIGV0IExvZ3MiIHN0eWxlPSJzdHJva2U6IzE4MTgxODtzdHJva2Utd2lkdGg6MTsiLz48L2c+PCEtLVNSQz1bVlA1MUppQ200NE50RVNNZTZ5WVlYdVhJMUhPaThiOXJSdkE5RXY5Wm16WUVMMjRFbTU1bzNieUNzb1dnRDhBVGhWX3lfdi1udzlyWGdDY1AyLWYydjVpYktSbHJGNG9hWXVBblRxOUJYUjFoYk4wdTZmdUdtZ1NKQlp3VUlVdFdsTzNMMV9QeGtBeXZCQ1pXRFRIY1VkTE90a1lEOENPZThubm00ZGYwNkV3Z1Zpa3J1WDlqdWFNSHIxa3J5cEg3Nm9MTWJybFc2MU9MYmx1aU00T1JiSUVXRkpIYjRTNHlRU1BFR2o2R3ctOUZmb2xtWkFFdF9tNEZPVDVYdVRKTEdQVXd2azdOYVF2V25Wc1B2aF9LYW82NkJrd0xoQUN0Wl9ReFFGZzZESVBidjBVc18yTkxIZXlhVlA4UjVjR1h4bEg4cW1sWlhoRFVrT1d6blgzM0FJUUxWWjhvRWR2eTBHMDBdLS0+PC9nPjwvc3ZnPg==;" parent="1" vertex="1">
            <mxGeometry x="-1240" y="100" width="2718" height="212" as="geometry" />
          </mxCell>
        </UserObject>
        <UserObject label="" plantUmlData="{&#xa;  &quot;data&quot;: &quot;@startuml\nleft to right direction\nactor Citoyen\nactor Agent\nactor Admin\n\nrectangle \&quot;Plateforme État Civil\&quot; {\n  (Créer un Compte) as CreerCompte\n  (Faire une Demande d&#39;Acte) as FaireDemande\n  (Payer en ligne) as Payer\n  (Suivre la Demande) as Suivre\n  (Télécharger l&#39;Acte PDF) as Telecharger\n\n  (Valider une Demande) as Valider\n  (Refuser une Demande) as Refuser\n  (Générer et Signer un Acte) as GenererSigner\n  (Archiver un Acte) as Archiver\n  (Voir Statistiques) as Statistiques\n\n  (Gérer Agents) as GererAgents\n  (Configurer Frais de Timbre) as ConfigurerTimbre\n  (Consulter Historique et Logs) as ConsulterLogs\n}\n\nCitoyen -- CreerCompte\nCitoyen -- FaireDemande\nCitoyen -- Payer\nCitoyen -- Suivre\nCitoyen -- Telecharger\n\nAgent -- Valider\nAgent -- Refuser\nAgent -- GenererSigner\nAgent -- Archiver\nAgent -- Statistiques\n\nAdmin -- GererAgents\nAdmin -- ConfigurerTimbre\nAdmin -- ConsulterLogs\n@enduml&quot;,&#xa;  &quot;format&quot;: &quot;svg&quot;&#xa;}" id="-bgSvCV_m78U8HyLG94C-1">
          <mxCell style="shape=image;noLabel=1;verticalAlign=top;aspect=fixed;imageAspect=0;image=data:image/svg+xml,PHN2ZyB4bWxucz0iaHR0cDovL3d3dy53My5vcmcvMjAwMC9zdmciIHhtbG5zOnhsaW5rPSJodHRwOi8vd3d3LnczLm9yZy8xOTk5L3hsaW5rIiBjb250ZW50U3R5bGVUeXBlPSJ0ZXh0L2NzcyIgZGF0YS1kaWFncmFtLXR5cGU9IkRFU0NSSVBUSU9OIiBoZWlnaHQ9Ijk5OHB4IiBwcmVzZXJ2ZUFzcGVjdFJhdGlvPSJub25lIiBzdHlsZT0id2lkdGg6MzY0cHg7aGVpZ2h0Ojk5OHB4O2JhY2tncm91bmQ6I0ZGRkZGRjsiIHZlcnNpb249IjEuMSIgdmlld0JveD0iMCAwIDM2NCA5OTgiIHdpZHRoPSIzNjRweCIgem9vbUFuZFBhbj0ibWFnbmlmeSI+PGRlZnMvPjxnPjwhLS1jbHVzdGVyIFBsYXRlZm9ybWUgP3RhdCBDaXZpbC0tPjxnIGNsYXNzPSJjbHVzdGVyIiBkYXRhLWVudGl0eT0iUGxhdGVmb3JtZSAmIzIwMTt0YXQgQ2l2aWwiIGRhdGEtc291cmNlLWxpbmU9IjYiIGRhdGEtdWlkPSJlbnQwMDA1IiBpZD0iY2x1c3Rlcl9QbGF0ZWZvcm1lICYjMjAxO3RhdCBDaXZpbCI+PHJlY3QgZmlsbD0ibm9uZSIgaGVpZ2h0PSI5ODUiIHJ4PSIyLjUiIHJ5PSIyLjUiIHN0eWxlPSJzdHJva2U6IzE4MTgxODtzdHJva2Utd2lkdGg6MTsiIHdpZHRoPSIyNTkiIHg9Ijk5IiB5PSI3Ii8+PHRleHQgZmlsbD0iIzAwMDAwMCIgZm9udC1mYW1pbHk9InNhbnMtc2VyaWYiIGZvbnQtc2l6ZT0iMTQiIGZvbnQtd2VpZ2h0PSJib2xkIiBsZW5ndGhBZGp1c3Q9InNwYWNpbmciIHRleHRMZW5ndGg9IjE0NyIgeD0iMTU1IiB5PSIyMi4yMzQ0Ij5QbGF0ZWZvcm1lICYjMjAxO3RhdCBDaXZpbDwvdGV4dD48L2c+PGcgY2xhc3M9ImVudGl0eSIgZGF0YS1lbnRpdHk9IkNyZWVyQ29tcHRlIiBkYXRhLXNvdXJjZS1saW5lPSI3IiBkYXRhLXVpZD0iZW50MDAwNiIgaWQ9ImVudGl0eV9DcmVlckNvbXB0ZSI+PGVsbGlwc2UgY3g9IjIyOC40NjYzIiBjeT0iNTYuODkzMyIgZmlsbD0iI0YxRjFGMSIgcng9IjcyLjQ2NjMiIHJ5PSIxNi44OTMzIiBzdHlsZT0ic3Ryb2tlOiMxODE4MTg7c3Ryb2tlLXdpZHRoOjAuNTsiLz48dGV4dCBmaWxsPSIjMDAwMDAwIiBmb250LWZhbWlseT0ic2Fucy1zZXJpZiIgZm9udC1zaXplPSIxNCIgbGVuZ3RoQWRqdXN0PSJzcGFjaW5nIiB0ZXh0TGVuZ3RoPSIxMDUiIHg9IjE3NS45NjYzIiB5PSI2MC42MzU1Ij5DciYjMjMzO2VyIHVuIENvbXB0ZTwvdGV4dD48L2c+PGcgY2xhc3M9ImVudGl0eSIgZGF0YS1lbnRpdHk9IkZhaXJlRGVtYW5kZSIgZGF0YS1zb3VyY2UtbGluZT0iOCIgZGF0YS11aWQ9ImVudDAwMDciIGlkPSJlbnRpdHlfRmFpcmVEZW1hbmRlIj48ZWxsaXBzZSBjeD0iMjI4LjQ4NSIgY3k9IjEzMS45OTciIGZpbGw9IiNGMUYxRjEiIHJ4PSIxMDAuNDg1IiByeT0iMjIuNDk3IiBzdHlsZT0ic3Ryb2tlOiMxODE4MTg7c3Ryb2tlLXdpZHRoOjAuNTsiLz48dGV4dCBmaWxsPSIjMDAwMDAwIiBmb250LWZhbWlseT0ic2Fucy1zZXJpZiIgZm9udC1zaXplPSIxNCIgbGVuZ3RoQWRqdXN0PSJzcGFjaW5nIiB0ZXh0TGVuZ3RoPSIxNjgiIHg9IjE0NC40ODUiIHk9IjEzNS43MzkyIj5GYWlyZSB1bmUgRGVtYW5kZSBkJ0FjdGU8L3RleHQ+PC9nPjxnIGNsYXNzPSJlbnRpdHkiIGRhdGEtZW50aXR5PSJQYXllciIgZGF0YS1zb3VyY2UtbGluZT0iOSIgZGF0YS11aWQ9ImVudDAwMDgiIGlkPSJlbnRpdHlfUGF5ZXIiPjxlbGxpcHNlIGN4PSIyMjguNTQ1NiIgY3k9IjIwNS44MDkxIiBmaWxsPSIjRjFGMUYxIiByeD0iNjkuNTQ1NiIgcnk9IjE2LjMwOTEiIHN0eWxlPSJzdHJva2U6IzE4MTgxODtzdHJva2Utd2lkdGg6MC41OyIvPjx0ZXh0IGZpbGw9IiMwMDAwMDAiIGZvbnQtZmFtaWx5PSJzYW5zLXNlcmlmIiBmb250LXNpemU9IjE0IiBsZW5ndGhBZGp1c3Q9InNwYWNpbmciIHRleHRMZW5ndGg9Ijk4IiB4PSIxNzkuNTQ1NiIgeT0iMjA5LjU1MTMiPlBheWVyIGVuIGxpZ25lPC90ZXh0PjwvZz48ZyBjbGFzcz0iZW50aXR5IiBkYXRhLWVudGl0eT0iU3VpdnJlIiBkYXRhLXNvdXJjZS1saW5lPSIxMCIgZGF0YS11aWQ9ImVudDAwMDkiIGlkPSJlbnRpdHlfU3VpdnJlIj48ZWxsaXBzZSBjeD0iMjI4LjQ1NTgiIGN5PSIyNzYuMDkxMiIgZmlsbD0iI0YxRjFGMSIgcng9Ijc4LjQ1NTgiIHJ5PSIxOC4wOTEyIiBzdHlsZT0ic3Ryb2tlOiMxODE4MTg7c3Ryb2tlLXdpZHRoOjAuNTsiLz48dGV4dCBmaWxsPSIjMDAwMDAwIiBmb250LWZhbWlseT0ic2Fucy1zZXJpZiIgZm9udC1zaXplPSIxNCIgbGVuZ3RoQWRqdXN0PSJzcGFjaW5nIiB0ZXh0TGVuZ3RoPSIxMTkiIHg9IjE2OC45NTU4IiB5PSIyNzkuODMzMyI+U3VpdnJlIGxhIERlbWFuZGU8L3RleHQ+PC9nPjxnIGNsYXNzPSJlbnRpdHkiIGRhdGEtZW50aXR5PSJUZWxlY2hhcmdlciIgZGF0YS1zb3VyY2UtbGluZT0iMTEiIGRhdGEtdWlkPSJlbnQwMDEwIiBpZD0iZW50aXR5X1RlbGVjaGFyZ2VyIj48ZWxsaXBzZSBjeD0iMjI4LjU2MjIiIGN5PSIzNTAuMjEyNCIgZmlsbD0iI0YxRjFGMSIgcng9Ijk0LjA2MjIiIHJ5PSIyMS4yMTI0IiBzdHlsZT0ic3Ryb2tlOiMxODE4MTg7c3Ryb2tlLXdpZHRoOjAuNTsiLz48dGV4dCBmaWxsPSIjMDAwMDAwIiBmb250LWZhbWlseT0ic2Fucy1zZXJpZiIgZm9udC1zaXplPSIxNCIgbGVuZ3RoQWRqdXN0PSJzcGFjaW5nIiB0ZXh0TGVuZ3RoPSIxNTQiIHg9IjE1MS41NjIyIiB5PSIzNTMuOTU0NiI+VCYjMjMzO2wmIzIzMztjaGFyZ2VyIGwnQWN0ZSBQREY8L3RleHQ+PC9nPjxnIGNsYXNzPSJlbnRpdHkiIGRhdGEtZW50aXR5PSJWYWxpZGVyIiBkYXRhLXNvdXJjZS1saW5lPSIxMyIgZGF0YS11aWQ9ImVudDAwMTEiIGlkPSJlbnRpdHlfVmFsaWRlciI+PGVsbGlwc2UgY3g9IjIyOC42MDYyIiBjeT0iNDI1LjgyMTIiIGZpbGw9IiNGMUYxRjEiIHJ4PSI4NC42MDYyIiByeT0iMTkuMzIxMiIgc3R5bGU9InN0cm9rZTojMTgxODE4O3N0cm9rZS13aWR0aDowLjU7Ii8+PHRleHQgZmlsbD0iIzAwMDAwMCIgZm9udC1mYW1pbHk9InNhbnMtc2VyaWYiIGZvbnQtc2l6ZT0iMTQiIGxlbmd0aEFkanVzdD0ic3BhY2luZyIgdGV4dExlbmd0aD0iMTMzIiB4PSIxNjIuMTA2MiIgeT0iNDI5LjU2MzQiPlZhbGlkZXIgdW5lIERlbWFuZGU8L3RleHQ+PC9nPjxnIGNsYXNzPSJlbnRpdHkiIGRhdGEtZW50aXR5PSJSZWZ1c2VyIiBkYXRhLXNvdXJjZS1saW5lPSIxNCIgZGF0YS11aWQ9ImVudDAwMTIiIGlkPSJlbnRpdHlfUmVmdXNlciI+PGVsbGlwc2UgY3g9IjIyOC42MDYyIiBjeT0iNDk5LjgyMTIiIGZpbGw9IiNGMUYxRjEiIHJ4PSI4NC42MDYyIiByeT0iMTkuMzIxMiIgc3R5bGU9InN0cm9rZTojMTgxODE4O3N0cm9rZS13aWR0aDowLjU7Ii8+PHRleHQgZmlsbD0iIzAwMDAwMCIgZm9udC1mYW1pbHk9InNhbnMtc2VyaWYiIGZvbnQtc2l6ZT0iMTQiIGxlbmd0aEFkanVzdD0ic3BhY2luZyIgdGV4dExlbmd0aD0iMTMzIiB4PSIxNjIuMTA2MiIgeT0iNTAzLjU2MzQiPlJlZnVzZXIgdW5lIERlbWFuZGU8L3RleHQ+PC9nPjxnIGNsYXNzPSJlbnRpdHkiIGRhdGEtZW50aXR5PSJHZW5lcmVyU2lnbmVyIiBkYXRhLXNvdXJjZS1saW5lPSIxNSIgZGF0YS11aWQ9ImVudDAwMTMiIGlkPSJlbnRpdHlfR2VuZXJlclNpZ25lciI+PGVsbGlwc2UgY3g9IjIyOC43MjUyIiBjeT0iNTc4LjE0NSIgZmlsbD0iI0YxRjFGMSIgcng9IjEwMy43MjUyIiByeT0iMjMuMTQ1IiBzdHlsZT0ic3Ryb2tlOiMxODE4MTg7c3Ryb2tlLXdpZHRoOjAuNTsiLz48dGV4dCBmaWxsPSIjMDAwMDAwIiBmb250LWZhbWlseT0ic2Fucy1zZXJpZiIgZm9udC1zaXplPSIxNCIgbGVuZ3RoQWRqdXN0PSJzcGFjaW5nIiB0ZXh0TGVuZ3RoPSIxNzUiIHg9IjE0MS4yMjUyIiB5PSI1ODEuODg3MiI+RyYjMjMzO24mIzIzMztyZXIgZXQgU2lnbmVyIHVuIEFjdGU8L3RleHQ+PC9nPjxnIGNsYXNzPSJlbnRpdHkiIGRhdGEtZW50aXR5PSJBcmNoaXZlciIgZGF0YS1zb3VyY2UtbGluZT0iMTYiIGRhdGEtdWlkPSJlbnQwMDE0IiBpZD0iZW50aXR5X0FyY2hpdmVyIj48ZWxsaXBzZSBjeD0iMjI4LjQzODQiIGN5PSI2NTMuOTg3NyIgZmlsbD0iI0YxRjFGMSIgcng9Ijc1LjQzODQiIHJ5PSIxNy40ODc3IiBzdHlsZT0ic3Ryb2tlOiMxODE4MTg7c3Ryb2tlLXdpZHRoOjAuNTsiLz48dGV4dCBmaWxsPSIjMDAwMDAwIiBmb250LWZhbWlseT0ic2Fucy1zZXJpZiIgZm9udC1zaXplPSIxNCIgbGVuZ3RoQWRqdXN0PSJzcGFjaW5nIiB0ZXh0TGVuZ3RoPSIxMTIiIHg9IjE3Mi40Mzg0IiB5PSI2NTcuNzI5OSI+QXJjaGl2ZXIgdW4gQWN0ZTwvdGV4dD48L2c+PGcgY2xhc3M9ImVudGl0eSIgZGF0YS1lbnRpdHk9IlN0YXRpc3RpcXVlcyIgZGF0YS1zb3VyY2UtbGluZT0iMTciIGRhdGEtdWlkPSJlbnQwMDE1IiBpZD0iZW50aXR5X1N0YXRpc3RpcXVlcyI+PGVsbGlwc2UgY3g9IjIyOC40NTU4IiBjeT0iNzI1LjA5MTIiIGZpbGw9IiNGMUYxRjEiIHJ4PSI3OC40NTU4IiByeT0iMTguMDkxMiIgc3R5bGU9InN0cm9rZTojMTgxODE4O3N0cm9rZS13aWR0aDowLjU7Ii8+PHRleHQgZmlsbD0iIzAwMDAwMCIgZm9udC1mYW1pbHk9InNhbnMtc2VyaWYiIGZvbnQtc2l6ZT0iMTQiIGxlbmd0aEFkanVzdD0ic3BhY2luZyIgdGV4dExlbmd0aD0iMTE5IiB4PSIxNjguOTU1OCIgeT0iNzI4LjgzMzMiPlZvaXIgU3RhdGlzdGlxdWVzPC90ZXh0PjwvZz48ZyBjbGFzcz0iZW50aXR5IiBkYXRhLWVudGl0eT0iR2VyZXJBZ2VudHMiIGRhdGEtc291cmNlLWxpbmU9IjE5IiBkYXRhLXVpZD0iZW50MDAxNiIgaWQ9ImVudGl0eV9HZXJlckFnZW50cyI+PGVsbGlwc2UgY3g9IjIyOC4zODc4IiBjeT0iNzkzLjE3NzYiIGZpbGw9IiNGMUYxRjEiIHJ4PSI2My44ODc4IiByeT0iMTUuMTc3NiIgc3R5bGU9InN0cm9rZTojMTgxODE4O3N0cm9rZS13aWR0aDowLjU7Ii8+PHRleHQgZmlsbD0iIzAwMDAwMCIgZm9udC1mYW1pbHk9InNhbnMtc2VyaWYiIGZvbnQtc2l6ZT0iMTQiIGxlbmd0aEFkanVzdD0ic3BhY2luZyIgdGV4dExlbmd0aD0iODQiIHg9IjE4Ni4zODc4IiB5PSI3OTYuOTE5NyI+RyYjMjMzO3JlciBBZ2VudHM8L3RleHQ+PC9nPjxnIGNsYXNzPSJlbnRpdHkiIGRhdGEtZW50aXR5PSJDb25maWd1cmVyVGltYnJlIiBkYXRhLXNvdXJjZS1saW5lPSIyMCIgZGF0YS11aWQ9ImVudDAwMTciIGlkPSJlbnRpdHlfQ29uZmlndXJlclRpbWJyZSI+PGVsbGlwc2UgY3g9IjIyOC40ODIzIiBjeT0iODY2Ljc5NjUiIGZpbGw9IiNGMUYxRjEiIHJ4PSIxMDYuOTgyMyIgcnk9IjIzLjc5NjUiIHN0eWxlPSJzdHJva2U6IzE4MTgxODtzdHJva2Utd2lkdGg6MC41OyIvPjx0ZXh0IGZpbGw9IiMwMDAwMDAiIGZvbnQtZmFtaWx5PSJzYW5zLXNlcmlmIiBmb250LXNpemU9IjE0IiBsZW5ndGhBZGp1c3Q9InNwYWNpbmciIHRleHRMZW5ndGg9IjE4MiIgeD0iMTM3LjQ4MjMiIHk9Ijg3MC41Mzg3Ij5Db25maWd1cmVyIEZyYWlzIGRlIFRpbWJyZTwvdGV4dD48L2c+PGcgY2xhc3M9ImVudGl0eSIgZGF0YS1lbnRpdHk9IkNvbnN1bHRlckxvZ3MiIGRhdGEtc291cmNlLWxpbmU9IjIxIiBkYXRhLXVpZD0iZW50MDAxOCIgaWQ9ImVudGl0eV9Db25zdWx0ZXJMb2dzIj48ZWxsaXBzZSBjeD0iMjI4LjU0MSIgY3k9Ijk1MS4xMDgyIiBmaWxsPSIjRjFGMUYxIiByeD0iMTEzLjU0MSIgcnk9IjI1LjEwODIiIHN0eWxlPSJzdHJva2U6IzE4MTgxODtzdHJva2Utd2lkdGg6MC41OyIvPjx0ZXh0IGZpbGw9IiMwMDAwMDAiIGZvbnQtZmFtaWx5PSJzYW5zLXNlcmlmIiBmb250LXNpemU9IjE0IiBsZW5ndGhBZGp1c3Q9InNwYWNpbmciIHRleHRMZW5ndGg9IjE5NiIgeD0iMTMwLjU0MSIgeT0iOTU0Ljg1MDQiPkNvbnN1bHRlciBIaXN0b3JpcXVlIGV0IExvZ3M8L3RleHQ+PC9nPjwhLS1lbnRpdHkgQ2l0b3llbi0tPjxnIGNsYXNzPSJlbnRpdHkiIGRhdGEtZW50aXR5PSJDaXRveWVuIiBkYXRhLXNvdXJjZS1saW5lPSIyIiBkYXRhLXVpZD0iZW50MDAwMiIgaWQ9ImVudGl0eV9DaXRveWVuIj48ZWxsaXBzZSBjeD0iMzAuNSIgY3k9IjE3NyIgZmlsbD0iI0YxRjFGMSIgcng9IjgiIHJ5PSI4IiBzdHlsZT0ic3Ryb2tlOiMxODE4MTg7c3Ryb2tlLXdpZHRoOjAuNTsiLz48cGF0aCBkPSJNMzAuNSwxODUgTDMwLjUsMjEyIE0xNy41LDE5MyBMNDMuNSwxOTMgTTMwLjUsMjEyIEwxNy41LDIyNyBNMzAuNSwyMTIgTDQzLjUsMjI3IiBmaWxsPSJub25lIiBzdHlsZT0ic3Ryb2tlOiMxODE4MTg7c3Ryb2tlLXdpZHRoOjAuNTsiLz48dGV4dCBmaWxsPSIjMDAwMDAwIiBmb250LWZhbWlseT0ic2Fucy1zZXJpZiIgZm9udC1zaXplPSIxNCIgbGVuZ3RoQWRqdXN0PSJzcGFjaW5nIiB0ZXh0TGVuZ3RoPSI0OSIgeD0iNiIgeT0iMjQxLjczNDQiPkNpdG95ZW48L3RleHQ+PC9nPjwhLS1lbnRpdHkgQWdlbnQtLT48ZyBjbGFzcz0iZW50aXR5IiBkYXRhLWVudGl0eT0iQWdlbnQiIGRhdGEtc291cmNlLWxpbmU9IjMiIGRhdGEtdWlkPSJlbnQwMDAzIiBpZD0iZW50aXR5X0FnZW50Ij48ZWxsaXBzZSBjeD0iMzAuNSIgY3k9IjU0OSIgZmlsbD0iI0YxRjFGMSIgcng9IjgiIHJ5PSI4IiBzdHlsZT0ic3Ryb2tlOiMxODE4MTg7c3Ryb2tlLXdpZHRoOjAuNTsiLz48cGF0aCBkPSJNMzAuNSw1NTcgTDMwLjUsNTg0IE0xNy41LDU2NSBMNDMuNSw1NjUgTTMwLjUsNTg0IEwxNy41LDU5OSBNMzAuNSw1ODQgTDQzLjUsNTk5IiBmaWxsPSJub25lIiBzdHlsZT0ic3Ryb2tlOiMxODE4MTg7c3Ryb2tlLXdpZHRoOjAuNTsiLz48dGV4dCBmaWxsPSIjMDAwMDAwIiBmb250LWZhbWlseT0ic2Fucy1zZXJpZiIgZm9udC1zaXplPSIxNCIgbGVuZ3RoQWRqdXN0PSJzcGFjaW5nIiB0ZXh0TGVuZ3RoPSIzNSIgeD0iMTMiIHk9IjYxMy43MzQ0Ij5BZ2VudDwvdGV4dD48L2c+PCEtLWVudGl0eSBBZG1pbi0tPjxnIGNsYXNzPSJlbnRpdHkiIGRhdGEtZW50aXR5PSJBZG1pbiIgZGF0YS1zb3VyY2UtbGluZT0iNCIgZGF0YS11aWQ9ImVudDAwMDQiIGlkPSJlbnRpdHlfQWRtaW4iPjxlbGxpcHNlIGN4PSIzMC41IiBjeT0iODM4IiBmaWxsPSIjRjFGMUYxIiByeD0iOCIgcnk9IjgiIHN0eWxlPSJzdHJva2U6IzE4MTgxODtzdHJva2Utd2lkdGg6MC41OyIvPjxwYXRoIGQ9Ik0zMC41LDg0NiBMMzAuNSw4NzMgTTE3LjUsODU0IEw0My41LDg1NCBNMzAuNSw4NzMgTDE3LjUsODg4IE0zMC41LDg3MyBMNDMuNSw4ODgiIGZpbGw9Im5vbmUiIHN0eWxlPSJzdHJva2U6IzE4MTgxODtzdHJva2Utd2lkdGg6MC41OyIvPjx0ZXh0IGZpbGw9IiMwMDAwMDAiIGZvbnQtZmFtaWx5PSJzYW5zLXNlcmlmIiBmb250LXNpemU9IjE0IiBsZW5ndGhBZGp1c3Q9InNwYWNpbmciIHRleHRMZW5ndGg9IjM1IiB4PSIxMyIgeT0iOTAyLjczNDQiPkFkbWluPC90ZXh0PjwvZz48IS0tbGluayBDaXRveWVuIHRvIENyZWVyQ29tcHRlLS0+PGcgY2xhc3M9ImxpbmsiIGRhdGEtZW50aXR5LTE9IkNpdG95ZW4iIGRhdGEtZW50aXR5LTI9IkNyZWVyQ29tcHRlIiBkYXRhLXNvdXJjZS1saW5lPSIyNCIgZGF0YS11aWQ9ImxuazE5IiBpZD0ibGlua19DaXRveWVuX0NyZWVyQ29tcHRlIj48cGF0aCBkPSJNNDIuMTksMTY4LjQxIEM1MS4yMywxNDMuMjMgNjYuNjgsMTExLjI4IDkxLDkyIEMxMTAuNjUsNzYuNDIgMTM2LjQ1LDY3LjcxIDE2MC4zMiw2Mi44NiIgZmlsbD0ibm9uZSIgaWQ9IkNpdG95ZW4tQ3JlZXJDb21wdGUiIHN0eWxlPSJzdHJva2U6IzE4MTgxODtzdHJva2Utd2lkdGg6MTsiLz48L2c+PCEtLWxpbmsgQ2l0b3llbiB0byBGYWlyZURlbWFuZGUtLT48ZyBjbGFzcz0ibGluayIgZGF0YS1lbnRpdHktMT0iQ2l0b3llbiIgZGF0YS1lbnRpdHktMj0iRmFpcmVEZW1hbmRlIiBkYXRhLXNvdXJjZS1saW5lPSIyNSIgZGF0YS11aWQ9ImxuazIwIiBpZD0ibGlua19DaXRveWVuX0ZhaXJlRGVtYW5kZSI+PHBhdGggZD0iTTU1LjE2LDE5MC43OCBDNjUuODIsMTg0LjM3IDc4Ljc0LDE3Ny4yMSA5MSwxNzIgQzExMi44MiwxNjIuNzIgMTM3LjQ3LDE1NC43OCAxNTkuNzUsMTQ4LjQ3IiBmaWxsPSJub25lIiBpZD0iQ2l0b3llbi1GYWlyZURlbWFuZGUiIHN0eWxlPSJzdHJva2U6IzE4MTgxODtzdHJva2Utd2lkdGg6MTsiLz48L2c+PCEtLWxpbmsgQ2l0b3llbiB0byBQYXllci0tPjxnIGNsYXNzPSJsaW5rIiBkYXRhLWVudGl0eS0xPSJDaXRveWVuIiBkYXRhLWVudGl0eS0yPSJQYXllciIgZGF0YS1zb3VyY2UtbGluZT0iMjYiIGRhdGEtdWlkPSJsbmsyMSIgaWQ9ImxpbmtfQ2l0b3llbl9QYXllciI+PHBhdGggZD0iTTU1LjE0LDIwNiBDODAuNywyMDYgMTIyLjYyLDIwNiAxNTguNzIsMjA2IiBmaWxsPSJub25lIiBpZD0iQ2l0b3llbi1QYXllciIgc3R5bGU9InN0cm9rZTojMTgxODE4O3N0cm9rZS13aWR0aDoxOyIvPjwvZz48IS0tbGluayBDaXRveWVuIHRvIFN1aXZyZS0tPjxnIGNsYXNzPSJsaW5rIiBkYXRhLWVudGl0eS0xPSJDaXRveWVuIiBkYXRhLWVudGl0eS0yPSJTdWl2cmUiIGRhdGEtc291cmNlLWxpbmU9IjI3IiBkYXRhLXVpZD0ibG5rMjIiIGlkPSJsaW5rX0NpdG95ZW5fU3VpdnJlIj48cGF0aCBkPSJNNTUuMDksMjIxLjM4IEM2NS43NCwyMjcuODEgNzguNjcsMjM0Ljk1IDkxLDI0MCBDMTE1Ljg0LDI1MC4xNyAxNDQuNCwyNTguMjIgMTY4Ljk2LDI2NC4xMSIgZmlsbD0ibm9uZSIgaWQ9IkNpdG95ZW4tU3VpdnJlIiBzdHlsZT0ic3Ryb2tlOiMxODE4MTg7c3Ryb2tlLXdpZHRoOjE7Ii8+PC9nPjwhLS1saW5rIENpdG95ZW4gdG8gVGVsZWNoYXJnZXItLT48ZyBjbGFzcz0ibGluayIgZGF0YS1lbnRpdHktMT0iQ2l0b3llbiIgZGF0YS1lbnRpdHktMj0iVGVsZWNoYXJnZXIiIGRhdGEtc291cmNlLWxpbmU9IjI4IiBkYXRhLXVpZD0ibG5rMjMiIGlkPSJsaW5rX0NpdG95ZW5fVGVsZWNoYXJnZXIiPjxwYXRoIGQ9Ik00NC40NSwyNDMuNzQgQzU0LjAxLDI2Ni4zMSA2OS4xOCwyOTMuODMgOTEsMzExIEMxMDcuNzUsMzI0LjE4IDEyOC43NywzMzIuOTEgMTQ5LjI1LDMzOC42OSIgZmlsbD0ibm9uZSIgaWQ9IkNpdG95ZW4tVGVsZWNoYXJnZXIiIHN0eWxlPSJzdHJva2U6IzE4MTgxODtzdHJva2Utd2lkdGg6MTsiLz48L2c+PCEtLWxpbmsgQWdlbnQgdG8gVmFsaWRlci0tPjxnIGNsYXNzPSJsaW5rIiBkYXRhLWVudGl0eS0xPSJBZ2VudCIgZGF0YS1lbnRpdHktMj0iVmFsaWRlciIgZGF0YS1zb3VyY2UtbGluZT0iMzAiIGRhdGEtdWlkPSJsbmsyNCIgaWQ9ImxpbmtfQWdlbnRfVmFsaWRlciI+PHBhdGggZD0iTTQyLjA5LDU0MC40NiBDNTEuMTIsNTE1LjA3IDY2LjYsNDgyLjY5IDkxLDQ2MyBDMTA4LjQ4LDQ0OC44OSAxMzAuOTEsNDQwLjE0IDE1Mi41LDQzNC43MiIgZmlsbD0ibm9uZSIgaWQ9IkFnZW50LVZhbGlkZXIiIHN0eWxlPSJzdHJva2U6IzE4MTgxODtzdHJva2Utd2lkdGg6MTsiLz48L2c+PCEtLWxpbmsgQWdlbnQgdG8gUmVmdXNlci0tPjxnIGNsYXNzPSJsaW5rIiBkYXRhLWVudGl0eS0xPSJBZ2VudCIgZGF0YS1lbnRpdHktMj0iUmVmdXNlciIgZGF0YS1zb3VyY2UtbGluZT0iMzEiIGRhdGEtdWlkPSJsbmsyNSIgaWQ9ImxpbmtfQWdlbnRfUmVmdXNlciI+PHBhdGggZD0iTTQ4LjI2LDU2NC4xNSBDNTkuNyw1NTUuMyA3NS41Miw1NDQuMTcgOTEsNTM3IEMxMTMuODMsNTI2LjQyIDE0MC4yNiw1MTguMzggMTYzLjc1LDUxMi41NCIgZmlsbD0ibm9uZSIgaWQ9IkFnZW50LVJlZnVzZXIiIHN0eWxlPSJzdHJva2U6IzE4MTgxODtzdHJva2Utd2lkdGg6MTsiLz48L2c+PCEtLWxpbmsgQWdlbnQgdG8gR2VuZXJlclNpZ25lci0tPjxnIGNsYXNzPSJsaW5rIiBkYXRhLWVudGl0eS0xPSJBZ2VudCIgZGF0YS1lbnRpdHktMj0iR2VuZXJlclNpZ25lciIgZGF0YS1zb3VyY2UtbGluZT0iMzIiIGRhdGEtdWlkPSJsbmsyNiIgaWQ9ImxpbmtfQWdlbnRfR2VuZXJlclNpZ25lciI+PHBhdGggZD0iTTQ4LjIxLDU3OCBDNjUuOCw1NzggOTUuMDIsNTc4IDEyNC44Myw1NzgiIGZpbGw9Im5vbmUiIGlkPSJBZ2VudC1HZW5lcmVyU2lnbmVyIiBzdHlsZT0ic3Ryb2tlOiMxODE4MTg7c3Ryb2tlLXdpZHRoOjE7Ii8+PC9nPjwhLS1saW5rIEFnZW50IHRvIEFyY2hpdmVyLS0+PGcgY2xhc3M9ImxpbmsiIGRhdGEtZW50aXR5LTE9IkFnZW50IiBkYXRhLWVudGl0eS0yPSJBcmNoaXZlciIgZGF0YS1zb3VyY2UtbGluZT0iMzMiIGRhdGEtdWlkPSJsbmsyNyIgaWQ9ImxpbmtfQWdlbnRfQXJjaGl2ZXIiPjxwYXRoIGQ9Ik00OC4zLDU5MS41MyBDNTkuNzUsNjAwLjE3IDc1LjU4LDYxMS4wMiA5MSw2MTggQzExNS42Nyw2MjkuMTYgMTQ0LjQ4LDYzNy40IDE2OS4yNSw2NDMuMTUiIGZpbGw9Im5vbmUiIGlkPSJBZ2VudC1BcmNoaXZlciIgc3R5bGU9InN0cm9rZTojMTgxODE4O3N0cm9rZS13aWR0aDoxOyIvPjwvZz48IS0tbGluayBBZ2VudCB0byBTdGF0aXN0aXF1ZXMtLT48ZyBjbGFzcz0ibGluayIgZGF0YS1lbnRpdHktMT0iQWdlbnQiIGRhdGEtZW50aXR5LTI9IlN0YXRpc3RpcXVlcyIgZGF0YS1zb3VyY2UtbGluZT0iMzQiIGRhdGEtdWlkPSJsbmsyOCIgaWQ9ImxpbmtfQWdlbnRfU3RhdGlzdGlxdWVzIj48cGF0aCBkPSJNNDIuODgsNjE1LjYyIEM1Mi4xLDYzOS45NSA2Ny40OSw2NzAuNDQgOTEsNjg5IEMxMDkuNjYsNzAzLjczIDEzMy43OCw3MTIuNDcgMTU2LjUzLDcxNy42NCIgZmlsbD0ibm9uZSIgaWQ9IkFnZW50LVN0YXRpc3RpcXVlcyIgc3R5bGU9InN0cm9rZTojMTgxODE4O3N0cm9rZS13aWR0aDoxOyIvPjwvZz48IS0tbGluayBBZG1pbiB0byBHZXJlckFnZW50cy0tPjxnIGNsYXNzPSJsaW5rIiBkYXRhLWVudGl0eS0xPSJBZG1pbiIgZGF0YS1lbnRpdHktMj0iR2VyZXJBZ2VudHMiIGRhdGEtc291cmNlLWxpbmU9IjM2IiBkYXRhLXVpZD0ibG5rMjkiIGlkPSJsaW5rX0FkbWluX0dlcmVyQWdlbnRzIj48cGF0aCBkPSJNNDguMTMsODUyLjYxIEM1OS41LDg0My40NiA3NS4zMiw4MzIuMDUgOTEsODI1IEMxMTYuOTcsODEzLjMyIDE0Ny43Miw4MDUuNjQgMTczLjQ1LDgwMC43MyIgZmlsbD0ibm9uZSIgaWQ9IkFkbWluLUdlcmVyQWdlbnRzIiBzdHlsZT0ic3Ryb2tlOiMxODE4MTg7c3Ryb2tlLXdpZHRoOjE7Ii8+PC9nPjwhLS1saW5rIEFkbWluIHRvIENvbmZpZ3VyZXJUaW1icmUtLT48ZyBjbGFzcz0ibGluayIgZGF0YS1lbnRpdHktMT0iQWRtaW4iIGRhdGEtZW50aXR5LTI9IkNvbmZpZ3VyZXJUaW1icmUiIGRhdGEtc291cmNlLWxpbmU9IjM3IiBkYXRhLXVpZD0ibG5rMzAiIGlkPSJsaW5rX0FkbWluX0NvbmZpZ3VyZXJUaW1icmUiPjxwYXRoIGQ9Ik00OC4yMSw4NjcgQzY1LjA2LDg2NyA5Mi41OCw4NjcgMTIxLjA3LDg2NyIgZmlsbD0ibm9uZSIgaWQ9IkFkbWluLUNvbmZpZ3VyZXJUaW1icmUiIHN0eWxlPSJzdHJva2U6IzE4MTgxODtzdHJva2Utd2lkdGg6MTsiLz48L2c+PCEtLWxpbmsgQWRtaW4gdG8gQ29uc3VsdGVyTG9ncy0tPjxnIGNsYXNzPSJsaW5rIiBkYXRhLWVudGl0eS0xPSJBZG1pbiIgZGF0YS1lbnRpdHktMj0iQ29uc3VsdGVyTG9ncyIgZGF0YS1zb3VyY2UtbGluZT0iMzgiIGRhdGEtdWlkPSJsbmszMSIgaWQ9ImxpbmtfQWRtaW5fQ29uc3VsdGVyTG9ncyI+PHBhdGggZD0iTTQ4LjM2LDg4MC42NSBDNTkuODMsODg5LjQxIDc1LjY3LDkwMC41MSA5MSw5MDggQzExMC42NSw5MTcuNTkgMTMyLjkyLDkyNS42NyAxNTMuNjgsOTMyLjE1IiBmaWxsPSJub25lIiBpZD0iQWRtaW4tQ29uc3VsdGVyTG9ncyIgc3R5bGU9InN0cm9rZTojMTgxODE4O3N0cm9rZS13aWR0aDoxOyIvPjwvZz48IS0tU1JDPVtSUDkxSmlDbTQ0TnRGaU04M1IzZThRZktCR2lNNVF0T2NzSVFaa0pPTzNrTEFpRzFFNGhFYU9sWGlIcXQwTlJuY3B5cHpsekhVRkJXM0xYZ3BudVFpYlh4Q2JoOHNYaUI1TmJwblVjcVJiN3h3UmxmSTBsMVNnYlJYTjJ0THpCWm9UV0VPVnBzcWVWYzJ3YXgtMUcwM3ZLVDF4SkdRd1hDei14bjRRSTNvWUJRVDZSRExlUmpHT0FtbUt4ZzFnNnZOelRQNnVrUGl0V2xoczRVUWIzS3dZSTlZNms3ZFl2WGFmQkplNVhFYkVsN1NMM1pLOS1iUlNDQzVQVjBWaEVEaVlDZ3AyTjF1YlVmZzhiTm55TXVwNWRvV2dWVV9JRjlkMk14U1QzWk9GZEE3V3Z5dk1YNlVUdUUwcTZSQWpvbWpsTVBCaHpLNHVwdENjSlg0N21jdi1jWkh2U1VFR0NZQi1RakNKZ05MbU1HcFo0UGVxX0t6WXBRTWFhRVdrejd3anZpcGdZSzR5bWpoYlMtVDNvNU5TUm9EZHhOaXNkVHI5RzRKQ0lONEZhX1dqTGc0VmVDQl9BVHlISmczRUdPUHNJSE03bU9xb2NWMGdPcTJiWHdOZDBua1AyYmdWN0ZKX3F0OG1seXV6VXlTWkZiMW0wMF0tLT48L2c+PC9zdmc+;" parent="1" vertex="1">
            <mxGeometry x="-1630" y="20" width="364" height="998" as="geometry" />
          </mxCell>
        </UserObject>
      </root>
    </mxGraphModel>
  </diagram>
  <diagram id="03d6Fy-9xnnO98KJ94SQ" name="Diagramme de Séquence ">
    <mxGraphModel dx="1044" dy="658" grid="1" gridSize="10" guides="1" tooltips="1" connect="1" arrows="1" fold="1" page="1" pageScale="1" pageWidth="827" pageHeight="1169" math="0" shadow="0">
      <root>
        <mxCell id="0" />
        <mxCell id="1" parent="0" />
        <UserObject label="" plantUmlData="{&#xa;  &quot;data&quot;: &quot;@startuml\nactor Citoyen\nparticipant Frontend\nparticipant Backend\nparticipant BaseDeDonnées\n\nCitoyen -&gt; Frontend : Soumettre Formulaire de Demande\nFrontend -&gt; Backend : POST /api/demandes\nBackend -&gt; BaseDeDonnées : Enregistrer Demande\nBaseDeDonnées --&gt; Backend : Confirmation\nBackend --&gt; Frontend : Demande enregistrée\n\nCitoyen -&gt; Frontend : Paiement en ligne\nFrontend -&gt; Backend : POST /api/paiements\nBackend -&gt; BaseDeDonnées : Enregistrer Paiement\nBaseDeDonnées --&gt; Backend : Paiement OK\nBackend --&gt; Frontend : Confirmer Paiement\n\nBackend -&gt; Backend : Générer PDF et Signature Numérique\nBackend -&gt; BaseDeDonnées : Stocker Acte\nBaseDeDonnées --&gt; Backend : Acte Sauvegardé\nBackend --&gt; Frontend : Lien Téléchargement Acte\nFrontend --&gt; Citoyen : Téléchargement PDF signé\n@enduml&quot;,&#xa;  &quot;format&quot;: &quot;svg&quot;&#xa;}" id="LyPYN3LtDrTWi98-ATPD-1">
          <mxCell style="shape=image;noLabel=1;verticalAlign=top;aspect=fixed;imageAspect=0;image=data:image/svg+xml,PHN2ZyB4bWxucz0iaHR0cDovL3d3dy53My5vcmcvMjAwMC9zdmciIHhtbG5zOnhsaW5rPSJodHRwOi8vd3d3LnczLm9yZy8xOTk5L3hsaW5rIiBjb250ZW50U3R5bGVUeXBlPSJ0ZXh0L2NzcyIgZGF0YS1kaWFncmFtLXR5cGU9IlNFUVVFTkNFIiBoZWlnaHQ9IjYxMXB4IiBwcmVzZXJ2ZUFzcGVjdFJhdGlvPSJub25lIiBzdHlsZT0id2lkdGg6NzMxcHg7aGVpZ2h0OjYxMXB4O2JhY2tncm91bmQ6I0ZGRkZGRjsiIHZlcnNpb249IjEuMSIgdmlld0JveD0iMCAwIDczMSA2MTEiIHdpZHRoPSI3MzFweCIgem9vbUFuZFBhbj0ibWFnbmlmeSI+PGRlZnMvPjxnPjxnPjx0aXRsZT5DaXRveWVuPC90aXRsZT48cmVjdCBmaWxsPSIjMDAwMDAwIiBmaWxsLW9wYWNpdHk9IjAuMDAwMDAiIGhlaWdodD0iNDUxLjcxMDkiIHdpZHRoPSI4IiB4PSIyOC41IiB5PSI3OS45ODQ0Ii8+PGxpbmUgc3R5bGU9InN0cm9rZTojMTgxODE4O3N0cm9rZS13aWR0aDowLjU7c3Ryb2tlLWRhc2hhcnJheTo1LjAsNS4wOyIgeDE9IjMyIiB4Mj0iMzIiIHkxPSI3OS45ODQ0IiB5Mj0iNTMxLjY5NTMiLz48L2c+PGc+PHRpdGxlPkZyb250ZW5kPC90aXRsZT48cmVjdCBmaWxsPSIjMDAwMDAwIiBmaWxsLW9wYWNpdHk9IjAuMDAwMDAiIGhlaWdodD0iNDUxLjcxMDkiIHdpZHRoPSI4IiB4PSIyNTQiIHk9Ijc5Ljk4NDQiLz48bGluZSBzdHlsZT0ic3Ryb2tlOiMxODE4MTg7c3Ryb2tlLXdpZHRoOjAuNTtzdHJva2UtZGFzaGFycmF5OjUuMCw1LjA7IiB4MT0iMjU4IiB4Mj0iMjU4IiB5MT0iNzkuOTg0NCIgeTI9IjUzMS42OTUzIi8+PC9nPjxnPjx0aXRsZT5CYWNrZW5kPC90aXRsZT48cmVjdCBmaWxsPSIjMDAwMDAwIiBmaWxsLW9wYWNpdHk9IjAuMDAwMDAiIGhlaWdodD0iNDUxLjcxMDkiIHdpZHRoPSI4IiB4PSI0MzQiIHk9Ijc5Ljk4NDQiLz48bGluZSBzdHlsZT0ic3Ryb2tlOiMxODE4MTg7c3Ryb2tlLXdpZHRoOjAuNTtzdHJva2UtZGFzaGFycmF5OjUuMCw1LjA7IiB4MT0iNDM3LjUiIHgyPSI0MzcuNSIgeTE9Ijc5Ljk4NDQiIHkyPSI1MzEuNjk1MyIvPjwvZz48Zz48dGl0bGU+QmFzZURlRG9ubiYjMjMzO2VzPC90aXRsZT48cmVjdCBmaWxsPSIjMDAwMDAwIiBmaWxsLW9wYWNpdHk9IjAuMDAwMDAiIGhlaWdodD0iNDUxLjcxMDkiIHdpZHRoPSI4IiB4PSI2NjkiIHk9Ijc5Ljk4NDQiLz48bGluZSBzdHlsZT0ic3Ryb2tlOiMxODE4MTg7c3Ryb2tlLXdpZHRoOjAuNTtzdHJva2UtZGFzaGFycmF5OjUuMCw1LjA7IiB4MT0iNjcyLjUiIHgyPSI2NzIuNSIgeTE9Ijc5Ljk4NDQiIHkyPSI1MzEuNjk1MyIvPjwvZz48ZyBjbGFzcz0icGFydGljaXBhbnQgcGFydGljaXBhbnQtaGVhZCIgZGF0YS1wYXJ0aWNpcGFudD0iQ2l0b3llbiI+PHRleHQgZmlsbD0iIzAwMDAwMCIgZm9udC1mYW1pbHk9InNhbnMtc2VyaWYiIGZvbnQtc2l6ZT0iMTQiIGxlbmd0aEFkanVzdD0ic3BhY2luZyIgdGV4dExlbmd0aD0iNDkiIHg9IjUiIHk9Ijc4LjIzNDQiPkNpdG95ZW48L3RleHQ+PGVsbGlwc2UgY3g9IjMyLjUiIGN5PSIxMy41IiBmaWxsPSIjRTJFMkYwIiByeD0iOCIgcnk9IjgiIHN0eWxlPSJzdHJva2U6IzE4MTgxODtzdHJva2Utd2lkdGg6MC41OyIvPjxwYXRoIGQ9Ik0zMi41LDIxLjUgTDMyLjUsNDguNSBNMTkuNSwyOS41IEw0NS41LDI5LjUgTTMyLjUsNDguNSBMMTkuNSw2My41IE0zMi41LDQ4LjUgTDQ1LjUsNjMuNSIgZmlsbD0ibm9uZSIgc3R5bGU9InN0cm9rZTojMTgxODE4O3N0cm9rZS13aWR0aDowLjU7Ii8+PC9nPjxnIGNsYXNzPSJwYXJ0aWNpcGFudCBwYXJ0aWNpcGFudC10YWlsIiBkYXRhLXBhcnRpY2lwYW50PSJDaXRveWVuIj48dGV4dCBmaWxsPSIjMDAwMDAwIiBmb250LWZhbWlseT0ic2Fucy1zZXJpZiIgZm9udC1zaXplPSIxNCIgbGVuZ3RoQWRqdXN0PSJzcGFjaW5nIiB0ZXh0TGVuZ3RoPSI0OSIgeD0iNSIgeT0iNTQzLjkyOTciPkNpdG95ZW48L3RleHQ+PGVsbGlwc2UgY3g9IjMyLjUiIGN5PSI1NTQuMTc5NyIgZmlsbD0iI0UyRTJGMCIgcng9IjgiIHJ5PSI4IiBzdHlsZT0ic3Ryb2tlOiMxODE4MTg7c3Ryb2tlLXdpZHRoOjAuNTsiLz48cGF0aCBkPSJNMzIuNSw1NjIuMTc5NyBMMzIuNSw1ODkuMTc5NyBNMTkuNSw1NzAuMTc5NyBMNDUuNSw1NzAuMTc5NyBNMzIuNSw1ODkuMTc5NyBMMTkuNSw2MDQuMTc5NyBNMzIuNSw1ODkuMTc5NyBMNDUuNSw2MDQuMTc5NyIgZmlsbD0ibm9uZSIgc3R5bGU9InN0cm9rZTojMTgxODE4O3N0cm9rZS13aWR0aDowLjU7Ii8+PC9nPjxnIGNsYXNzPSJwYXJ0aWNpcGFudCBwYXJ0aWNpcGFudC1oZWFkIiBkYXRhLXBhcnRpY2lwYW50PSJGcm9udGVuZCI+PHJlY3QgZmlsbD0iI0UyRTJGMCIgaGVpZ2h0PSIyOC45ODQ0IiByeD0iMi41IiByeT0iMi41IiBzdHlsZT0ic3Ryb2tlOiMxODE4MTg7c3Ryb2tlLXdpZHRoOjAuNTsiIHdpZHRoPSI3MCIgeD0iMjIzIiB5PSI1MCIvPjx0ZXh0IGZpbGw9IiMwMDAwMDAiIGZvbnQtZmFtaWx5PSJzYW5zLXNlcmlmIiBmb250LXNpemU9IjE0IiBsZW5ndGhBZGp1c3Q9InNwYWNpbmciIHRleHRMZW5ndGg9IjU2IiB4PSIyMzAiIHk9IjcwLjIzNDQiPkZyb250ZW5kPC90ZXh0PjwvZz48ZyBjbGFzcz0icGFydGljaXBhbnQgcGFydGljaXBhbnQtdGFpbCIgZGF0YS1wYXJ0aWNpcGFudD0iRnJvbnRlbmQiPjxyZWN0IGZpbGw9IiNFMkUyRjAiIGhlaWdodD0iMjguOTg0NCIgcng9IjIuNSIgcnk9IjIuNSIgc3R5bGU9InN0cm9rZTojMTgxODE4O3N0cm9rZS13aWR0aDowLjU7IiB3aWR0aD0iNzAiIHg9IjIyMyIgeT0iNTMwLjY5NTMiLz48dGV4dCBmaWxsPSIjMDAwMDAwIiBmb250LWZhbWlseT0ic2Fucy1zZXJpZiIgZm9udC1zaXplPSIxNCIgbGVuZ3RoQWRqdXN0PSJzcGFjaW5nIiB0ZXh0TGVuZ3RoPSI1NiIgeD0iMjMwIiB5PSI1NTAuOTI5NyI+RnJvbnRlbmQ8L3RleHQ+PC9nPjxnIGNsYXNzPSJwYXJ0aWNpcGFudCBwYXJ0aWNpcGFudC1oZWFkIiBkYXRhLXBhcnRpY2lwYW50PSJCYWNrZW5kIj48cmVjdCBmaWxsPSIjRTJFMkYwIiBoZWlnaHQ9IjI4Ljk4NDQiIHJ4PSIyLjUiIHJ5PSIyLjUiIHN0eWxlPSJzdHJva2U6IzE4MTgxODtzdHJva2Utd2lkdGg6MC41OyIgd2lkdGg9IjYzIiB4PSI0MDYuNSIgeT0iNTAiLz48dGV4dCBmaWxsPSIjMDAwMDAwIiBmb250LWZhbWlseT0ic2Fucy1zZXJpZiIgZm9udC1zaXplPSIxNCIgbGVuZ3RoQWRqdXN0PSJzcGFjaW5nIiB0ZXh0TGVuZ3RoPSI0OSIgeD0iNDEzLjUiIHk9IjcwLjIzNDQiPkJhY2tlbmQ8L3RleHQ+PC9nPjxnIGNsYXNzPSJwYXJ0aWNpcGFudCBwYXJ0aWNpcGFudC10YWlsIiBkYXRhLXBhcnRpY2lwYW50PSJCYWNrZW5kIj48cmVjdCBmaWxsPSIjRTJFMkYwIiBoZWlnaHQ9IjI4Ljk4NDQiIHJ4PSIyLjUiIHJ5PSIyLjUiIHN0eWxlPSJzdHJva2U6IzE4MTgxODtzdHJva2Utd2lkdGg6MC41OyIgd2lkdGg9IjYzIiB4PSI0MDYuNSIgeT0iNTMwLjY5NTMiLz48dGV4dCBmaWxsPSIjMDAwMDAwIiBmb250LWZhbWlseT0ic2Fucy1zZXJpZiIgZm9udC1zaXplPSIxNCIgbGVuZ3RoQWRqdXN0PSJzcGFjaW5nIiB0ZXh0TGVuZ3RoPSI0OSIgeD0iNDEzLjUiIHk9IjU1MC45Mjk3Ij5CYWNrZW5kPC90ZXh0PjwvZz48ZyBjbGFzcz0icGFydGljaXBhbnQgcGFydGljaXBhbnQtaGVhZCIgZGF0YS1wYXJ0aWNpcGFudD0iQmFzZURlRG9ubiYjMjMzO2VzIj48cmVjdCBmaWxsPSIjRTJFMkYwIiBoZWlnaHQ9IjI4Ljk4NDQiIHJ4PSIyLjUiIHJ5PSIyLjUiIHN0eWxlPSJzdHJva2U6IzE4MTgxODtzdHJva2Utd2lkdGg6MC41OyIgd2lkdGg9IjEwNSIgeD0iNjIwLjUiIHk9IjUwIi8+PHRleHQgZmlsbD0iIzAwMDAwMCIgZm9udC1mYW1pbHk9InNhbnMtc2VyaWYiIGZvbnQtc2l6ZT0iMTQiIGxlbmd0aEFkanVzdD0ic3BhY2luZyIgdGV4dExlbmd0aD0iOTEiIHg9IjYyNy41IiB5PSI3MC4yMzQ0Ij5CYXNlRGVEb25uJiMyMzM7ZXM8L3RleHQ+PC9nPjxnIGNsYXNzPSJwYXJ0aWNpcGFudCBwYXJ0aWNpcGFudC10YWlsIiBkYXRhLXBhcnRpY2lwYW50PSJCYXNlRGVEb25uJiMyMzM7ZXMiPjxyZWN0IGZpbGw9IiNFMkUyRjAiIGhlaWdodD0iMjguOTg0NCIgcng9IjIuNSIgcnk9IjIuNSIgc3R5bGU9InN0cm9rZTojMTgxODE4O3N0cm9rZS13aWR0aDowLjU7IiB3aWR0aD0iMTA1IiB4PSI2MjAuNSIgeT0iNTMwLjY5NTMiLz48dGV4dCBmaWxsPSIjMDAwMDAwIiBmb250LWZhbWlseT0ic2Fucy1zZXJpZiIgZm9udC1zaXplPSIxNCIgbGVuZ3RoQWRqdXN0PSJzcGFjaW5nIiB0ZXh0TGVuZ3RoPSI5MSIgeD0iNjI3LjUiIHk9IjU1MC45Mjk3Ij5CYXNlRGVEb25uJiMyMzM7ZXM8L3RleHQ+PC9nPjxnIGNsYXNzPSJtZXNzYWdlIiBkYXRhLXBhcnRpY2lwYW50LTE9IkNpdG95ZW4iIGRhdGEtcGFydGljaXBhbnQtMj0iRnJvbnRlbmQiPjxwb2x5Z29uIGZpbGw9IiMxODE4MTgiIHBvaW50cz0iMjQ2LDEwNS44OTg0LDI1NiwxMDkuODk4NCwyNDYsMTEzLjg5ODQsMjUwLDEwOS44OTg0IiBzdHlsZT0ic3Ryb2tlOiMxODE4MTg7c3Ryb2tlLXdpZHRoOjE7Ii8+PGxpbmUgc3R5bGU9InN0cm9rZTojMTgxODE4O3N0cm9rZS13aWR0aDoxOyIgeDE9IjMyLjUiIHgyPSIyNTIiIHkxPSIxMDkuODk4NCIgeTI9IjEwOS44OTg0Ii8+PHRleHQgZmlsbD0iIzAwMDAwMCIgZm9udC1mYW1pbHk9InNhbnMtc2VyaWYiIGZvbnQtc2l6ZT0iMTMiIGxlbmd0aEFkanVzdD0ic3BhY2luZyIgdGV4dExlbmd0aD0iMjAxLjUiIHg9IjM5LjUiIHk9IjEwNi4yNzM0Ij5Tb3VtZXR0cmUgRm9ybXVsYWlyZSBkZSBEZW1hbmRlPC90ZXh0PjwvZz48ZyBjbGFzcz0ibWVzc2FnZSIgZGF0YS1wYXJ0aWNpcGFudC0xPSJGcm9udGVuZCIgZGF0YS1wYXJ0aWNpcGFudC0yPSJCYWNrZW5kIj48cG9seWdvbiBmaWxsPSIjMTgxODE4IiBwb2ludHM9IjQyNiwxMzMuODEyNSw0MzYsMTM3LjgxMjUsNDI2LDE0MS44MTI1LDQzMCwxMzcuODEyNSIgc3R5bGU9InN0cm9rZTojMTgxODE4O3N0cm9rZS13aWR0aDoxOyIvPjxsaW5lIHN0eWxlPSJzdHJva2U6IzE4MTgxODtzdHJva2Utd2lkdGg6MTsiIHgxPSIyNTgiIHgyPSI0MzIiIHkxPSIxMzcuODEyNSIgeTI9IjEzNy44MTI1Ii8+PHRleHQgZmlsbD0iIzAwMDAwMCIgZm9udC1mYW1pbHk9InNhbnMtc2VyaWYiIGZvbnQtc2l6ZT0iMTMiIGxlbmd0aEFkanVzdD0ic3BhY2luZyIgdGV4dExlbmd0aD0iMTE3IiB4PSIyNjUiIHk9IjEzNC4xODc1Ij5QT1NUIC9hcGkvZGVtYW5kZXM8L3RleHQ+PC9nPjxnIGNsYXNzPSJtZXNzYWdlIiBkYXRhLXBhcnRpY2lwYW50LTE9IkJhY2tlbmQiIGRhdGEtcGFydGljaXBhbnQtMj0iQmFzZURlRG9ubiYjMjMzO2VzIj48cG9seWdvbiBmaWxsPSIjMTgxODE4IiBwb2ludHM9IjY2MSwxNjEuNzI2Niw2NzEsMTY1LjcyNjYsNjYxLDE2OS43MjY2LDY2NSwxNjUuNzI2NiIgc3R5bGU9InN0cm9rZTojMTgxODE4O3N0cm9rZS13aWR0aDoxOyIvPjxsaW5lIHN0eWxlPSJzdHJva2U6IzE4MTgxODtzdHJva2Utd2lkdGg6MTsiIHgxPSI0MzgiIHgyPSI2NjciIHkxPSIxNjUuNzI2NiIgeTI9IjE2NS43MjY2Ii8+PHRleHQgZmlsbD0iIzAwMDAwMCIgZm9udC1mYW1pbHk9InNhbnMtc2VyaWYiIGZvbnQtc2l6ZT0iMTMiIGxlbmd0aEFkanVzdD0ic3BhY2luZyIgdGV4dExlbmd0aD0iMTIzLjUiIHg9IjQ0NSIgeT0iMTYyLjEwMTYiPkVucmVnaXN0cmVyIERlbWFuZGU8L3RleHQ+PC9nPjxnIGNsYXNzPSJtZXNzYWdlIiBkYXRhLXBhcnRpY2lwYW50LTE9IkJhc2VEZURvbm4mIzIzMztlcyIgZGF0YS1wYXJ0aWNpcGFudC0yPSJCYWNrZW5kIj48cG9seWdvbiBmaWxsPSIjMTgxODE4IiBwb2ludHM9IjQ0OSwxODkuNjQwNiw0MzksMTkzLjY0MDYsNDQ5LDE5Ny42NDA2LDQ0NSwxOTMuNjQwNiIgc3R5bGU9InN0cm9rZTojMTgxODE4O3N0cm9rZS13aWR0aDoxOyIvPjxsaW5lIHN0eWxlPSJzdHJva2U6IzE4MTgxODtzdHJva2Utd2lkdGg6MTtzdHJva2UtZGFzaGFycmF5OjIuMCwyLjA7IiB4MT0iNDQzIiB4Mj0iNjcyIiB5MT0iMTkzLjY0MDYiIHkyPSIxOTMuNjQwNiIvPjx0ZXh0IGZpbGw9IiMwMDAwMDAiIGZvbnQtZmFtaWx5PSJzYW5zLXNlcmlmIiBmb250LXNpemU9IjEzIiBsZW5ndGhBZGp1c3Q9InNwYWNpbmciIHRleHRMZW5ndGg9Ijc4IiB4PSI0NTUiIHk9IjE5MC4wMTU2Ij5Db25maXJtYXRpb248L3RleHQ+PC9nPjxnIGNsYXNzPSJtZXNzYWdlIiBkYXRhLXBhcnRpY2lwYW50LTE9IkJhY2tlbmQiIGRhdGEtcGFydGljaXBhbnQtMj0iRnJvbnRlbmQiPjxwb2x5Z29uIGZpbGw9IiMxODE4MTgiIHBvaW50cz0iMjY5LDIxNy41NTQ3LDI1OSwyMjEuNTU0NywyNjksMjI1LjU1NDcsMjY1LDIyMS41NTQ3IiBzdHlsZT0ic3Ryb2tlOiMxODE4MTg7c3Ryb2tlLXdpZHRoOjE7Ii8+PGxpbmUgc3R5bGU9InN0cm9rZTojMTgxODE4O3N0cm9rZS13aWR0aDoxO3N0cm9rZS1kYXNoYXJyYXk6Mi4wLDIuMDsiIHgxPSIyNjMiIHgyPSI0MzciIHkxPSIyMjEuNTU0NyIgeTI9IjIyMS41NTQ3Ii8+PHRleHQgZmlsbD0iIzAwMDAwMCIgZm9udC1mYW1pbHk9InNhbnMtc2VyaWYiIGZvbnQtc2l6ZT0iMTMiIGxlbmd0aEFkanVzdD0ic3BhY2luZyIgdGV4dExlbmd0aD0iMTIzLjUiIHg9IjI3NSIgeT0iMjE3LjkyOTciPkRlbWFuZGUgZW5yZWdpc3RyJiMyMzM7ZTwvdGV4dD48L2c+PGcgY2xhc3M9Im1lc3NhZ2UiIGRhdGEtcGFydGljaXBhbnQtMT0iQ2l0b3llbiIgZGF0YS1wYXJ0aWNpcGFudC0yPSJGcm9udGVuZCI+PHBvbHlnb24gZmlsbD0iIzE4MTgxOCIgcG9pbnRzPSIyNDYsMjQ1LjQ2ODgsMjU2LDI0OS40Njg4LDI0NiwyNTMuNDY4OCwyNTAsMjQ5LjQ2ODgiIHN0eWxlPSJzdHJva2U6IzE4MTgxODtzdHJva2Utd2lkdGg6MTsiLz48bGluZSBzdHlsZT0ic3Ryb2tlOiMxODE4MTg7c3Ryb2tlLXdpZHRoOjE7IiB4MT0iMzIuNSIgeDI9IjI1MiIgeTE9IjI0OS40Njg4IiB5Mj0iMjQ5LjQ2ODgiLz48dGV4dCBmaWxsPSIjMDAwMDAwIiBmb250LWZhbWlseT0ic2Fucy1zZXJpZiIgZm9udC1zaXplPSIxMyIgbGVuZ3RoQWRqdXN0PSJzcGFjaW5nIiB0ZXh0TGVuZ3RoPSIxMTAuNSIgeD0iMzkuNSIgeT0iMjQ1Ljg0MzgiPlBhaWVtZW50IGVuIGxpZ25lPC90ZXh0PjwvZz48ZyBjbGFzcz0ibWVzc2FnZSIgZGF0YS1wYXJ0aWNpcGFudC0xPSJGcm9udGVuZCIgZGF0YS1wYXJ0aWNpcGFudC0yPSJCYWNrZW5kIj48cG9seWdvbiBmaWxsPSIjMTgxODE4IiBwb2ludHM9IjQyNiwyNzMuMzgyOCw0MzYsMjc3LjM4MjgsNDI2LDI4MS4zODI4LDQzMCwyNzcuMzgyOCIgc3R5bGU9InN0cm9rZTojMTgxODE4O3N0cm9rZS13aWR0aDoxOyIvPjxsaW5lIHN0eWxlPSJzdHJva2U6IzE4MTgxODtzdHJva2Utd2lkdGg6MTsiIHgxPSIyNTgiIHgyPSI0MzIiIHkxPSIyNzcuMzgyOCIgeTI9IjI3Ny4zODI4Ii8+PHRleHQgZmlsbD0iIzAwMDAwMCIgZm9udC1mYW1pbHk9InNhbnMtc2VyaWYiIGZvbnQtc2l6ZT0iMTMiIGxlbmd0aEFkanVzdD0ic3BhY2luZyIgdGV4dExlbmd0aD0iMTIzLjUiIHg9IjI2NSIgeT0iMjczLjc1NzgiPlBPU1QgL2FwaS9wYWllbWVudHM8L3RleHQ+PC9nPjxnIGNsYXNzPSJtZXNzYWdlIiBkYXRhLXBhcnRpY2lwYW50LTE9IkJhY2tlbmQiIGRhdGEtcGFydGljaXBhbnQtMj0iQmFzZURlRG9ubiYjMjMzO2VzIj48cG9seWdvbiBmaWxsPSIjMTgxODE4IiBwb2ludHM9IjY2MSwzMDEuMjk2OSw2NzEsMzA1LjI5NjksNjYxLDMwOS4yOTY5LDY2NSwzMDUuMjk2OSIgc3R5bGU9InN0cm9rZTojMTgxODE4O3N0cm9rZS13aWR0aDoxOyIvPjxsaW5lIHN0eWxlPSJzdHJva2U6IzE4MTgxODtzdHJva2Utd2lkdGg6MTsiIHgxPSI0MzgiIHgyPSI2NjciIHkxPSIzMDUuMjk2OSIgeTI9IjMwNS4yOTY5Ii8+PHRleHQgZmlsbD0iIzAwMDAwMCIgZm9udC1mYW1pbHk9InNhbnMtc2VyaWYiIGZvbnQtc2l6ZT0iMTMiIGxlbmd0aEFkanVzdD0ic3BhY2luZyIgdGV4dExlbmd0aD0iMTMwIiB4PSI0NDUiIHk9IjMwMS42NzE5Ij5FbnJlZ2lzdHJlciBQYWllbWVudDwvdGV4dD48L2c+PGcgY2xhc3M9Im1lc3NhZ2UiIGRhdGEtcGFydGljaXBhbnQtMT0iQmFzZURlRG9ubiYjMjMzO2VzIiBkYXRhLXBhcnRpY2lwYW50LTI9IkJhY2tlbmQiPjxwb2x5Z29uIGZpbGw9IiMxODE4MTgiIHBvaW50cz0iNDQ5LDMyOS4yMTA5LDQzOSwzMzMuMjEwOSw0NDksMzM3LjIxMDksNDQ1LDMzMy4yMTA5IiBzdHlsZT0ic3Ryb2tlOiMxODE4MTg7c3Ryb2tlLXdpZHRoOjE7Ii8+PGxpbmUgc3R5bGU9InN0cm9rZTojMTgxODE4O3N0cm9rZS13aWR0aDoxO3N0cm9rZS1kYXNoYXJyYXk6Mi4wLDIuMDsiIHgxPSI0NDMiIHgyPSI2NzIiIHkxPSIzMzMuMjEwOSIgeTI9IjMzMy4yMTA5Ii8+PHRleHQgZmlsbD0iIzAwMDAwMCIgZm9udC1mYW1pbHk9InNhbnMtc2VyaWYiIGZvbnQtc2l6ZT0iMTMiIGxlbmd0aEFkanVzdD0ic3BhY2luZyIgdGV4dExlbmd0aD0iNzEuNSIgeD0iNDU1IiB5PSIzMjkuNTg1OSI+UGFpZW1lbnQgT0s8L3RleHQ+PC9nPjxnIGNsYXNzPSJtZXNzYWdlIiBkYXRhLXBhcnRpY2lwYW50LTE9IkJhY2tlbmQiIGRhdGEtcGFydGljaXBhbnQtMj0iRnJvbnRlbmQiPjxwb2x5Z29uIGZpbGw9IiMxODE4MTgiIHBvaW50cz0iMjY5LDM1Ny4xMjUsMjU5LDM2MS4xMjUsMjY5LDM2NS4xMjUsMjY1LDM2MS4xMjUiIHN0eWxlPSJzdHJva2U6IzE4MTgxODtzdHJva2Utd2lkdGg6MTsiLz48bGluZSBzdHlsZT0ic3Ryb2tlOiMxODE4MTg7c3Ryb2tlLXdpZHRoOjE7c3Ryb2tlLWRhc2hhcnJheToyLjAsMi4wOyIgeDE9IjI2MyIgeDI9IjQzNyIgeTE9IjM2MS4xMjUiIHkyPSIzNjEuMTI1Ii8+PHRleHQgZmlsbD0iIzAwMDAwMCIgZm9udC1mYW1pbHk9InNhbnMtc2VyaWYiIGZvbnQtc2l6ZT0iMTMiIGxlbmd0aEFkanVzdD0ic3BhY2luZyIgdGV4dExlbmd0aD0iMTE3IiB4PSIyNzUiIHk9IjM1Ny41Ij5Db25maXJtZXIgUGFpZW1lbnQ8L3RleHQ+PC9nPjxnIGNsYXNzPSJtZXNzYWdlIiBkYXRhLXBhcnRpY2lwYW50LTE9IkJhY2tlbmQiIGRhdGEtcGFydGljaXBhbnQtMj0iQmFja2VuZCI+PGxpbmUgc3R5bGU9InN0cm9rZTojMTgxODE4O3N0cm9rZS13aWR0aDoxOyIgeDE9IjQzOCIgeDI9IjQ4MCIgeTE9IjM4OS4wMzkxIiB5Mj0iMzg5LjAzOTEiLz48bGluZSBzdHlsZT0ic3Ryb2tlOiMxODE4MTg7c3Ryb2tlLXdpZHRoOjE7IiB4MT0iNDgwIiB4Mj0iNDgwIiB5MT0iMzg5LjAzOTEiIHkyPSI0MDIuMDM5MSIvPjxsaW5lIHN0eWxlPSJzdHJva2U6IzE4MTgxODtzdHJva2Utd2lkdGg6MTsiIHgxPSI0MzkiIHgyPSI0ODAiIHkxPSI0MDIuMDM5MSIgeTI9IjQwMi4wMzkxIi8+PHBvbHlnb24gZmlsbD0iIzE4MTgxOCIgcG9pbnRzPSI0NDksMzk4LjAzOTEsNDM5LDQwMi4wMzkxLDQ0OSw0MDYuMDM5MSw0NDUsNDAyLjAzOTEiIHN0eWxlPSJzdHJva2U6IzE4MTgxODtzdHJva2Utd2lkdGg6MTsiLz48dGV4dCBmaWxsPSIjMDAwMDAwIiBmb250LWZhbWlseT0ic2Fucy1zZXJpZiIgZm9udC1zaXplPSIxMyIgbGVuZ3RoQWRqdXN0PSJzcGFjaW5nIiB0ZXh0TGVuZ3RoPSIyMjEiIHg9IjQ0NSIgeT0iMzg1LjQxNDEiPkcmIzIzMztuJiMyMzM7cmVyIFBERiBldCBTaWduYXR1cmUgTnVtJiMyMzM7cmlxdWU8L3RleHQ+PC9nPjxnIGNsYXNzPSJtZXNzYWdlIiBkYXRhLXBhcnRpY2lwYW50LTE9IkJhY2tlbmQiIGRhdGEtcGFydGljaXBhbnQtMj0iQmFzZURlRG9ubiYjMjMzO2VzIj48cG9seWdvbiBmaWxsPSIjMTgxODE4IiBwb2ludHM9IjY2MSw0MjUuOTUzMSw2NzEsNDI5Ljk1MzEsNjYxLDQzMy45NTMxLDY2NSw0MjkuOTUzMSIgc3R5bGU9InN0cm9rZTojMTgxODE4O3N0cm9rZS13aWR0aDoxOyIvPjxsaW5lIHN0eWxlPSJzdHJva2U6IzE4MTgxODtzdHJva2Utd2lkdGg6MTsiIHgxPSI0MzgiIHgyPSI2NjciIHkxPSI0MjkuOTUzMSIgeTI9IjQyOS45NTMxIi8+PHRleHQgZmlsbD0iIzAwMDAwMCIgZm9udC1mYW1pbHk9InNhbnMtc2VyaWYiIGZvbnQtc2l6ZT0iMTMiIGxlbmd0aEFkanVzdD0ic3BhY2luZyIgdGV4dExlbmd0aD0iNzgiIHg9IjQ0NSIgeT0iNDI2LjMyODEiPlN0b2NrZXIgQWN0ZTwvdGV4dD48L2c+PGcgY2xhc3M9Im1lc3NhZ2UiIGRhdGEtcGFydGljaXBhbnQtMT0iQmFzZURlRG9ubiYjMjMzO2VzIiBkYXRhLXBhcnRpY2lwYW50LTI9IkJhY2tlbmQiPjxwb2x5Z29uIGZpbGw9IiMxODE4MTgiIHBvaW50cz0iNDQ5LDQ1My44NjcyLDQzOSw0NTcuODY3Miw0NDksNDYxLjg2NzIsNDQ1LDQ1Ny44NjcyIiBzdHlsZT0ic3Ryb2tlOiMxODE4MTg7c3Ryb2tlLXdpZHRoOjE7Ii8+PGxpbmUgc3R5bGU9InN0cm9rZTojMTgxODE4O3N0cm9rZS13aWR0aDoxO3N0cm9rZS1kYXNoYXJyYXk6Mi4wLDIuMDsiIHgxPSI0NDMiIHgyPSI2NzIiIHkxPSI0NTcuODY3MiIgeTI9IjQ1Ny44NjcyIi8+PHRleHQgZmlsbD0iIzAwMDAwMCIgZm9udC1mYW1pbHk9InNhbnMtc2VyaWYiIGZvbnQtc2l6ZT0iMTMiIGxlbmd0aEFkanVzdD0ic3BhY2luZyIgdGV4dExlbmd0aD0iOTcuNSIgeD0iNDU1IiB5PSI0NTQuMjQyMiI+QWN0ZSBTYXV2ZWdhcmQmIzIzMzs8L3RleHQ+PC9nPjxnIGNsYXNzPSJtZXNzYWdlIiBkYXRhLXBhcnRpY2lwYW50LTE9IkJhY2tlbmQiIGRhdGEtcGFydGljaXBhbnQtMj0iRnJvbnRlbmQiPjxwb2x5Z29uIGZpbGw9IiMxODE4MTgiIHBvaW50cz0iMjY5LDQ4MS43ODEzLDI1OSw0ODUuNzgxMywyNjksNDg5Ljc4MTMsMjY1LDQ4NS43ODEzIiBzdHlsZT0ic3Ryb2tlOiMxODE4MTg7c3Ryb2tlLXdpZHRoOjE7Ii8+PGxpbmUgc3R5bGU9InN0cm9rZTojMTgxODE4O3N0cm9rZS13aWR0aDoxO3N0cm9rZS1kYXNoYXJyYXk6Mi4wLDIuMDsiIHgxPSIyNjMiIHgyPSI0MzciIHkxPSI0ODUuNzgxMyIgeTI9IjQ4NS43ODEzIi8+PHRleHQgZmlsbD0iIzAwMDAwMCIgZm9udC1mYW1pbHk9InNhbnMtc2VyaWYiIGZvbnQtc2l6ZT0iMTMiIGxlbmd0aEFkanVzdD0ic3BhY2luZyIgdGV4dExlbmd0aD0iMTU2IiB4PSIyNzUiIHk9IjQ4Mi4xNTYzIj5MaWVuIFQmIzIzMztsJiMyMzM7Y2hhcmdlbWVudCBBY3RlPC90ZXh0PjwvZz48ZyBjbGFzcz0ibWVzc2FnZSIgZGF0YS1wYXJ0aWNpcGFudC0xPSJGcm9udGVuZCIgZGF0YS1wYXJ0aWNpcGFudC0yPSJDaXRveWVuIj48cG9seWdvbiBmaWxsPSIjMTgxODE4IiBwb2ludHM9IjQzLjUsNTA5LjY5NTMsMzMuNSw1MTMuNjk1Myw0My41LDUxNy42OTUzLDM5LjUsNTEzLjY5NTMiIHN0eWxlPSJzdHJva2U6IzE4MTgxODtzdHJva2Utd2lkdGg6MTsiLz48bGluZSBzdHlsZT0ic3Ryb2tlOiMxODE4MTg7c3Ryb2tlLXdpZHRoOjE7c3Ryb2tlLWRhc2hhcnJheToyLjAsMi4wOyIgeDE9IjM3LjUiIHgyPSIyNTciIHkxPSI1MTMuNjk1MyIgeTI9IjUxMy42OTUzIi8+PHRleHQgZmlsbD0iIzAwMDAwMCIgZm9udC1mYW1pbHk9InNhbnMtc2VyaWYiIGZvbnQtc2l6ZT0iMTMiIGxlbmd0aEFkanVzdD0ic3BhY2luZyIgdGV4dExlbmd0aD0iMTU2IiB4PSI0OS41IiB5PSI1MTAuMDcwMyI+VCYjMjMzO2wmIzIzMztjaGFyZ2VtZW50IFBERiBzaWduJiMyMzM7PC90ZXh0PjwvZz48IS0tU1JDPVtaUDUxUmVEMDM0TnRkQzhOWUJCRmViOFJJWFVqYWFaYTBYUXVyNmdPZU9FZEtleXF2dllCckk1MEdZRUl4YVJaeF9WelJJcDRFYllwczF5b0lPREVrRTA2WkszY2gxNG92VUpwMk9sRnd4LU1LYWdqQ0o1R2NvR3ozMU9GOG1ETWE1alZhdVdab0FvaF9HNVBkb0wxSVpNUWFmOUhnY3N6WXRSampsYVVialptaVpwZnNjR2VUaGZCUHZLXzZxU0xqLWhZSGwwVnFNQjJOcmxwcGd2Nk9NbEV2RWRhRkdYZVcyamRCa0tFY01oSWZNWmJtOU12ZHdsZkVfdVZSRjJ1ZE1vU1BGaXc1d21GVnVjUzNaNm1OYzlHWXl1eHBPMDRTZXM2dWxNMjZyemhYUnl5dFBtXzV3ajUxdS01dEJkOEtHNHYtYy1ncTlLbnAwdF9uaGhZVkdvNzY4ZUZUREtmUkNTX2hyblJYWmtqaGlON0NBcWNZVTROXS0tPjwvZz48L3N2Zz4=;" parent="1" vertex="1">
            <mxGeometry x="50" y="40" width="731" height="611" as="geometry" />
          </mxCell>
        </UserObject>
      </root>
    </mxGraphModel>
  </diagram>
  <diagram id="9diNsrOCKCJJzx-DLHdT" name="Diagramme de Classes">
    <mxGraphModel dx="1871" dy="1827" grid="1" gridSize="10" guides="1" tooltips="1" connect="1" arrows="1" fold="1" page="1" pageScale="1" pageWidth="827" pageHeight="1169" math="0" shadow="0">
      <root>
        <mxCell id="0" />
        <mxCell id="1" parent="0" />
        <UserObject label="" plantUmlData="{&quot;data&quot;:&quot;@startuml\nentity \&quot;Citoyen\&quot; {\n  +ID_Citoyen : UUID\n  Nom : String\n  Prenom : String\n  Date_Naissance : Date\n  Lieu_Naissance : String\n  Adresse : String\n  Email : String\n  Telephone : String\n}\n\nentity \&quot;Demande\&quot; {\n  +ID_Demande : UUID\n  ID_Citoyen : UUID\n  Type_Acte : Enum [Naissance, Mariage, Décès]\n  Statut : Enum [Soumise, En traitement, Validée, Refusée, Livrée]\n  Date_Demande : DateTime\n  ID_Paiement : UUID\n}\n\nentity \&quot;Document_Acte\&quot; {\n  +ID_Acte : UUID\n  ID_Demande : UUID\n  Date_Delivrance : DateTime\n  Fichier_PDF : Lien\n  Signature_Numerique : String\n  Est_Archive : Boolean\n  Date_Archivage : DateTime\n}\n\nentity \&quot;Paiement\&quot; {\n  +ID_Paiement : UUID\n  Montant : Decimal\n  Mode_Paiement : Enum [Mobile_Money, Carte_Bancaire, Virement]\n  Date_Paiement : DateTime\n  Transaction_ID : String\n}\n\nentity \&quot;Agent\&quot; {\n  +ID_Agent : UUID\n  Nom : String\n  Prenom : String\n  Email : String\n  Role : Enum [Agent, Administrateur]\n}\n\nentity \&quot;Historique_Modifications\&quot; {\n  +ID_Historique : UUID\n  Type_Entite : Enum [Demande, Acte]\n  ID_Entite : UUID\n  ID_Agent : UUID\n  Action : String\n  Date_Modification : DateTime\n  Ancienne_Valeur : Text\n  Nouvelle_Valeur : Text\n}\nCitoyen \&quot;1\&quot; -- \&quot;0..*\&quot; Demande : fait\nDemande \&quot;1\&quot; -- \&quot;1\&quot; Document_Acte : produit\nDemande \&quot;1\&quot; -- \&quot;1\&quot; Paiement : payé_par\nAgent \&quot;1\&quot; -- \&quot;0..*\&quot; Historique_Modifications : enregistre\nHistorique_Modifications \&quot;0..*\&quot; -- \&quot;1\&quot; Demande : concerne\nHistorique_Modifications \&quot;0..*\&quot; -- \&quot;1\&quot; Document_Acte : concerne\n@enduml&quot;,&quot;format&quot;:&quot;svg&quot;}" id="4FE7bUXn4mwZ9wUi8sG4-1">
          <mxCell style="shape=image;noLabel=1;verticalAlign=top;aspect=fixed;imageAspect=0;image=data:image/svg+xml,PHN2ZyB4bWxucz0iaHR0cDovL3d3dy53My5vcmcvMjAwMC9zdmciIHhtbG5zOnhsaW5rPSJodHRwOi8vd3d3LnczLm9yZy8xOTk5L3hsaW5rIiBjb250ZW50U3R5bGVUeXBlPSJ0ZXh0L2NzcyIgZGF0YS1kaWFncmFtLXR5cGU9IkNMQVNTIiBoZWlnaHQ9IjgyMHB4IiBwcmVzZXJ2ZUFzcGVjdFJhdGlvPSJub25lIiBzdHlsZT0id2lkdGg6NzI2cHg7aGVpZ2h0OjgyMHB4O2JhY2tncm91bmQ6I0ZGRkZGRjsiIHZlcnNpb249IjEuMSIgdmlld0JveD0iMCAwIDcyNiA4MjAiIHdpZHRoPSI3MjZweCIgem9vbUFuZFBhbj0ibWFnbmlmeSI+PGRlZnMvPjxnPjwhLS1jbGFzcyBDaXRveWVuLS0+PGcgY2xhc3M9ImVudGl0eSIgZGF0YS1lbnRpdHk9IkNpdG95ZW4iIGRhdGEtc291cmNlLWxpbmU9IjEiIGRhdGEtdWlkPSJlbnQwMDAyIiBpZD0iZW50aXR5X0NpdG95ZW4iPjxyZWN0IGZpbGw9IiNGMUYxRjEiIGhlaWdodD0iMTY3Ljg3NSIgcng9IjIuNSIgcnk9IjIuNSIgc3R5bGU9InN0cm9rZTojMTgxODE4O3N0cm9rZS13aWR0aDowLjU7IiB3aWR0aD0iMTg3IiB4PSIyMDYiIHk9IjIwNSIvPjxlbGxpcHNlIGN4PSIyNzAuNzUiIGN5PSIyMjEiIGZpbGw9IiNBREQxQjIiIHJ4PSIxMSIgcnk9IjExIiBzdHlsZT0ic3Ryb2tlOiMxODE4MTg7c3Ryb2tlLXdpZHRoOjE7Ii8+PHBhdGggZD0iTTI3NC4zNzUsMjI3IEwyNzQuMzc1LDIyNS4yNSBMMjY5LjA2MjUsMjI1LjI1IFEyNjkuMDYyNSwyMjUuMjUgMjY5LjA2MjUsMjIxLjY4NzUgTDI3My4zMTI1LDIyMS42ODc1IEwyNzMuMzEyNSwyMTkuOTM3NSBMMjY5LjA2MjUsMjE5LjkzNzUgTDI2OS4wNjI1LDIxNy40Mzc1IEwyNzQuMzc1LDIxNy40Mzc1IEwyNzQuMzc1LDIxNS42ODc1IEwyNjcuMzEyNSwyMTUuNjg3NSBRMjY3LjMxMjUsMjE1LjY4NzUgMjY3LjMxMjUsMjI3IEwyNzQuMzc1LDIyNyBaICIgZmlsbD0iIzAwMDAwMCIvPjx0ZXh0IGZpbGw9IiMwMDAwMDAiIGZvbnQtZmFtaWx5PSJzYW5zLXNlcmlmIiBmb250LXNpemU9IjE0IiBsZW5ndGhBZGp1c3Q9InNwYWNpbmciIHRleHRMZW5ndGg9IjQ5IiB4PSIyOTEuMjUiIHk9IjIyNi43NDIyIj5DaXRveWVuPC90ZXh0PjxsaW5lIHN0eWxlPSJzdHJva2U6IzE4MTgxODtzdHJva2Utd2lkdGg6MC41OyIgeDE9IjIwNyIgeDI9IjM5MiIgeTE9IjIzNyIgeTI9IjIzNyIvPjxlbGxpcHNlIGN4PSIyMTciIGN5PSIyNDkuOTkyMiIgZmlsbD0ibm9uZSIgcng9IjMiIHJ5PSIzIiBzdHlsZT0ic3Ryb2tlOiMwMzgwNDg7c3Ryb2tlLXdpZHRoOjE7Ii8+PHRleHQgZmlsbD0iIzAwMDAwMCIgZm9udC1mYW1pbHk9InNhbnMtc2VyaWYiIGZvbnQtc2l6ZT0iMTQiIGxlbmd0aEFkanVzdD0ic3BhY2luZyIgdGV4dExlbmd0aD0iMTE5IiB4PSIyMjYiIHk9IjI1NC4yMzQ0Ij5JRF9DaXRveWVuIDogVVVJRDwvdGV4dD48dGV4dCBmaWxsPSIjMDAwMDAwIiBmb250LWZhbWlseT0ic2Fucy1zZXJpZiIgZm9udC1zaXplPSIxNCIgbGVuZ3RoQWRqdXN0PSJzcGFjaW5nIiB0ZXh0TGVuZ3RoPSI4NCIgeD0iMjI2IiB5PSIyNjkuMjE4OCI+Tm9tIDogU3RyaW5nPC90ZXh0Pjx0ZXh0IGZpbGw9IiMwMDAwMDAiIGZvbnQtZmFtaWx5PSJzYW5zLXNlcmlmIiBmb250LXNpemU9IjE0IiBsZW5ndGhBZGp1c3Q9InNwYWNpbmciIHRleHRMZW5ndGg9IjEwNSIgeD0iMjI2IiB5PSIyODQuMjAzMSI+UHJlbm9tIDogU3RyaW5nPC90ZXh0Pjx0ZXh0IGZpbGw9IiMwMDAwMDAiIGZvbnQtZmFtaWx5PSJzYW5zLXNlcmlmIiBmb250LXNpemU9IjE0IiBsZW5ndGhBZGp1c3Q9InNwYWNpbmciIHRleHRMZW5ndGg9IjE0NyIgeD0iMjI2IiB5PSIyOTkuMTg3NSI+RGF0ZV9OYWlzc2FuY2UgOiBEYXRlPC90ZXh0Pjx0ZXh0IGZpbGw9IiMwMDAwMDAiIGZvbnQtZmFtaWx5PSJzYW5zLXNlcmlmIiBmb250LXNpemU9IjE0IiBsZW5ndGhBZGp1c3Q9InNwYWNpbmciIHRleHRMZW5ndGg9IjE2MSIgeD0iMjI2IiB5PSIzMTQuMTcxOSI+TGlldV9OYWlzc2FuY2UgOiBTdHJpbmc8L3RleHQ+PHRleHQgZmlsbD0iIzAwMDAwMCIgZm9udC1mYW1pbHk9InNhbnMtc2VyaWYiIGZvbnQtc2l6ZT0iMTQiIGxlbmd0aEFkanVzdD0ic3BhY2luZyIgdGV4dExlbmd0aD0iMTEyIiB4PSIyMjYiIHk9IjMyOS4xNTYzIj5BZHJlc3NlIDogU3RyaW5nPC90ZXh0Pjx0ZXh0IGZpbGw9IiMwMDAwMDAiIGZvbnQtZmFtaWx5PSJzYW5zLXNlcmlmIiBmb250LXNpemU9IjE0IiBsZW5ndGhBZGp1c3Q9InNwYWNpbmciIHRleHRMZW5ndGg9Ijk4IiB4PSIyMjYiIHk9IjM0NC4xNDA2Ij5FbWFpbCA6IFN0cmluZzwvdGV4dD48dGV4dCBmaWxsPSIjMDAwMDAwIiBmb250LWZhbWlseT0ic2Fucy1zZXJpZiIgZm9udC1zaXplPSIxNCIgbGVuZ3RoQWRqdXN0PSJzcGFjaW5nIiB0ZXh0TGVuZ3RoPSIxMjYiIHg9IjIyNiIgeT0iMzU5LjEyNSI+VGVsZXBob25lIDogU3RyaW5nPC90ZXh0PjxsaW5lIHN0eWxlPSJzdHJva2U6IzE4MTgxODtzdHJva2Utd2lkdGg6MC41OyIgeDE9IjIwNyIgeDI9IjM5MiIgeTE9IjM2NC44NzUiIHkyPSIzNjQuODc1Ii8+PC9nPjwhLS1jbGFzcyBEZW1hbmRlLS0+PGcgY2xhc3M9ImVudGl0eSIgZGF0YS1lbnRpdHk9IkRlbWFuZGUiIGRhdGEtc291cmNlLWxpbmU9IjEyIiBkYXRhLXVpZD0iZW50MDAwMyIgaWQ9ImVudGl0eV9EZW1hbmRlIj48cmVjdCBmaWxsPSIjRjFGMUYxIiBoZWlnaHQ9IjEzNy45MDYzIiByeD0iMi41IiByeT0iMi41IiBzdHlsZT0ic3Ryb2tlOiMxODE4MTg7c3Ryb2tlLXdpZHRoOjAuNTsiIHdpZHRoPSI0NzQiIHg9IjYyLjUiIHk9IjQ0OCIvPjxlbGxpcHNlIGN4PSIyNzAuNzUiIGN5PSI0NjQiIGZpbGw9IiNBREQxQjIiIHJ4PSIxMSIgcnk9IjExIiBzdHlsZT0ic3Ryb2tlOiMxODE4MTg7c3Ryb2tlLXdpZHRoOjE7Ii8+PHBhdGggZD0iTTI3NC4zNzUsNDcwIEwyNzQuMzc1LDQ2OC4yNSBMMjY5LjA2MjUsNDY4LjI1IFEyNjkuMDYyNSw0NjguMjUgMjY5LjA2MjUsNDY0LjY4NzUgTDI3My4zMTI1LDQ2NC42ODc1IEwyNzMuMzEyNSw0NjIuOTM3NSBMMjY5LjA2MjUsNDYyLjkzNzUgTDI2OS4wNjI1LDQ2MC40Mzc1IEwyNzQuMzc1LDQ2MC40Mzc1IEwyNzQuMzc1LDQ1OC42ODc1IEwyNjcuMzEyNSw0NTguNjg3NSBRMjY3LjMxMjUsNDU4LjY4NzUgMjY3LjMxMjUsNDcwIEwyNzQuMzc1LDQ3MCBaICIgZmlsbD0iIzAwMDAwMCIvPjx0ZXh0IGZpbGw9IiMwMDAwMDAiIGZvbnQtZmFtaWx5PSJzYW5zLXNlcmlmIiBmb250LXNpemU9IjE0IiBsZW5ndGhBZGp1c3Q9InNwYWNpbmciIHRleHRMZW5ndGg9IjQ5IiB4PSIyOTEuMjUiIHk9IjQ2OS43NDIyIj5EZW1hbmRlPC90ZXh0PjxsaW5lIHN0eWxlPSJzdHJva2U6IzE4MTgxODtzdHJva2Utd2lkdGg6MC41OyIgeDE9IjYzLjUiIHgyPSI1MzUuNSIgeTE9IjQ4MCIgeTI9IjQ4MCIvPjxlbGxpcHNlIGN4PSI3My41IiBjeT0iNDkyLjk5MjIiIGZpbGw9Im5vbmUiIHJ4PSIzIiByeT0iMyIgc3R5bGU9InN0cm9rZTojMDM4MDQ4O3N0cm9rZS13aWR0aDoxOyIvPjx0ZXh0IGZpbGw9IiMwMDAwMDAiIGZvbnQtZmFtaWx5PSJzYW5zLXNlcmlmIiBmb250LXNpemU9IjE0IiBsZW5ndGhBZGp1c3Q9InNwYWNpbmciIHRleHRMZW5ndGg9IjExOSIgeD0iODIuNSIgeT0iNDk3LjIzNDQiPklEX0RlbWFuZGUgOiBVVUlEPC90ZXh0Pjx0ZXh0IGZpbGw9IiMwMDAwMDAiIGZvbnQtZmFtaWx5PSJzYW5zLXNlcmlmIiBmb250LXNpemU9IjE0IiBsZW5ndGhBZGp1c3Q9InNwYWNpbmciIHRleHRMZW5ndGg9IjExOSIgeD0iODIuNSIgeT0iNTEyLjIxODgiPklEX0NpdG95ZW4gOiBVVUlEPC90ZXh0Pjx0ZXh0IGZpbGw9IiMwMDAwMDAiIGZvbnQtZmFtaWx5PSJzYW5zLXNlcmlmIiBmb250LXNpemU9IjE0IiBsZW5ndGhBZGp1c3Q9InNwYWNpbmciIHRleHRMZW5ndGg9IjMwOCIgeD0iODIuNSIgeT0iNTI3LjIwMzEiPlR5cGVfQWN0ZSA6IEVudW0gW05haXNzYW5jZSwgTWFyaWFnZSwgRCYjMjMzO2MmIzIzMjtzXTwvdGV4dD48dGV4dCBmaWxsPSIjMDAwMDAwIiBmb250LWZhbWlseT0ic2Fucy1zZXJpZiIgZm9udC1zaXplPSIxNCIgbGVuZ3RoQWRqdXN0PSJzcGFjaW5nIiB0ZXh0TGVuZ3RoPSI0NDgiIHg9IjgyLjUiIHk9IjU0Mi4xODc1Ij5TdGF0dXQgOiBFbnVtIFtTb3VtaXNlLCBFbiB0cmFpdGVtZW50LCBWYWxpZCYjMjMzO2UsIFJlZnVzJiMyMzM7ZSwgTGl2ciYjMjMzO2VdPC90ZXh0Pjx0ZXh0IGZpbGw9IiMwMDAwMDAiIGZvbnQtZmFtaWx5PSJzYW5zLXNlcmlmIiBmb250LXNpemU9IjE0IiBsZW5ndGhBZGp1c3Q9InNwYWNpbmciIHRleHRMZW5ndGg9IjE2MSIgeD0iODIuNSIgeT0iNTU3LjE3MTkiPkRhdGVfRGVtYW5kZSA6IERhdGVUaW1lPC90ZXh0Pjx0ZXh0IGZpbGw9IiMwMDAwMDAiIGZvbnQtZmFtaWx5PSJzYW5zLXNlcmlmIiBmb250LXNpemU9IjE0IiBsZW5ndGhBZGp1c3Q9InNwYWNpbmciIHRleHRMZW5ndGg9IjEyNiIgeD0iODIuNSIgeT0iNTcyLjE1NjMiPklEX1BhaWVtZW50IDogVVVJRDwvdGV4dD48bGluZSBzdHlsZT0ic3Ryb2tlOiMxODE4MTg7c3Ryb2tlLXdpZHRoOjAuNTsiIHgxPSI2My41IiB4Mj0iNTM1LjUiIHkxPSI1NzcuOTA2MyIgeTI9IjU3Ny45MDYzIi8+PC9nPjwhLS1jbGFzcyBEb2N1bWVudF9BY3RlLS0+PGcgY2xhc3M9ImVudGl0eSIgZGF0YS1lbnRpdHk9IkRvY3VtZW50X0FjdGUiIGRhdGEtc291cmNlLWxpbmU9IjIxIiBkYXRhLXVpZD0iZW50MDAwNCIgaWQ9ImVudGl0eV9Eb2N1bWVudF9BY3RlIj48cmVjdCBmaWxsPSIjRjFGMUYxIiBoZWlnaHQ9IjE1Mi44OTA2IiByeD0iMi41IiByeT0iMi41IiBzdHlsZT0ic3Ryb2tlOiMxODE4MTg7c3Ryb2tlLXdpZHRoOjAuNTsiIHdpZHRoPSIyMjIiIHg9IjQ5NS41IiB5PSI2NjEiLz48ZWxsaXBzZSBjeD0iNTU2Ljc1IiBjeT0iNjc3IiBmaWxsPSIjQUREMUIyIiByeD0iMTEiIHJ5PSIxMSIgc3R5bGU9InN0cm9rZTojMTgxODE4O3N0cm9rZS13aWR0aDoxOyIvPjxwYXRoIGQ9Ik01NjAuMzc1LDY4MyBMNTYwLjM3NSw2ODEuMjUgTDU1NS4wNjI1LDY4MS4yNSBRNTU1LjA2MjUsNjgxLjI1IDU1NS4wNjI1LDY3Ny42ODc1IEw1NTkuMzEyNSw2NzcuNjg3NSBMNTU5LjMxMjUsNjc1LjkzNzUgTDU1NS4wNjI1LDY3NS45Mzc1IEw1NTUuMDYyNSw2NzMuNDM3NSBMNTYwLjM3NSw2NzMuNDM3NSBMNTYwLjM3NSw2NzEuNjg3NSBMNTUzLjMxMjUsNjcxLjY4NzUgUTU1My4zMTI1LDY3MS42ODc1IDU1My4zMTI1LDY4MyBMNTYwLjM3NSw2ODMgWiAiIGZpbGw9IiMwMDAwMDAiLz48dGV4dCBmaWxsPSIjMDAwMDAwIiBmb250LWZhbWlseT0ic2Fucy1zZXJpZiIgZm9udC1zaXplPSIxNCIgbGVuZ3RoQWRqdXN0PSJzcGFjaW5nIiB0ZXh0TGVuZ3RoPSI5MSIgeD0iNTc3LjI1IiB5PSI2ODIuNzQyMiI+RG9jdW1lbnRfQWN0ZTwvdGV4dD48bGluZSBzdHlsZT0ic3Ryb2tlOiMxODE4MTg7c3Ryb2tlLXdpZHRoOjAuNTsiIHgxPSI0OTYuNSIgeDI9IjcxNi41IiB5MT0iNjkzIiB5Mj0iNjkzIi8+PGVsbGlwc2UgY3g9IjUwNi41IiBjeT0iNzA1Ljk5MjIiIGZpbGw9Im5vbmUiIHJ4PSIzIiByeT0iMyIgc3R5bGU9InN0cm9rZTojMDM4MDQ4O3N0cm9rZS13aWR0aDoxOyIvPjx0ZXh0IGZpbGw9IiMwMDAwMDAiIGZvbnQtZmFtaWx5PSJzYW5zLXNlcmlmIiBmb250LXNpemU9IjE0IiBsZW5ndGhBZGp1c3Q9InNwYWNpbmciIHRleHRMZW5ndGg9Ijk4IiB4PSI1MTUuNSIgeT0iNzEwLjIzNDQiPklEX0FjdGUgOiBVVUlEPC90ZXh0Pjx0ZXh0IGZpbGw9IiMwMDAwMDAiIGZvbnQtZmFtaWx5PSJzYW5zLXNlcmlmIiBmb250LXNpemU9IjE0IiBsZW5ndGhBZGp1c3Q9InNwYWNpbmciIHRleHRMZW5ndGg9IjExOSIgeD0iNTE1LjUiIHk9IjcyNS4yMTg4Ij5JRF9EZW1hbmRlIDogVVVJRDwvdGV4dD48dGV4dCBmaWxsPSIjMDAwMDAwIiBmb250LWZhbWlseT0ic2Fucy1zZXJpZiIgZm9udC1zaXplPSIxNCIgbGVuZ3RoQWRqdXN0PSJzcGFjaW5nIiB0ZXh0TGVuZ3RoPSIxODIiIHg9IjUxNS41IiB5PSI3NDAuMjAzMSI+RGF0ZV9EZWxpdnJhbmNlIDogRGF0ZVRpbWU8L3RleHQ+PHRleHQgZmlsbD0iIzAwMDAwMCIgZm9udC1mYW1pbHk9InNhbnMtc2VyaWYiIGZvbnQtc2l6ZT0iMTQiIGxlbmd0aEFkanVzdD0ic3BhY2luZyIgdGV4dExlbmd0aD0iMTI2IiB4PSI1MTUuNSIgeT0iNzU1LjE4NzUiPkZpY2hpZXJfUERGIDogTGllbjwvdGV4dD48dGV4dCBmaWxsPSIjMDAwMDAwIiBmb250LWZhbWlseT0ic2Fucy1zZXJpZiIgZm9udC1zaXplPSIxNCIgbGVuZ3RoQWRqdXN0PSJzcGFjaW5nIiB0ZXh0TGVuZ3RoPSIxOTYiIHg9IjUxNS41IiB5PSI3NzAuMTcxOSI+U2lnbmF0dXJlX051bWVyaXF1ZSA6IFN0cmluZzwvdGV4dD48dGV4dCBmaWxsPSIjMDAwMDAwIiBmb250LWZhbWlseT0ic2Fucy1zZXJpZiIgZm9udC1zaXplPSIxNCIgbGVuZ3RoQWRqdXN0PSJzcGFjaW5nIiB0ZXh0TGVuZ3RoPSIxNDciIHg9IjUxNS41IiB5PSI3ODUuMTU2MyI+RXN0X0FyY2hpdmUgOiBCb29sZWFuPC90ZXh0Pjx0ZXh0IGZpbGw9IiMwMDAwMDAiIGZvbnQtZmFtaWx5PSJzYW5zLXNlcmlmIiBmb250LXNpemU9IjE0IiBsZW5ndGhBZGp1c3Q9InNwYWNpbmciIHRleHRMZW5ndGg9IjE3NSIgeD0iNTE1LjUiIHk9IjgwMC4xNDA2Ij5EYXRlX0FyY2hpdmFnZSA6IERhdGVUaW1lPC90ZXh0PjxsaW5lIHN0eWxlPSJzdHJva2U6IzE4MTgxODtzdHJva2Utd2lkdGg6MC41OyIgeDE9IjQ5Ni41IiB4Mj0iNzE2LjUiIHkxPSI4MDUuODkwNiIgeTI9IjgwNS44OTA2Ii8+PC9nPjwhLS1jbGFzcyBQYWllbWVudC0tPjxnIGNsYXNzPSJlbnRpdHkiIGRhdGEtZW50aXR5PSJQYWllbWVudCIgZGF0YS1zb3VyY2UtbGluZT0iMzEiIGRhdGEtdWlkPSJlbnQwMDA1IiBpZD0iZW50aXR5X1BhaWVtZW50Ij48cmVjdCBmaWxsPSIjRjFGMUYxIiBoZWlnaHQ9IjEyMi45MjE5IiByeD0iMi41IiByeT0iMi41IiBzdHlsZT0ic3Ryb2tlOiMxODE4MTg7c3Ryb2tlLXdpZHRoOjAuNTsiIHdpZHRoPSI0NTMiIHg9IjciIHk9IjY3NiIvPjxlbGxpcHNlIGN4PSIyMDEuMjUiIGN5PSI2OTIiIGZpbGw9IiNBREQxQjIiIHJ4PSIxMSIgcnk9IjExIiBzdHlsZT0ic3Ryb2tlOiMxODE4MTg7c3Ryb2tlLXdpZHRoOjE7Ii8+PHBhdGggZD0iTTIwNC44NzUsNjk4IEwyMDQuODc1LDY5Ni4yNSBMMTk5LjU2MjUsNjk2LjI1IFExOTkuNTYyNSw2OTYuMjUgMTk5LjU2MjUsNjkyLjY4NzUgTDIwMy44MTI1LDY5Mi42ODc1IEwyMDMuODEyNSw2OTAuOTM3NSBMMTk5LjU2MjUsNjkwLjkzNzUgTDE5OS41NjI1LDY4OC40Mzc1IEwyMDQuODc1LDY4OC40Mzc1IEwyMDQuODc1LDY4Ni42ODc1IEwxOTcuODEyNSw2ODYuNjg3NSBRMTk3LjgxMjUsNjg2LjY4NzUgMTk3LjgxMjUsNjk4IEwyMDQuODc1LDY5OCBaICIgZmlsbD0iIzAwMDAwMCIvPjx0ZXh0IGZpbGw9IiMwMDAwMDAiIGZvbnQtZmFtaWx5PSJzYW5zLXNlcmlmIiBmb250LXNpemU9IjE0IiBsZW5ndGhBZGp1c3Q9InNwYWNpbmciIHRleHRMZW5ndGg9IjU2IiB4PSIyMjEuNzUiIHk9IjY5Ny43NDIyIj5QYWllbWVudDwvdGV4dD48bGluZSBzdHlsZT0ic3Ryb2tlOiMxODE4MTg7c3Ryb2tlLXdpZHRoOjAuNTsiIHgxPSI4IiB4Mj0iNDU5IiB5MT0iNzA4IiB5Mj0iNzA4Ii8+PGVsbGlwc2UgY3g9IjE4IiBjeT0iNzIwLjk5MjIiIGZpbGw9Im5vbmUiIHJ4PSIzIiByeT0iMyIgc3R5bGU9InN0cm9rZTojMDM4MDQ4O3N0cm9rZS13aWR0aDoxOyIvPjx0ZXh0IGZpbGw9IiMwMDAwMDAiIGZvbnQtZmFtaWx5PSJzYW5zLXNlcmlmIiBmb250LXNpemU9IjE0IiBsZW5ndGhBZGp1c3Q9InNwYWNpbmciIHRleHRMZW5ndGg9IjEyNiIgeD0iMjciIHk9IjcyNS4yMzQ0Ij5JRF9QYWllbWVudCA6IFVVSUQ8L3RleHQ+PHRleHQgZmlsbD0iIzAwMDAwMCIgZm9udC1mYW1pbHk9InNhbnMtc2VyaWYiIGZvbnQtc2l6ZT0iMTQiIGxlbmd0aEFkanVzdD0ic3BhY2luZyIgdGV4dExlbmd0aD0iMTE5IiB4PSIyNyIgeT0iNzQwLjIxODgiPk1vbnRhbnQgOiBEZWNpbWFsPC90ZXh0Pjx0ZXh0IGZpbGw9IiMwMDAwMDAiIGZvbnQtZmFtaWx5PSJzYW5zLXNlcmlmIiBmb250LXNpemU9IjE0IiBsZW5ndGhBZGp1c3Q9InNwYWNpbmciIHRleHRMZW5ndGg9IjQyNyIgeD0iMjciIHk9Ijc1NS4yMDMxIj5Nb2RlX1BhaWVtZW50IDogRW51bSBbTW9iaWxlX01vbmV5LCBDYXJ0ZV9CYW5jYWlyZSwgVmlyZW1lbnRdPC90ZXh0Pjx0ZXh0IGZpbGw9IiMwMDAwMDAiIGZvbnQtZmFtaWx5PSJzYW5zLXNlcmlmIiBmb250LXNpemU9IjE0IiBsZW5ndGhBZGp1c3Q9InNwYWNpbmciIHRleHRMZW5ndGg9IjE2OCIgeD0iMjciIHk9Ijc3MC4xODc1Ij5EYXRlX1BhaWVtZW50IDogRGF0ZVRpbWU8L3RleHQ+PHRleHQgZmlsbD0iIzAwMDAwMCIgZm9udC1mYW1pbHk9InNhbnMtc2VyaWYiIGZvbnQtc2l6ZT0iMTQiIGxlbmd0aEFkanVzdD0ic3BhY2luZyIgdGV4dExlbmd0aD0iMTYxIiB4PSIyNyIgeT0iNzg1LjE3MTkiPlRyYW5zYWN0aW9uX0lEIDogU3RyaW5nPC90ZXh0PjxsaW5lIHN0eWxlPSJzdHJva2U6IzE4MTgxODtzdHJva2Utd2lkdGg6MC41OyIgeDE9IjgiIHgyPSI0NTkiIHkxPSI3OTAuOTIxOSIgeTI9Ijc5MC45MjE5Ii8+PC9nPjwhLS1jbGFzcyBBZ2VudC0tPjxnIGNsYXNzPSJlbnRpdHkiIGRhdGEtZW50aXR5PSJBZ2VudCIgZGF0YS1zb3VyY2UtbGluZT0iMzkiIGRhdGEtdWlkPSJlbnQwMDA2IiBpZD0iZW50aXR5X0FnZW50Ij48cmVjdCBmaWxsPSIjRjFGMUYxIiBoZWlnaHQ9IjEyMi45MjE5IiByeD0iMi41IiByeT0iMi41IiBzdHlsZT0ic3Ryb2tlOiMxODE4MTg7c3Ryb2tlLXdpZHRoOjAuNTsiIHdpZHRoPSIyNzEiIHg9IjQ0OCIgeT0iNyIvPjxlbGxpcHNlIGN4PSI1NjEuNzUiIGN5PSIyMyIgZmlsbD0iI0FERDFCMiIgcng9IjExIiByeT0iMTEiIHN0eWxlPSJzdHJva2U6IzE4MTgxODtzdHJva2Utd2lkdGg6MTsiLz48cGF0aCBkPSJNNTY1LjM3NSwyOSBMNTY1LjM3NSwyNy4yNSBMNTYwLjA2MjUsMjcuMjUgUTU2MC4wNjI1LDI3LjI1IDU2MC4wNjI1LDIzLjY4NzUgTDU2NC4zMTI1LDIzLjY4NzUgTDU2NC4zMTI1LDIxLjkzNzUgTDU2MC4wNjI1LDIxLjkzNzUgTDU2MC4wNjI1LDE5LjQzNzUgTDU2NS4zNzUsMTkuNDM3NSBMNTY1LjM3NSwxNy42ODc1IEw1NTguMzEyNSwxNy42ODc1IFE1NTguMzEyNSwxNy42ODc1IDU1OC4zMTI1LDI5IEw1NjUuMzc1LDI5IFogIiBmaWxsPSIjMDAwMDAwIi8+PHRleHQgZmlsbD0iIzAwMDAwMCIgZm9udC1mYW1pbHk9InNhbnMtc2VyaWYiIGZvbnQtc2l6ZT0iMTQiIGxlbmd0aEFkanVzdD0ic3BhY2luZyIgdGV4dExlbmd0aD0iMzUiIHg9IjU4Mi4yNSIgeT0iMjguNzQyMiI+QWdlbnQ8L3RleHQ+PGxpbmUgc3R5bGU9InN0cm9rZTojMTgxODE4O3N0cm9rZS13aWR0aDowLjU7IiB4MT0iNDQ5IiB4Mj0iNzE4IiB5MT0iMzkiIHkyPSIzOSIvPjxlbGxpcHNlIGN4PSI0NTkiIGN5PSI1MS45OTIyIiBmaWxsPSJub25lIiByeD0iMyIgcnk9IjMiIHN0eWxlPSJzdHJva2U6IzAzODA0ODtzdHJva2Utd2lkdGg6MTsiLz48dGV4dCBmaWxsPSIjMDAwMDAwIiBmb250LWZhbWlseT0ic2Fucy1zZXJpZiIgZm9udC1zaXplPSIxNCIgbGVuZ3RoQWRqdXN0PSJzcGFjaW5nIiB0ZXh0TGVuZ3RoPSIxMDUiIHg9IjQ2OCIgeT0iNTYuMjM0NCI+SURfQWdlbnQgOiBVVUlEPC90ZXh0Pjx0ZXh0IGZpbGw9IiMwMDAwMDAiIGZvbnQtZmFtaWx5PSJzYW5zLXNlcmlmIiBmb250LXNpemU9IjE0IiBsZW5ndGhBZGp1c3Q9InNwYWNpbmciIHRleHRMZW5ndGg9Ijg0IiB4PSI0NjgiIHk9IjcxLjIxODgiPk5vbSA6IFN0cmluZzwvdGV4dD48dGV4dCBmaWxsPSIjMDAwMDAwIiBmb250LWZhbWlseT0ic2Fucy1zZXJpZiIgZm9udC1zaXplPSIxNCIgbGVuZ3RoQWRqdXN0PSJzcGFjaW5nIiB0ZXh0TGVuZ3RoPSIxMDUiIHg9IjQ2OCIgeT0iODYuMjAzMSI+UHJlbm9tIDogU3RyaW5nPC90ZXh0Pjx0ZXh0IGZpbGw9IiMwMDAwMDAiIGZvbnQtZmFtaWx5PSJzYW5zLXNlcmlmIiBmb250LXNpemU9IjE0IiBsZW5ndGhBZGp1c3Q9InNwYWNpbmciIHRleHRMZW5ndGg9Ijk4IiB4PSI0NjgiIHk9IjEwMS4xODc1Ij5FbWFpbCA6IFN0cmluZzwvdGV4dD48dGV4dCBmaWxsPSIjMDAwMDAwIiBmb250LWZhbWlseT0ic2Fucy1zZXJpZiIgZm9udC1zaXplPSIxNCIgbGVuZ3RoQWRqdXN0PSJzcGFjaW5nIiB0ZXh0TGVuZ3RoPSIyNDUiIHg9IjQ2OCIgeT0iMTE2LjE3MTkiPlJvbGUgOiBFbnVtIFtBZ2VudCwgQWRtaW5pc3RyYXRldXJdPC90ZXh0PjxsaW5lIHN0eWxlPSJzdHJva2U6IzE4MTgxODtzdHJva2Utd2lkdGg6MC41OyIgeDE9IjQ0OSIgeDI9IjcxOCIgeTE9IjEyMS45MjE5IiB5Mj0iMTIxLjkyMTkiLz48L2c+PCEtLWNsYXNzIEhpc3RvcmlxdWVfTW9kaWZpY2F0aW9ucy0tPjxnIGNsYXNzPSJlbnRpdHkiIGRhdGEtZW50aXR5PSJIaXN0b3JpcXVlX01vZGlmaWNhdGlvbnMiIGRhdGEtc291cmNlLWxpbmU9IjQ3IiBkYXRhLXVpZD0iZW50MDAwNyIgaWQ9ImVudGl0eV9IaXN0b3JpcXVlX01vZGlmaWNhdGlvbnMiPjxyZWN0IGZpbGw9IiNGMUYxRjEiIGhlaWdodD0iMTY3Ljg3NSIgcng9IjIuNSIgcnk9IjIuNSIgc3R5bGU9InN0cm9rZTojMTgxODE4O3N0cm9rZS13aWR0aDowLjU7IiB3aWR0aD0iMjY0IiB4PSI0NTEuNSIgeT0iMjA1Ii8+PGVsbGlwc2UgY3g9IjQ5NS4zIiBjeT0iMjIxIiBmaWxsPSIjQUREMUIyIiByeD0iMTEiIHJ5PSIxMSIgc3R5bGU9InN0cm9rZTojMTgxODE4O3N0cm9rZS13aWR0aDoxOyIvPjxwYXRoIGQ9Ik00OTguOTI1LDIyNyBMNDk4LjkyNSwyMjUuMjUgTDQ5My42MTI1LDIyNS4yNSBRNDkzLjYxMjUsMjI1LjI1IDQ5My42MTI1LDIyMS42ODc1IEw0OTcuODYyNSwyMjEuNjg3NSBMNDk3Ljg2MjUsMjE5LjkzNzUgTDQ5My42MTI1LDIxOS45Mzc1IEw0OTMuNjEyNSwyMTcuNDM3NSBMNDk4LjkyNSwyMTcuNDM3NSBMNDk4LjkyNSwyMTUuNjg3NSBMNDkxLjg2MjUsMjE1LjY4NzUgUTQ5MS44NjI1LDIxNS42ODc1IDQ5MS44NjI1LDIyNyBMNDk4LjkyNSwyMjcgWiAiIGZpbGw9IiMwMDAwMDAiLz48dGV4dCBmaWxsPSIjMDAwMDAwIiBmb250LWZhbWlseT0ic2Fucy1zZXJpZiIgZm9udC1zaXplPSIxNCIgbGVuZ3RoQWRqdXN0PSJzcGFjaW5nIiB0ZXh0TGVuZ3RoPSIxNjgiIHg9IjUxNS43IiB5PSIyMjYuNzQyMiI+SGlzdG9yaXF1ZV9Nb2RpZmljYXRpb25zPC90ZXh0PjxsaW5lIHN0eWxlPSJzdHJva2U6IzE4MTgxODtzdHJva2Utd2lkdGg6MC41OyIgeDE9IjQ1Mi41IiB4Mj0iNzE0LjUiIHkxPSIyMzciIHkyPSIyMzciLz48ZWxsaXBzZSBjeD0iNDYyLjUiIGN5PSIyNDkuOTkyMiIgZmlsbD0ibm9uZSIgcng9IjMiIHJ5PSIzIiBzdHlsZT0ic3Ryb2tlOiMwMzgwNDg7c3Ryb2tlLXdpZHRoOjE7Ii8+PHRleHQgZmlsbD0iIzAwMDAwMCIgZm9udC1mYW1pbHk9InNhbnMtc2VyaWYiIGZvbnQtc2l6ZT0iMTQiIGxlbmd0aEFkanVzdD0ic3BhY2luZyIgdGV4dExlbmd0aD0iMTQwIiB4PSI0NzEuNSIgeT0iMjU0LjIzNDQiPklEX0hpc3RvcmlxdWUgOiBVVUlEPC90ZXh0Pjx0ZXh0IGZpbGw9IiMwMDAwMDAiIGZvbnQtZmFtaWx5PSJzYW5zLXNlcmlmIiBmb250LXNpemU9IjE0IiBsZW5ndGhBZGp1c3Q9InNwYWNpbmciIHRleHRMZW5ndGg9IjIzOCIgeD0iNDcxLjUiIHk9IjI2OS4yMTg4Ij5UeXBlX0VudGl0ZSA6IEVudW0gW0RlbWFuZGUsIEFjdGVdPC90ZXh0Pjx0ZXh0IGZpbGw9IiMwMDAwMDAiIGZvbnQtZmFtaWx5PSJzYW5zLXNlcmlmIiBmb250LXNpemU9IjE0IiBsZW5ndGhBZGp1c3Q9InNwYWNpbmciIHRleHRMZW5ndGg9IjExMiIgeD0iNDcxLjUiIHk9IjI4NC4yMDMxIj5JRF9FbnRpdGUgOiBVVUlEPC90ZXh0Pjx0ZXh0IGZpbGw9IiMwMDAwMDAiIGZvbnQtZmFtaWx5PSJzYW5zLXNlcmlmIiBmb250LXNpemU9IjE0IiBsZW5ndGhBZGp1c3Q9InNwYWNpbmciIHRleHRMZW5ndGg9IjEwNSIgeD0iNDcxLjUiIHk9IjI5OS4xODc1Ij5JRF9BZ2VudCA6IFVVSUQ8L3RleHQ+PHRleHQgZmlsbD0iIzAwMDAwMCIgZm9udC1mYW1pbHk9InNhbnMtc2VyaWYiIGZvbnQtc2l6ZT0iMTQiIGxlbmd0aEFkanVzdD0ic3BhY2luZyIgdGV4dExlbmd0aD0iMTA1IiB4PSI0NzEuNSIgeT0iMzE0LjE3MTkiPkFjdGlvbiA6IFN0cmluZzwvdGV4dD48dGV4dCBmaWxsPSIjMDAwMDAwIiBmb250LWZhbWlseT0ic2Fucy1zZXJpZiIgZm9udC1zaXplPSIxNCIgbGVuZ3RoQWRqdXN0PSJzcGFjaW5nIiB0ZXh0TGVuZ3RoPSIxOTYiIHg9IjQ3MS41IiB5PSIzMjkuMTU2MyI+RGF0ZV9Nb2RpZmljYXRpb24gOiBEYXRlVGltZTwvdGV4dD48dGV4dCBmaWxsPSIjMDAwMDAwIiBmb250LWZhbWlseT0ic2Fucy1zZXJpZiIgZm9udC1zaXplPSIxNCIgbGVuZ3RoQWRqdXN0PSJzcGFjaW5nIiB0ZXh0TGVuZ3RoPSIxNTQiIHg9IjQ3MS41IiB5PSIzNDQuMTQwNiI+QW5jaWVubmVfVmFsZXVyIDogVGV4dDwvdGV4dD48dGV4dCBmaWxsPSIjMDAwMDAwIiBmb250LWZhbWlseT0ic2Fucy1zZXJpZiIgZm9udC1zaXplPSIxNCIgbGVuZ3RoQWRqdXN0PSJzcGFjaW5nIiB0ZXh0TGVuZ3RoPSIxNTQiIHg9IjQ3MS41IiB5PSIzNTkuMTI1Ij5Ob3V2ZWxsZV9WYWxldXIgOiBUZXh0PC90ZXh0PjxsaW5lIHN0eWxlPSJzdHJva2U6IzE4MTgxODtzdHJva2Utd2lkdGg6MC41OyIgeDE9IjQ1Mi41IiB4Mj0iNzE0LjUiIHkxPSIzNjQuODc1IiB5Mj0iMzY0Ljg3NSIvPjwvZz48IS0tbGluayBDaXRveWVuIHRvIERlbWFuZGUtLT48ZyBjbGFzcz0ibGluayIgZGF0YS1lbnRpdHktMT0iQ2l0b3llbiIgZGF0YS1lbnRpdHktMj0iRGVtYW5kZSIgZGF0YS1zb3VyY2UtbGluZT0iNTciIGRhdGEtdWlkPSJsbms4IiBpZD0ibGlua19DaXRveWVuX0RlbWFuZGUiPjxwYXRoIGNvZGVMaW5lPSI1NyIgZD0iTTI5OS41LDM3My4xOSBDMjk5LjUsMzk3LjczIDI5OS41LDQyNC4zIDI5OS41LDQ0Ny43OCIgZmlsbD0ibm9uZSIgaWQ9IkNpdG95ZW4tRGVtYW5kZSIgc3R5bGU9InN0cm9rZTojMTgxODE4O3N0cm9rZS13aWR0aDoxOyIvPjx0ZXh0IGZpbGw9IiMwMDAwMDAiIGZvbnQtZmFtaWx5PSJzYW5zLXNlcmlmIiBmb250LXNpemU9IjEzIiBsZW5ndGhBZGp1c3Q9InNwYWNpbmciIHRleHRMZW5ndGg9IjI2IiB4PSIzMDAuNSIgeT0iNDE2LjI4OTEiPmZhaXQ8L3RleHQ+PHRleHQgZmlsbD0iIzAwMDAwMCIgZm9udC1mYW1pbHk9InNhbnMtc2VyaWYiIGZvbnQtc2l6ZT0iMTMiIGxlbmd0aEFkanVzdD0ic3BhY2luZyIgdGV4dExlbmd0aD0iNi41IiB4PSIyOTMuMjcyMyIgeT0iMzkzLjAzMjQiPjE8L3RleHQ+PHRleHQgZmlsbD0iIzAwMDAwMCIgZm9udC1mYW1pbHk9InNhbnMtc2VyaWYiIGZvbnQtc2l6ZT0iMTMiIGxlbmd0aEFkanVzdD0ic3BhY2luZyIgdGV4dExlbmd0aD0iMjYiIHg9IjI3MS45OTY5IiB5PSI0MzguMzcyMiI+MC4uKjwvdGV4dD48L2c+PCEtLWxpbmsgRGVtYW5kZSB0byBEb2N1bWVudF9BY3RlLS0+PGcgY2xhc3M9ImxpbmsiIGRhdGEtZW50aXR5LTE9IkRlbWFuZGUiIGRhdGEtZW50aXR5LTI9IkRvY3VtZW50X0FjdGUiIGRhdGEtc291cmNlLWxpbmU9IjU4IiBkYXRhLXVpZD0ibG5rOSIgaWQ9ImxpbmtfRGVtYW5kZV9Eb2N1bWVudF9BY3RlIj48cGF0aCBjb2RlTGluZT0iNTgiIGQ9Ik0zOTUuMzcsNTg2LjI0IEM0MjguNzEsNjA5Ljk2IDQ2Ni4yOSw2MzYuNzEgNTAwLjQxLDY2MC45OSIgZmlsbD0ibm9uZSIgaWQ9IkRlbWFuZGUtRG9jdW1lbnRfQWN0ZSIgc3R5bGU9InN0cm9rZTojMTgxODE4O3N0cm9rZS13aWR0aDoxOyIvPjx0ZXh0IGZpbGw9IiMwMDAwMDAiIGZvbnQtZmFtaWx5PSJzYW5zLXNlcmlmIiBmb250LXNpemU9IjEzIiBsZW5ndGhBZGp1c3Q9InNwYWNpbmciIHRleHRMZW5ndGg9IjQ1LjUiIHg9IjQ1NC41IiB5PSI2MjkuMjg5MSI+cHJvZHVpdDwvdGV4dD48dGV4dCBmaWxsPSIjMDAwMDAwIiBmb250LWZhbWlseT0ic2Fucy1zZXJpZiIgZm9udC1zaXplPSIxMyIgbGVuZ3RoQWRqdXN0PSJzcGFjaW5nIiB0ZXh0TGVuZ3RoPSI2LjUiIHg9IjM5OC45NzMiIHk9IjYwNi4zOTE3Ij4xPC90ZXh0Pjx0ZXh0IGZpbGw9IiMwMDAwMDAiIGZvbnQtZmFtaWx5PSJzYW5zLXNlcmlmIiBmb250LXNpemU9IjEzIiBsZW5ndGhBZGp1c3Q9InNwYWNpbmciIHRleHRMZW5ndGg9IjYuNSIgeD0iNDgyLjUwNTYiIHk9IjY1MS4yNTU4Ij4xPC90ZXh0PjwvZz48IS0tbGluayBEZW1hbmRlIHRvIFBhaWVtZW50LS0+PGcgY2xhc3M9ImxpbmsiIGRhdGEtZW50aXR5LTE9IkRlbWFuZGUiIGRhdGEtZW50aXR5LTI9IlBhaWVtZW50IiBkYXRhLXNvdXJjZS1saW5lPSI1OSIgZGF0YS11aWQ9ImxuazEwIiBpZD0ibGlua19EZW1hbmRlX1BhaWVtZW50Ij48cGF0aCBjb2RlTGluZT0iNTkiIGQ9Ik0yNzguODksNTg2LjI0IEMyNzAuMjMsNjE0LjkxIDI2MC4yMyw2NDcuOTkgMjUxLjgzLDY3NS44MSIgZmlsbD0ibm9uZSIgaWQ9IkRlbWFuZGUtUGFpZW1lbnQiIHN0eWxlPSJzdHJva2U6IzE4MTgxODtzdHJva2Utd2lkdGg6MTsiLz48dGV4dCBmaWxsPSIjMDAwMDAwIiBmb250LWZhbWlseT0ic2Fucy1zZXJpZiIgZm9udC1zaXplPSIxMyIgbGVuZ3RoQWRqdXN0PSJzcGFjaW5nIiB0ZXh0TGVuZ3RoPSI1MiIgeD0iMjY5LjUiIHk9IjYyOS4yODkxIj5wYXkmIzIzMztfcGFyPC90ZXh0Pjx0ZXh0IGZpbGw9IiMwMDAwMDAiIGZvbnQtZmFtaWx5PSJzYW5zLXNlcmlmIiBmb250LXNpemU9IjEzIiBsZW5ndGhBZGp1c3Q9InNwYWNpbmciIHRleHRMZW5ndGg9IjYuNSIgeD0iMjcwLjQ4MSIgeT0iNjA2LjM5MTciPjE8L3RleHQ+PHRleHQgZmlsbD0iIzAwMDAwMCIgZm9udC1mYW1pbHk9InNhbnMtc2VyaWYiIGZvbnQtc2l6ZT0iMTMiIGxlbmd0aEFkanVzdD0ic3BhY2luZyIgdGV4dExlbmd0aD0iNi41IiB4PSIyNDcuODI2MiIgeT0iNjY2LjQyNTgiPjE8L3RleHQ+PC9nPjwhLS1saW5rIEFnZW50IHRvIEhpc3RvcmlxdWVfTW9kaWZpY2F0aW9ucy0tPjxnIGNsYXNzPSJsaW5rIiBkYXRhLWVudGl0eS0xPSJBZ2VudCIgZGF0YS1lbnRpdHktMj0iSGlzdG9yaXF1ZV9Nb2RpZmljYXRpb25zIiBkYXRhLXNvdXJjZS1saW5lPSI2MCIgZGF0YS11aWQ9ImxuazExIiBpZD0ibGlua19BZ2VudF9IaXN0b3JpcXVlX01vZGlmaWNhdGlvbnMiPjxwYXRoIGNvZGVMaW5lPSI2MCIgZD0iTTU4My41LDEzMC4wNyBDNTgzLjUsMTUzLjE5IDU4My41LDE3OS45NSA1ODMuNSwyMDQuODEiIGZpbGw9Im5vbmUiIGlkPSJBZ2VudC1IaXN0b3JpcXVlX01vZGlmaWNhdGlvbnMiIHN0eWxlPSJzdHJva2U6IzE4MTgxODtzdHJva2Utd2lkdGg6MTsiLz48dGV4dCBmaWxsPSIjMDAwMDAwIiBmb250LWZhbWlseT0ic2Fucy1zZXJpZiIgZm9udC1zaXplPSIxMyIgbGVuZ3RoQWRqdXN0PSJzcGFjaW5nIiB0ZXh0TGVuZ3RoPSI2NSIgeD0iNTg0LjUiIHk9IjE3My4yODkxIj5lbnJlZ2lzdHJlPC90ZXh0Pjx0ZXh0IGZpbGw9IiMwMDAwMDAiIGZvbnQtZmFtaWx5PSJzYW5zLXNlcmlmIiBmb250LXNpemU9IjEzIiBsZW5ndGhBZGp1c3Q9InNwYWNpbmciIHRleHRMZW5ndGg9IjYuNSIgeD0iNTc3LjE4MiIgeT0iMTUwLjI4NyI+MTwvdGV4dD48dGV4dCBmaWxsPSIjMDAwMDAwIiBmb250LWZhbWlseT0ic2Fucy1zZXJpZiIgZm9udC1zaXplPSIxMyIgbGVuZ3RoQWRqdXN0PSJzcGFjaW5nIiB0ZXh0TGVuZ3RoPSIyNiIgeD0iNTU2LjI2MDkiIHk9IjE5NS41MDQ3Ij4wLi4qPC90ZXh0PjwvZz48IS0tbGluayBIaXN0b3JpcXVlX01vZGlmaWNhdGlvbnMgdG8gRGVtYW5kZS0tPjxnIGNsYXNzPSJsaW5rIiBkYXRhLWVudGl0eS0xPSJIaXN0b3JpcXVlX01vZGlmaWNhdGlvbnMiIGRhdGEtZW50aXR5LTI9IkRlbWFuZGUiIGRhdGEtc291cmNlLWxpbmU9IjYxIiBkYXRhLXVpZD0ibG5rMTIiIGlkPSJsaW5rX0hpc3RvcmlxdWVfTW9kaWZpY2F0aW9uc19EZW1hbmRlIj48cGF0aCBjb2RlTGluZT0iNjEiIGQ9Ik00NzguOTYsMzczLjE5IEM0NDguMTIsMzk3LjczIDQxNC43NCw0MjQuMyAzODUuMjMsNDQ3Ljc4IiBmaWxsPSJub25lIiBpZD0iSGlzdG9yaXF1ZV9Nb2RpZmljYXRpb25zLURlbWFuZGUiIHN0eWxlPSJzdHJva2U6IzE4MTgxODtzdHJva2Utd2lkdGg6MTsiLz48dGV4dCBmaWxsPSIjMDAwMDAwIiBmb250LWZhbWlseT0ic2Fucy1zZXJpZiIgZm9udC1zaXplPSIxMyIgbGVuZ3RoQWRqdXN0PSJzcGFjaW5nIiB0ZXh0TGVuZ3RoPSI1MiIgeD0iNDQyLjUiIHk9IjQxNi4yODkxIj5jb25jZXJuZTwvdGV4dD48dGV4dCBmaWxsPSIjMDAwMDAwIiBmb250LWZhbWlseT0ic2Fucy1zZXJpZiIgZm9udC1zaXplPSIxMyIgbGVuZ3RoQWRqdXN0PSJzcGFjaW5nIiB0ZXh0TGVuZ3RoPSIyNiIgeD0iNDQzLjIyNjIiIHk9IjM5My4wMzI0Ij4wLi4qPC90ZXh0Pjx0ZXh0IGZpbGw9IiMwMDAwMDAiIGZvbnQtZmFtaWx5PSJzYW5zLXNlcmlmIiBmb250LXNpemU9IjEzIiBsZW5ndGhBZGp1c3Q9InNwYWNpbmciIHRleHRMZW5ndGg9IjYuNSIgeD0iMzg4LjgyNDYiIHk9IjQzOC4zNzIyIj4xPC90ZXh0PjwvZz48IS0tbGluayBIaXN0b3JpcXVlX01vZGlmaWNhdGlvbnMgdG8gRG9jdW1lbnRfQWN0ZS0tPjxnIGNsYXNzPSJsaW5rIiBkYXRhLWVudGl0eS0xPSJIaXN0b3JpcXVlX01vZGlmaWNhdGlvbnMiIGRhdGEtZW50aXR5LTI9IkRvY3VtZW50X0FjdGUiIGRhdGEtc291cmNlLWxpbmU9IjYyIiBkYXRhLXVpZD0ibG5rMTMiIGlkPSJsaW5rX0hpc3RvcmlxdWVfTW9kaWZpY2F0aW9uc19Eb2N1bWVudF9BY3RlIj48cGF0aCBjb2RlTGluZT0iNjIiIGQ9Ik01ODcuNzksMzczLjIgQzU5Mi4wNCw0NTUuNyA1OTguNDksNTgxLjAxIDYwMi42LDY2MC44IiBmaWxsPSJub25lIiBpZD0iSGlzdG9yaXF1ZV9Nb2RpZmljYXRpb25zLURvY3VtZW50X0FjdGUiIHN0eWxlPSJzdHJva2U6IzE4MTgxODtzdHJva2Utd2lkdGg6MTsiLz48dGV4dCBmaWxsPSIjMDAwMDAwIiBmb250LWZhbWlseT0ic2Fucy1zZXJpZiIgZm9udC1zaXplPSIxMyIgbGVuZ3RoQWRqdXN0PSJzcGFjaW5nIiB0ZXh0TGVuZ3RoPSI1MiIgeD0iNTk4LjUiIHk9IjUyMi43ODkxIj5jb25jZXJuZTwvdGV4dD48dGV4dCBmaWxsPSIjMDAwMDAwIiBmb250LWZhbWlseT0ic2Fucy1zZXJpZiIgZm9udC1zaXplPSIxMyIgbGVuZ3RoQWRqdXN0PSJzcGFjaW5nIiB0ZXh0TGVuZ3RoPSIyNiIgeD0iNTYxLjA2ODciIHk9IjM5My4wNDMyIj4wLi4qPC90ZXh0Pjx0ZXh0IGZpbGw9IiMwMDAwMDAiIGZvbnQtZmFtaWx5PSJzYW5zLXNlcmlmIiBmb250LXNpemU9IjEzIiBsZW5ndGhBZGp1c3Q9InNwYWNpbmciIHRleHRMZW5ndGg9IjYuNSIgeD0iNTk1LjkxNDIiIHk9IjY1MS41NjE4Ij4xPC90ZXh0PjwvZz48IS0tU1JDPVtiTEZCUmppbTRCcGhBbVdUTW9UZWh4cXZhT0NRWTBDWlRkOGYzODZIRGl1MjRrY0liNTZab0ZfS3QtNFZ3cVlNSENmc1dGT1lhUkV4dDliemE3QmlUWUEtUFFUdGY2Qm5FbkJZeXBIOU1xMXk0cXpGcW1KV1dvdm5NSlozUWV0aHQ5MFE4ZWJxYjN2OGpiUWdaNjJmMFUzdEpESzB4b0Y2a0k1aDF6MmFiNW80bTk4QXNobmY1Tll6SG42cmoxQ2dmU2g5cXN1MUpfa0liRUxrRy1hdVN4TlJINU1iLUQ3SjZ1Y1BEMnBORTJJN1ZOUnVPclM4TTNaZkFqVHhCdEhMaWVOQkgwYmQ5M2lnR01XYWRjTjEtTTRGbW9FekxoT3Z0VkZNdUIzZzJrRzlyalNiYnRHYUVQVlNsREFuMzROZ2hBZkQzTUtsakhOV1RQdmZSbkNNZTEycWZDcnZuemFSYXFkZG9IcUNROUFnWFY5UUdRZjE4djdJeUN6Z3MxcUI0V1Buc25nLXFSZVdnUmY0SG1EQTUtTzlQN0dBbE85SnBLQkNqN0FvMEhCQWs5SDVXLUtLa1h2eENEQ2xONTJBMERnRG5BcXFPNzAzYlA4RGdsd0NSLXRVYnBzODNzZ21INXNpcDFuaGJLd0pZbkNzTld5ZUR6Vl9NOGdwVU52NHBOZUhwTWlaeDQ3OVlZcjZvTDViTGM3d3h1MXJxbVQ4cFZjTENyY3BqUHdIenBXUHk0ZHpYQ19MSldVb09Ndk1udWRmTlZtR2RHV1NEeUt2TV9FR294MmFPdkxYYjFJYk0wUThXTjU5bHJuSmdjZkJITjVnVTgtd3pPb19ua0JnSWlIVmhneV9uUzhGeW9pTUJFZ2tkSEQtV3hNMHR5UmVsQmhpNmRIXzh0VTdWUmdIOVplZzdNUnpnRG04OTZMZU5KVTllVy16c2JTd1doczRKNkZ6WkZodG8xRGZOVm5WXS0tPjwvZz48L3N2Zz4=;" parent="1" vertex="1">
            <mxGeometry x="275" y="-1120" width="726" height="820" as="geometry" />
          </mxCell>
        </UserObject>
        <UserObject label="" plantUmlData="{&quot;data&quot;:&quot;@startuml\nentity \&quot;Citoyen\&quot; {\n  +ID_Citoyen : UUID\n  Nom : String\n  Prenom : String\n  Date_Naissance : Date\n  Lieu_Naissance : String\n  Adresse : String\n  Email : String\n  Telephone : String\n}\n\nentity \&quot;Demande\&quot; {\n  +ID_Demande : UUID\n  ID_Citoyen : UUID\n  Type_Acte : Enum [Naissance, Mariage, Décès]\n  Statut : Enum [Soumise, En traitement, Validée, Refusée, Livrée]\n  Date_Demande : DateTime\n  ID_Paiement : UUID\n}\n\nentity \&quot;Document_Acte\&quot; {\n  +ID_Acte : UUID\n  ID_Demande : UUID\n  Date_Delivrance : DateTime\n  Fichier_PDF : Lien\n  Signature_Numerique : String\n  Est_Archive : Boolean\n  Date_Archivage : DateTime\n}\n\nentity \&quot;Paiement\&quot; {\n  +ID_Paiement : UUID\n  Montant : Decimal\n  Mode_Paiement : Enum [Mobile_Money, Carte_Bancaire, Virement]\n  Date_Paiement : DateTime\n  Transaction_ID : String\n}\n\nentity \&quot;Agent\&quot; {\n  +ID_Agent : UUID\n  Nom : String\n  Prenom : String\n  Email : String\n  Role : Enum [Agent, Administrateur]\n}\n\nentity \&quot;Historique_Modifications\&quot; {\n  +ID_Historique : UUID\n  Type_Entite : Enum [Demande, Acte]\n  ID_Entite : UUID\n  ID_Agent : UUID\n  Action : String\n  Date_Modification : DateTime\n  Ancienne_Valeur : Text\n  Nouvelle_Valeur : Text\n}\n\nCitoyen ||--o{ Demande : fait\nDemande ||--|| Document_Acte : génère\nDemande ||--|| Paiement : associé\nAgent ||--o{ Document_Acte : valide\nAgent ||--o{ Historique_Modifications : modifie\nHistorique_Modifications }o--|| Demande : concerne\nHistorique_Modifications }o--|| Document_Acte : concerne\n@enduml&quot;,&quot;format&quot;:&quot;svg&quot;}" id="dy7gHBvt2ktkr1UPaqxy-1">
          <mxCell style="shape=image;noLabel=1;verticalAlign=top;aspect=fixed;imageAspect=0;image=data:image/svg+xml,PHN2ZyB4bWxucz0iaHR0cDovL3d3dy53My5vcmcvMjAwMC9zdmciIHhtbG5zOnhsaW5rPSJodHRwOi8vd3d3LnczLm9yZy8xOTk5L3hsaW5rIiBjb250ZW50U3R5bGVUeXBlPSJ0ZXh0L2NzcyIgZGF0YS1kaWFncmFtLXR5cGU9IkNMQVNTIiBoZWlnaHQ9IjgyMHB4IiBwcmVzZXJ2ZUFzcGVjdFJhdGlvPSJub25lIiBzdHlsZT0id2lkdGg6NzU1cHg7aGVpZ2h0OjgyMHB4O2JhY2tncm91bmQ6I0ZGRkZGRjsiIHZlcnNpb249IjEuMSIgdmlld0JveD0iMCAwIDc1NSA4MjAiIHdpZHRoPSI3NTVweCIgem9vbUFuZFBhbj0ibWFnbmlmeSI+PGRlZnMvPjxnPjwhLS1jbGFzcyBDaXRveWVuLS0+PGcgY2xhc3M9ImVudGl0eSIgZGF0YS1lbnRpdHk9IkNpdG95ZW4iIGRhdGEtc291cmNlLWxpbmU9IjEiIGRhdGEtdWlkPSJlbnQwMDAyIiBpZD0iZW50aXR5X0NpdG95ZW4iPjxyZWN0IGZpbGw9IiNGMUYxRjEiIGhlaWdodD0iMTY3Ljg3NSIgcng9IjIuNSIgcnk9IjIuNSIgc3R5bGU9InN0cm9rZTojMTgxODE4O3N0cm9rZS13aWR0aDowLjU7IiB3aWR0aD0iMTg3IiB4PSIxNjUiIHk9IjIwNSIvPjxlbGxpcHNlIGN4PSIyMjkuNzUiIGN5PSIyMjEiIGZpbGw9IiNBREQxQjIiIHJ4PSIxMSIgcnk9IjExIiBzdHlsZT0ic3Ryb2tlOiMxODE4MTg7c3Ryb2tlLXdpZHRoOjE7Ii8+PHBhdGggZD0iTTIzMy4zNzUsMjI3IEwyMzMuMzc1LDIyNS4yNSBMMjI4LjA2MjUsMjI1LjI1IFEyMjguMDYyNSwyMjUuMjUgMjI4LjA2MjUsMjIxLjY4NzUgTDIzMi4zMTI1LDIyMS42ODc1IEwyMzIuMzEyNSwyMTkuOTM3NSBMMjI4LjA2MjUsMjE5LjkzNzUgTDIyOC4wNjI1LDIxNy40Mzc1IEwyMzMuMzc1LDIxNy40Mzc1IEwyMzMuMzc1LDIxNS42ODc1IEwyMjYuMzEyNSwyMTUuNjg3NSBRMjI2LjMxMjUsMjE1LjY4NzUgMjI2LjMxMjUsMjI3IEwyMzMuMzc1LDIyNyBaICIgZmlsbD0iIzAwMDAwMCIvPjx0ZXh0IGZpbGw9IiMwMDAwMDAiIGZvbnQtZmFtaWx5PSJzYW5zLXNlcmlmIiBmb250LXNpemU9IjE0IiBsZW5ndGhBZGp1c3Q9InNwYWNpbmciIHRleHRMZW5ndGg9IjQ5IiB4PSIyNTAuMjUiIHk9IjIyNi43NDIyIj5DaXRveWVuPC90ZXh0PjxsaW5lIHN0eWxlPSJzdHJva2U6IzE4MTgxODtzdHJva2Utd2lkdGg6MC41OyIgeDE9IjE2NiIgeDI9IjM1MSIgeTE9IjIzNyIgeTI9IjIzNyIvPjxlbGxpcHNlIGN4PSIxNzYiIGN5PSIyNDkuOTkyMiIgZmlsbD0ibm9uZSIgcng9IjMiIHJ5PSIzIiBzdHlsZT0ic3Ryb2tlOiMwMzgwNDg7c3Ryb2tlLXdpZHRoOjE7Ii8+PHRleHQgZmlsbD0iIzAwMDAwMCIgZm9udC1mYW1pbHk9InNhbnMtc2VyaWYiIGZvbnQtc2l6ZT0iMTQiIGxlbmd0aEFkanVzdD0ic3BhY2luZyIgdGV4dExlbmd0aD0iMTE5IiB4PSIxODUiIHk9IjI1NC4yMzQ0Ij5JRF9DaXRveWVuIDogVVVJRDwvdGV4dD48dGV4dCBmaWxsPSIjMDAwMDAwIiBmb250LWZhbWlseT0ic2Fucy1zZXJpZiIgZm9udC1zaXplPSIxNCIgbGVuZ3RoQWRqdXN0PSJzcGFjaW5nIiB0ZXh0TGVuZ3RoPSI4NCIgeD0iMTg1IiB5PSIyNjkuMjE4OCI+Tm9tIDogU3RyaW5nPC90ZXh0Pjx0ZXh0IGZpbGw9IiMwMDAwMDAiIGZvbnQtZmFtaWx5PSJzYW5zLXNlcmlmIiBmb250LXNpemU9IjE0IiBsZW5ndGhBZGp1c3Q9InNwYWNpbmciIHRleHRMZW5ndGg9IjEwNSIgeD0iMTg1IiB5PSIyODQuMjAzMSI+UHJlbm9tIDogU3RyaW5nPC90ZXh0Pjx0ZXh0IGZpbGw9IiMwMDAwMDAiIGZvbnQtZmFtaWx5PSJzYW5zLXNlcmlmIiBmb250LXNpemU9IjE0IiBsZW5ndGhBZGp1c3Q9InNwYWNpbmciIHRleHRMZW5ndGg9IjE0NyIgeD0iMTg1IiB5PSIyOTkuMTg3NSI+RGF0ZV9OYWlzc2FuY2UgOiBEYXRlPC90ZXh0Pjx0ZXh0IGZpbGw9IiMwMDAwMDAiIGZvbnQtZmFtaWx5PSJzYW5zLXNlcmlmIiBmb250LXNpemU9IjE0IiBsZW5ndGhBZGp1c3Q9InNwYWNpbmciIHRleHRMZW5ndGg9IjE2MSIgeD0iMTg1IiB5PSIzMTQuMTcxOSI+TGlldV9OYWlzc2FuY2UgOiBTdHJpbmc8L3RleHQ+PHRleHQgZmlsbD0iIzAwMDAwMCIgZm9udC1mYW1pbHk9InNhbnMtc2VyaWYiIGZvbnQtc2l6ZT0iMTQiIGxlbmd0aEFkanVzdD0ic3BhY2luZyIgdGV4dExlbmd0aD0iMTEyIiB4PSIxODUiIHk9IjMyOS4xNTYzIj5BZHJlc3NlIDogU3RyaW5nPC90ZXh0Pjx0ZXh0IGZpbGw9IiMwMDAwMDAiIGZvbnQtZmFtaWx5PSJzYW5zLXNlcmlmIiBmb250LXNpemU9IjE0IiBsZW5ndGhBZGp1c3Q9InNwYWNpbmciIHRleHRMZW5ndGg9Ijk4IiB4PSIxODUiIHk9IjM0NC4xNDA2Ij5FbWFpbCA6IFN0cmluZzwvdGV4dD48dGV4dCBmaWxsPSIjMDAwMDAwIiBmb250LWZhbWlseT0ic2Fucy1zZXJpZiIgZm9udC1zaXplPSIxNCIgbGVuZ3RoQWRqdXN0PSJzcGFjaW5nIiB0ZXh0TGVuZ3RoPSIxMjYiIHg9IjE4NSIgeT0iMzU5LjEyNSI+VGVsZXBob25lIDogU3RyaW5nPC90ZXh0PjxsaW5lIHN0eWxlPSJzdHJva2U6IzE4MTgxODtzdHJva2Utd2lkdGg6MC41OyIgeDE9IjE2NiIgeDI9IjM1MSIgeTE9IjM2NC44NzUiIHkyPSIzNjQuODc1Ii8+PC9nPjwhLS1jbGFzcyBEZW1hbmRlLS0+PGcgY2xhc3M9ImVudGl0eSIgZGF0YS1lbnRpdHk9IkRlbWFuZGUiIGRhdGEtc291cmNlLWxpbmU9IjEyIiBkYXRhLXVpZD0iZW50MDAwMyIgaWQ9ImVudGl0eV9EZW1hbmRlIj48cmVjdCBmaWxsPSIjRjFGMUYxIiBoZWlnaHQ9IjEzNy45MDYzIiByeD0iMi41IiByeT0iMi41IiBzdHlsZT0ic3Ryb2tlOiMxODE4MTg7c3Ryb2tlLXdpZHRoOjAuNTsiIHdpZHRoPSI0NzQiIHg9IjI5LjUiIHk9IjQ0OCIvPjxlbGxpcHNlIGN4PSIyMzcuNzUiIGN5PSI0NjQiIGZpbGw9IiNBREQxQjIiIHJ4PSIxMSIgcnk9IjExIiBzdHlsZT0ic3Ryb2tlOiMxODE4MTg7c3Ryb2tlLXdpZHRoOjE7Ii8+PHBhdGggZD0iTTI0MS4zNzUsNDcwIEwyNDEuMzc1LDQ2OC4yNSBMMjM2LjA2MjUsNDY4LjI1IFEyMzYuMDYyNSw0NjguMjUgMjM2LjA2MjUsNDY0LjY4NzUgTDI0MC4zMTI1LDQ2NC42ODc1IEwyNDAuMzEyNSw0NjIuOTM3NSBMMjM2LjA2MjUsNDYyLjkzNzUgTDIzNi4wNjI1LDQ2MC40Mzc1IEwyNDEuMzc1LDQ2MC40Mzc1IEwyNDEuMzc1LDQ1OC42ODc1IEwyMzQuMzEyNSw0NTguNjg3NSBRMjM0LjMxMjUsNDU4LjY4NzUgMjM0LjMxMjUsNDcwIEwyNDEuMzc1LDQ3MCBaICIgZmlsbD0iIzAwMDAwMCIvPjx0ZXh0IGZpbGw9IiMwMDAwMDAiIGZvbnQtZmFtaWx5PSJzYW5zLXNlcmlmIiBmb250LXNpemU9IjE0IiBsZW5ndGhBZGp1c3Q9InNwYWNpbmciIHRleHRMZW5ndGg9IjQ5IiB4PSIyNTguMjUiIHk9IjQ2OS43NDIyIj5EZW1hbmRlPC90ZXh0PjxsaW5lIHN0eWxlPSJzdHJva2U6IzE4MTgxODtzdHJva2Utd2lkdGg6MC41OyIgeDE9IjMwLjUiIHgyPSI1MDIuNSIgeTE9IjQ4MCIgeTI9IjQ4MCIvPjxlbGxpcHNlIGN4PSI0MC41IiBjeT0iNDkyLjk5MjIiIGZpbGw9Im5vbmUiIHJ4PSIzIiByeT0iMyIgc3R5bGU9InN0cm9rZTojMDM4MDQ4O3N0cm9rZS13aWR0aDoxOyIvPjx0ZXh0IGZpbGw9IiMwMDAwMDAiIGZvbnQtZmFtaWx5PSJzYW5zLXNlcmlmIiBmb250LXNpemU9IjE0IiBsZW5ndGhBZGp1c3Q9InNwYWNpbmciIHRleHRMZW5ndGg9IjExOSIgeD0iNDkuNSIgeT0iNDk3LjIzNDQiPklEX0RlbWFuZGUgOiBVVUlEPC90ZXh0Pjx0ZXh0IGZpbGw9IiMwMDAwMDAiIGZvbnQtZmFtaWx5PSJzYW5zLXNlcmlmIiBmb250LXNpemU9IjE0IiBsZW5ndGhBZGp1c3Q9InNwYWNpbmciIHRleHRMZW5ndGg9IjExOSIgeD0iNDkuNSIgeT0iNTEyLjIxODgiPklEX0NpdG95ZW4gOiBVVUlEPC90ZXh0Pjx0ZXh0IGZpbGw9IiMwMDAwMDAiIGZvbnQtZmFtaWx5PSJzYW5zLXNlcmlmIiBmb250LXNpemU9IjE0IiBsZW5ndGhBZGp1c3Q9InNwYWNpbmciIHRleHRMZW5ndGg9IjMwOCIgeD0iNDkuNSIgeT0iNTI3LjIwMzEiPlR5cGVfQWN0ZSA6IEVudW0gW05haXNzYW5jZSwgTWFyaWFnZSwgRCYjMjMzO2MmIzIzMjtzXTwvdGV4dD48dGV4dCBmaWxsPSIjMDAwMDAwIiBmb250LWZhbWlseT0ic2Fucy1zZXJpZiIgZm9udC1zaXplPSIxNCIgbGVuZ3RoQWRqdXN0PSJzcGFjaW5nIiB0ZXh0TGVuZ3RoPSI0NDgiIHg9IjQ5LjUiIHk9IjU0Mi4xODc1Ij5TdGF0dXQgOiBFbnVtIFtTb3VtaXNlLCBFbiB0cmFpdGVtZW50LCBWYWxpZCYjMjMzO2UsIFJlZnVzJiMyMzM7ZSwgTGl2ciYjMjMzO2VdPC90ZXh0Pjx0ZXh0IGZpbGw9IiMwMDAwMDAiIGZvbnQtZmFtaWx5PSJzYW5zLXNlcmlmIiBmb250LXNpemU9IjE0IiBsZW5ndGhBZGp1c3Q9InNwYWNpbmciIHRleHRMZW5ndGg9IjE2MSIgeD0iNDkuNSIgeT0iNTU3LjE3MTkiPkRhdGVfRGVtYW5kZSA6IERhdGVUaW1lPC90ZXh0Pjx0ZXh0IGZpbGw9IiMwMDAwMDAiIGZvbnQtZmFtaWx5PSJzYW5zLXNlcmlmIiBmb250LXNpemU9IjE0IiBsZW5ndGhBZGp1c3Q9InNwYWNpbmciIHRleHRMZW5ndGg9IjEyNiIgeD0iNDkuNSIgeT0iNTcyLjE1NjMiPklEX1BhaWVtZW50IDogVVVJRDwvdGV4dD48bGluZSBzdHlsZT0ic3Ryb2tlOiMxODE4MTg7c3Ryb2tlLXdpZHRoOjAuNTsiIHgxPSIzMC41IiB4Mj0iNTAyLjUiIHkxPSI1NzcuOTA2MyIgeTI9IjU3Ny45MDYzIi8+PC9nPjwhLS1jbGFzcyBEb2N1bWVudF9BY3RlLS0+PGcgY2xhc3M9ImVudGl0eSIgZGF0YS1lbnRpdHk9IkRvY3VtZW50X0FjdGUiIGRhdGEtc291cmNlLWxpbmU9IjIxIiBkYXRhLXVpZD0iZW50MDAwNCIgaWQ9ImVudGl0eV9Eb2N1bWVudF9BY3RlIj48cmVjdCBmaWxsPSIjRjFGMUYxIiBoZWlnaHQ9IjE1Mi44OTA2IiByeD0iMi41IiByeT0iMi41IiBzdHlsZT0ic3Ryb2tlOiMxODE4MTg7c3Ryb2tlLXdpZHRoOjAuNTsiIHdpZHRoPSIyMjIiIHg9IjQ5NS41IiB5PSI2NjEiLz48ZWxsaXBzZSBjeD0iNTU2Ljc1IiBjeT0iNjc3IiBmaWxsPSIjQUREMUIyIiByeD0iMTEiIHJ5PSIxMSIgc3R5bGU9InN0cm9rZTojMTgxODE4O3N0cm9rZS13aWR0aDoxOyIvPjxwYXRoIGQ9Ik01NjAuMzc1LDY4MyBMNTYwLjM3NSw2ODEuMjUgTDU1NS4wNjI1LDY4MS4yNSBRNTU1LjA2MjUsNjgxLjI1IDU1NS4wNjI1LDY3Ny42ODc1IEw1NTkuMzEyNSw2NzcuNjg3NSBMNTU5LjMxMjUsNjc1LjkzNzUgTDU1NS4wNjI1LDY3NS45Mzc1IEw1NTUuMDYyNSw2NzMuNDM3NSBMNTYwLjM3NSw2NzMuNDM3NSBMNTYwLjM3NSw2NzEuNjg3NSBMNTUzLjMxMjUsNjcxLjY4NzUgUTU1My4zMTI1LDY3MS42ODc1IDU1My4zMTI1LDY4MyBMNTYwLjM3NSw2ODMgWiAiIGZpbGw9IiMwMDAwMDAiLz48dGV4dCBmaWxsPSIjMDAwMDAwIiBmb250LWZhbWlseT0ic2Fucy1zZXJpZiIgZm9udC1zaXplPSIxNCIgbGVuZ3RoQWRqdXN0PSJzcGFjaW5nIiB0ZXh0TGVuZ3RoPSI5MSIgeD0iNTc3LjI1IiB5PSI2ODIuNzQyMiI+RG9jdW1lbnRfQWN0ZTwvdGV4dD48bGluZSBzdHlsZT0ic3Ryb2tlOiMxODE4MTg7c3Ryb2tlLXdpZHRoOjAuNTsiIHgxPSI0OTYuNSIgeDI9IjcxNi41IiB5MT0iNjkzIiB5Mj0iNjkzIi8+PGVsbGlwc2UgY3g9IjUwNi41IiBjeT0iNzA1Ljk5MjIiIGZpbGw9Im5vbmUiIHJ4PSIzIiByeT0iMyIgc3R5bGU9InN0cm9rZTojMDM4MDQ4O3N0cm9rZS13aWR0aDoxOyIvPjx0ZXh0IGZpbGw9IiMwMDAwMDAiIGZvbnQtZmFtaWx5PSJzYW5zLXNlcmlmIiBmb250LXNpemU9IjE0IiBsZW5ndGhBZGp1c3Q9InNwYWNpbmciIHRleHRMZW5ndGg9Ijk4IiB4PSI1MTUuNSIgeT0iNzEwLjIzNDQiPklEX0FjdGUgOiBVVUlEPC90ZXh0Pjx0ZXh0IGZpbGw9IiMwMDAwMDAiIGZvbnQtZmFtaWx5PSJzYW5zLXNlcmlmIiBmb250LXNpemU9IjE0IiBsZW5ndGhBZGp1c3Q9InNwYWNpbmciIHRleHRMZW5ndGg9IjExOSIgeD0iNTE1LjUiIHk9IjcyNS4yMTg4Ij5JRF9EZW1hbmRlIDogVVVJRDwvdGV4dD48dGV4dCBmaWxsPSIjMDAwMDAwIiBmb250LWZhbWlseT0ic2Fucy1zZXJpZiIgZm9udC1zaXplPSIxNCIgbGVuZ3RoQWRqdXN0PSJzcGFjaW5nIiB0ZXh0TGVuZ3RoPSIxODIiIHg9IjUxNS41IiB5PSI3NDAuMjAzMSI+RGF0ZV9EZWxpdnJhbmNlIDogRGF0ZVRpbWU8L3RleHQ+PHRleHQgZmlsbD0iIzAwMDAwMCIgZm9udC1mYW1pbHk9InNhbnMtc2VyaWYiIGZvbnQtc2l6ZT0iMTQiIGxlbmd0aEFkanVzdD0ic3BhY2luZyIgdGV4dExlbmd0aD0iMTI2IiB4PSI1MTUuNSIgeT0iNzU1LjE4NzUiPkZpY2hpZXJfUERGIDogTGllbjwvdGV4dD48dGV4dCBmaWxsPSIjMDAwMDAwIiBmb250LWZhbWlseT0ic2Fucy1zZXJpZiIgZm9udC1zaXplPSIxNCIgbGVuZ3RoQWRqdXN0PSJzcGFjaW5nIiB0ZXh0TGVuZ3RoPSIxOTYiIHg9IjUxNS41IiB5PSI3NzAuMTcxOSI+U2lnbmF0dXJlX051bWVyaXF1ZSA6IFN0cmluZzwvdGV4dD48dGV4dCBmaWxsPSIjMDAwMDAwIiBmb250LWZhbWlseT0ic2Fucy1zZXJpZiIgZm9udC1zaXplPSIxNCIgbGVuZ3RoQWRqdXN0PSJzcGFjaW5nIiB0ZXh0TGVuZ3RoPSIxNDciIHg9IjUxNS41IiB5PSI3ODUuMTU2MyI+RXN0X0FyY2hpdmUgOiBCb29sZWFuPC90ZXh0Pjx0ZXh0IGZpbGw9IiMwMDAwMDAiIGZvbnQtZmFtaWx5PSJzYW5zLXNlcmlmIiBmb250LXNpemU9IjE0IiBsZW5ndGhBZGp1c3Q9InNwYWNpbmciIHRleHRMZW5ndGg9IjE3NSIgeD0iNTE1LjUiIHk9IjgwMC4xNDA2Ij5EYXRlX0FyY2hpdmFnZSA6IERhdGVUaW1lPC90ZXh0PjxsaW5lIHN0eWxlPSJzdHJva2U6IzE4MTgxODtzdHJva2Utd2lkdGg6MC41OyIgeDE9IjQ5Ni41IiB4Mj0iNzE2LjUiIHkxPSI4MDUuODkwNiIgeTI9IjgwNS44OTA2Ii8+PC9nPjwhLS1jbGFzcyBQYWllbWVudC0tPjxnIGNsYXNzPSJlbnRpdHkiIGRhdGEtZW50aXR5PSJQYWllbWVudCIgZGF0YS1zb3VyY2UtbGluZT0iMzEiIGRhdGEtdWlkPSJlbnQwMDA1IiBpZD0iZW50aXR5X1BhaWVtZW50Ij48cmVjdCBmaWxsPSIjRjFGMUYxIiBoZWlnaHQ9IjEyMi45MjE5IiByeD0iMi41IiByeT0iMi41IiBzdHlsZT0ic3Ryb2tlOiMxODE4MTg7c3Ryb2tlLXdpZHRoOjAuNTsiIHdpZHRoPSI0NTMiIHg9IjciIHk9IjY3NiIvPjxlbGxpcHNlIGN4PSIyMDEuMjUiIGN5PSI2OTIiIGZpbGw9IiNBREQxQjIiIHJ4PSIxMSIgcnk9IjExIiBzdHlsZT0ic3Ryb2tlOiMxODE4MTg7c3Ryb2tlLXdpZHRoOjE7Ii8+PHBhdGggZD0iTTIwNC44NzUsNjk4IEwyMDQuODc1LDY5Ni4yNSBMMTk5LjU2MjUsNjk2LjI1IFExOTkuNTYyNSw2OTYuMjUgMTk5LjU2MjUsNjkyLjY4NzUgTDIwMy44MTI1LDY5Mi42ODc1IEwyMDMuODEyNSw2OTAuOTM3NSBMMTk5LjU2MjUsNjkwLjkzNzUgTDE5OS41NjI1LDY4OC40Mzc1IEwyMDQuODc1LDY4OC40Mzc1IEwyMDQuODc1LDY4Ni42ODc1IEwxOTcuODEyNSw2ODYuNjg3NSBRMTk3LjgxMjUsNjg2LjY4NzUgMTk3LjgxMjUsNjk4IEwyMDQuODc1LDY5OCBaICIgZmlsbD0iIzAwMDAwMCIvPjx0ZXh0IGZpbGw9IiMwMDAwMDAiIGZvbnQtZmFtaWx5PSJzYW5zLXNlcmlmIiBmb250LXNpemU9IjE0IiBsZW5ndGhBZGp1c3Q9InNwYWNpbmciIHRleHRMZW5ndGg9IjU2IiB4PSIyMjEuNzUiIHk9IjY5Ny43NDIyIj5QYWllbWVudDwvdGV4dD48bGluZSBzdHlsZT0ic3Ryb2tlOiMxODE4MTg7c3Ryb2tlLXdpZHRoOjAuNTsiIHgxPSI4IiB4Mj0iNDU5IiB5MT0iNzA4IiB5Mj0iNzA4Ii8+PGVsbGlwc2UgY3g9IjE4IiBjeT0iNzIwLjk5MjIiIGZpbGw9Im5vbmUiIHJ4PSIzIiByeT0iMyIgc3R5bGU9InN0cm9rZTojMDM4MDQ4O3N0cm9rZS13aWR0aDoxOyIvPjx0ZXh0IGZpbGw9IiMwMDAwMDAiIGZvbnQtZmFtaWx5PSJzYW5zLXNlcmlmIiBmb250LXNpemU9IjE0IiBsZW5ndGhBZGp1c3Q9InNwYWNpbmciIHRleHRMZW5ndGg9IjEyNiIgeD0iMjciIHk9IjcyNS4yMzQ0Ij5JRF9QYWllbWVudCA6IFVVSUQ8L3RleHQ+PHRleHQgZmlsbD0iIzAwMDAwMCIgZm9udC1mYW1pbHk9InNhbnMtc2VyaWYiIGZvbnQtc2l6ZT0iMTQiIGxlbmd0aEFkanVzdD0ic3BhY2luZyIgdGV4dExlbmd0aD0iMTE5IiB4PSIyNyIgeT0iNzQwLjIxODgiPk1vbnRhbnQgOiBEZWNpbWFsPC90ZXh0Pjx0ZXh0IGZpbGw9IiMwMDAwMDAiIGZvbnQtZmFtaWx5PSJzYW5zLXNlcmlmIiBmb250LXNpemU9IjE0IiBsZW5ndGhBZGp1c3Q9InNwYWNpbmciIHRleHRMZW5ndGg9IjQyNyIgeD0iMjciIHk9Ijc1NS4yMDMxIj5Nb2RlX1BhaWVtZW50IDogRW51bSBbTW9iaWxlX01vbmV5LCBDYXJ0ZV9CYW5jYWlyZSwgVmlyZW1lbnRdPC90ZXh0Pjx0ZXh0IGZpbGw9IiMwMDAwMDAiIGZvbnQtZmFtaWx5PSJzYW5zLXNlcmlmIiBmb250LXNpemU9IjE0IiBsZW5ndGhBZGp1c3Q9InNwYWNpbmciIHRleHRMZW5ndGg9IjE2OCIgeD0iMjciIHk9Ijc3MC4xODc1Ij5EYXRlX1BhaWVtZW50IDogRGF0ZVRpbWU8L3RleHQ+PHRleHQgZmlsbD0iIzAwMDAwMCIgZm9udC1mYW1pbHk9InNhbnMtc2VyaWYiIGZvbnQtc2l6ZT0iMTQiIGxlbmd0aEFkanVzdD0ic3BhY2luZyIgdGV4dExlbmd0aD0iMTYxIiB4PSIyNyIgeT0iNzg1LjE3MTkiPlRyYW5zYWN0aW9uX0lEIDogU3RyaW5nPC90ZXh0PjxsaW5lIHN0eWxlPSJzdHJva2U6IzE4MTgxODtzdHJva2Utd2lkdGg6MC41OyIgeDE9IjgiIHgyPSI0NTkiIHkxPSI3OTAuOTIxOSIgeTI9Ijc5MC45MjE5Ii8+PC9nPjwhLS1jbGFzcyBBZ2VudC0tPjxnIGNsYXNzPSJlbnRpdHkiIGRhdGEtZW50aXR5PSJBZ2VudCIgZGF0YS1zb3VyY2UtbGluZT0iMzkiIGRhdGEtdWlkPSJlbnQwMDA2IiBpZD0iZW50aXR5X0FnZW50Ij48cmVjdCBmaWxsPSIjRjFGMUYxIiBoZWlnaHQ9IjEyMi45MjE5IiByeD0iMi41IiByeT0iMi41IiBzdHlsZT0ic3Ryb2tlOiMxODE4MTg7c3Ryb2tlLXdpZHRoOjAuNTsiIHdpZHRoPSIyNzEiIHg9IjQ3NyIgeT0iNyIvPjxlbGxpcHNlIGN4PSI1OTAuNzUiIGN5PSIyMyIgZmlsbD0iI0FERDFCMiIgcng9IjExIiByeT0iMTEiIHN0eWxlPSJzdHJva2U6IzE4MTgxODtzdHJva2Utd2lkdGg6MTsiLz48cGF0aCBkPSJNNTk0LjM3NSwyOSBMNTk0LjM3NSwyNy4yNSBMNTg5LjA2MjUsMjcuMjUgUTU4OS4wNjI1LDI3LjI1IDU4OS4wNjI1LDIzLjY4NzUgTDU5My4zMTI1LDIzLjY4NzUgTDU5My4zMTI1LDIxLjkzNzUgTDU4OS4wNjI1LDIxLjkzNzUgTDU4OS4wNjI1LDE5LjQzNzUgTDU5NC4zNzUsMTkuNDM3NSBMNTk0LjM3NSwxNy42ODc1IEw1ODcuMzEyNSwxNy42ODc1IFE1ODcuMzEyNSwxNy42ODc1IDU4Ny4zMTI1LDI5IEw1OTQuMzc1LDI5IFogIiBmaWxsPSIjMDAwMDAwIi8+PHRleHQgZmlsbD0iIzAwMDAwMCIgZm9udC1mYW1pbHk9InNhbnMtc2VyaWYiIGZvbnQtc2l6ZT0iMTQiIGxlbmd0aEFkanVzdD0ic3BhY2luZyIgdGV4dExlbmd0aD0iMzUiIHg9IjYxMS4yNSIgeT0iMjguNzQyMiI+QWdlbnQ8L3RleHQ+PGxpbmUgc3R5bGU9InN0cm9rZTojMTgxODE4O3N0cm9rZS13aWR0aDowLjU7IiB4MT0iNDc4IiB4Mj0iNzQ3IiB5MT0iMzkiIHkyPSIzOSIvPjxlbGxpcHNlIGN4PSI0ODgiIGN5PSI1MS45OTIyIiBmaWxsPSJub25lIiByeD0iMyIgcnk9IjMiIHN0eWxlPSJzdHJva2U6IzAzODA0ODtzdHJva2Utd2lkdGg6MTsiLz48dGV4dCBmaWxsPSIjMDAwMDAwIiBmb250LWZhbWlseT0ic2Fucy1zZXJpZiIgZm9udC1zaXplPSIxNCIgbGVuZ3RoQWRqdXN0PSJzcGFjaW5nIiB0ZXh0TGVuZ3RoPSIxMDUiIHg9IjQ5NyIgeT0iNTYuMjM0NCI+SURfQWdlbnQgOiBVVUlEPC90ZXh0Pjx0ZXh0IGZpbGw9IiMwMDAwMDAiIGZvbnQtZmFtaWx5PSJzYW5zLXNlcmlmIiBmb250LXNpemU9IjE0IiBsZW5ndGhBZGp1c3Q9InNwYWNpbmciIHRleHRMZW5ndGg9Ijg0IiB4PSI0OTciIHk9IjcxLjIxODgiPk5vbSA6IFN0cmluZzwvdGV4dD48dGV4dCBmaWxsPSIjMDAwMDAwIiBmb250LWZhbWlseT0ic2Fucy1zZXJpZiIgZm9udC1zaXplPSIxNCIgbGVuZ3RoQWRqdXN0PSJzcGFjaW5nIiB0ZXh0TGVuZ3RoPSIxMDUiIHg9IjQ5NyIgeT0iODYuMjAzMSI+UHJlbm9tIDogU3RyaW5nPC90ZXh0Pjx0ZXh0IGZpbGw9IiMwMDAwMDAiIGZvbnQtZmFtaWx5PSJzYW5zLXNlcmlmIiBmb250LXNpemU9IjE0IiBsZW5ndGhBZGp1c3Q9InNwYWNpbmciIHRleHRMZW5ndGg9Ijk4IiB4PSI0OTciIHk9IjEwMS4xODc1Ij5FbWFpbCA6IFN0cmluZzwvdGV4dD48dGV4dCBmaWxsPSIjMDAwMDAwIiBmb250LWZhbWlseT0ic2Fucy1zZXJpZiIgZm9udC1zaXplPSIxNCIgbGVuZ3RoQWRqdXN0PSJzcGFjaW5nIiB0ZXh0TGVuZ3RoPSIyNDUiIHg9IjQ5NyIgeT0iMTE2LjE3MTkiPlJvbGUgOiBFbnVtIFtBZ2VudCwgQWRtaW5pc3RyYXRldXJdPC90ZXh0PjxsaW5lIHN0eWxlPSJzdHJva2U6IzE4MTgxODtzdHJva2Utd2lkdGg6MC41OyIgeDE9IjQ3OCIgeDI9Ijc0NyIgeTE9IjEyMS45MjE5IiB5Mj0iMTIxLjkyMTkiLz48L2c+PCEtLWNsYXNzIEhpc3RvcmlxdWVfTW9kaWZpY2F0aW9ucy0tPjxnIGNsYXNzPSJlbnRpdHkiIGRhdGEtZW50aXR5PSJIaXN0b3JpcXVlX01vZGlmaWNhdGlvbnMiIGRhdGEtc291cmNlLWxpbmU9IjQ3IiBkYXRhLXVpZD0iZW50MDAwNyIgaWQ9ImVudGl0eV9IaXN0b3JpcXVlX01vZGlmaWNhdGlvbnMiPjxyZWN0IGZpbGw9IiNGMUYxRjEiIGhlaWdodD0iMTY3Ljg3NSIgcng9IjIuNSIgcnk9IjIuNSIgc3R5bGU9InN0cm9rZTojMTgxODE4O3N0cm9rZS13aWR0aDowLjU7IiB3aWR0aD0iMjY0IiB4PSIzODcuNSIgeT0iMjA1Ii8+PGVsbGlwc2UgY3g9IjQzMS4zIiBjeT0iMjIxIiBmaWxsPSIjQUREMUIyIiByeD0iMTEiIHJ5PSIxMSIgc3R5bGU9InN0cm9rZTojMTgxODE4O3N0cm9rZS13aWR0aDoxOyIvPjxwYXRoIGQ9Ik00MzQuOTI1LDIyNyBMNDM0LjkyNSwyMjUuMjUgTDQyOS42MTI1LDIyNS4yNSBRNDI5LjYxMjUsMjI1LjI1IDQyOS42MTI1LDIyMS42ODc1IEw0MzMuODYyNSwyMjEuNjg3NSBMNDMzLjg2MjUsMjE5LjkzNzUgTDQyOS42MTI1LDIxOS45Mzc1IEw0MjkuNjEyNSwyMTcuNDM3NSBMNDM0LjkyNSwyMTcuNDM3NSBMNDM0LjkyNSwyMTUuNjg3NSBMNDI3Ljg2MjUsMjE1LjY4NzUgUTQyNy44NjI1LDIxNS42ODc1IDQyNy44NjI1LDIyNyBMNDM0LjkyNSwyMjcgWiAiIGZpbGw9IiMwMDAwMDAiLz48dGV4dCBmaWxsPSIjMDAwMDAwIiBmb250LWZhbWlseT0ic2Fucy1zZXJpZiIgZm9udC1zaXplPSIxNCIgbGVuZ3RoQWRqdXN0PSJzcGFjaW5nIiB0ZXh0TGVuZ3RoPSIxNjgiIHg9IjQ1MS43IiB5PSIyMjYuNzQyMiI+SGlzdG9yaXF1ZV9Nb2RpZmljYXRpb25zPC90ZXh0PjxsaW5lIHN0eWxlPSJzdHJva2U6IzE4MTgxODtzdHJva2Utd2lkdGg6MC41OyIgeDE9IjM4OC41IiB4Mj0iNjUwLjUiIHkxPSIyMzciIHkyPSIyMzciLz48ZWxsaXBzZSBjeD0iMzk4LjUiIGN5PSIyNDkuOTkyMiIgZmlsbD0ibm9uZSIgcng9IjMiIHJ5PSIzIiBzdHlsZT0ic3Ryb2tlOiMwMzgwNDg7c3Ryb2tlLXdpZHRoOjE7Ii8+PHRleHQgZmlsbD0iIzAwMDAwMCIgZm9udC1mYW1pbHk9InNhbnMtc2VyaWYiIGZvbnQtc2l6ZT0iMTQiIGxlbmd0aEFkanVzdD0ic3BhY2luZyIgdGV4dExlbmd0aD0iMTQwIiB4PSI0MDcuNSIgeT0iMjU0LjIzNDQiPklEX0hpc3RvcmlxdWUgOiBVVUlEPC90ZXh0Pjx0ZXh0IGZpbGw9IiMwMDAwMDAiIGZvbnQtZmFtaWx5PSJzYW5zLXNlcmlmIiBmb250LXNpemU9IjE0IiBsZW5ndGhBZGp1c3Q9InNwYWNpbmciIHRleHRMZW5ndGg9IjIzOCIgeD0iNDA3LjUiIHk9IjI2OS4yMTg4Ij5UeXBlX0VudGl0ZSA6IEVudW0gW0RlbWFuZGUsIEFjdGVdPC90ZXh0Pjx0ZXh0IGZpbGw9IiMwMDAwMDAiIGZvbnQtZmFtaWx5PSJzYW5zLXNlcmlmIiBmb250LXNpemU9IjE0IiBsZW5ndGhBZGp1c3Q9InNwYWNpbmciIHRleHRMZW5ndGg9IjExMiIgeD0iNDA3LjUiIHk9IjI4NC4yMDMxIj5JRF9FbnRpdGUgOiBVVUlEPC90ZXh0Pjx0ZXh0IGZpbGw9IiMwMDAwMDAiIGZvbnQtZmFtaWx5PSJzYW5zLXNlcmlmIiBmb250LXNpemU9IjE0IiBsZW5ndGhBZGp1c3Q9InNwYWNpbmciIHRleHRMZW5ndGg9IjEwNSIgeD0iNDA3LjUiIHk9IjI5OS4xODc1Ij5JRF9BZ2VudCA6IFVVSUQ8L3RleHQ+PHRleHQgZmlsbD0iIzAwMDAwMCIgZm9udC1mYW1pbHk9InNhbnMtc2VyaWYiIGZvbnQtc2l6ZT0iMTQiIGxlbmd0aEFkanVzdD0ic3BhY2luZyIgdGV4dExlbmd0aD0iMTA1IiB4PSI0MDcuNSIgeT0iMzE0LjE3MTkiPkFjdGlvbiA6IFN0cmluZzwvdGV4dD48dGV4dCBmaWxsPSIjMDAwMDAwIiBmb250LWZhbWlseT0ic2Fucy1zZXJpZiIgZm9udC1zaXplPSIxNCIgbGVuZ3RoQWRqdXN0PSJzcGFjaW5nIiB0ZXh0TGVuZ3RoPSIxOTYiIHg9IjQwNy41IiB5PSIzMjkuMTU2MyI+RGF0ZV9Nb2RpZmljYXRpb24gOiBEYXRlVGltZTwvdGV4dD48dGV4dCBmaWxsPSIjMDAwMDAwIiBmb250LWZhbWlseT0ic2Fucy1zZXJpZiIgZm9udC1zaXplPSIxNCIgbGVuZ3RoQWRqdXN0PSJzcGFjaW5nIiB0ZXh0TGVuZ3RoPSIxNTQiIHg9IjQwNy41IiB5PSIzNDQuMTQwNiI+QW5jaWVubmVfVmFsZXVyIDogVGV4dDwvdGV4dD48dGV4dCBmaWxsPSIjMDAwMDAwIiBmb250LWZhbWlseT0ic2Fucy1zZXJpZiIgZm9udC1zaXplPSIxNCIgbGVuZ3RoQWRqdXN0PSJzcGFjaW5nIiB0ZXh0TGVuZ3RoPSIxNTQiIHg9IjQwNy41IiB5PSIzNTkuMTI1Ij5Ob3V2ZWxsZV9WYWxldXIgOiBUZXh0PC90ZXh0PjxsaW5lIHN0eWxlPSJzdHJva2U6IzE4MTgxODtzdHJva2Utd2lkdGg6MC41OyIgeDE9IjM4OC41IiB4Mj0iNjUwLjUiIHkxPSIzNjQuODc1IiB5Mj0iMzY0Ljg3NSIvPjwvZz48IS0tbGluayBDaXRveWVuIHRvIERlbWFuZGUtLT48ZyBjbGFzcz0ibGluayIgZGF0YS1lbnRpdHktMT0iQ2l0b3llbiIgZGF0YS1lbnRpdHktMj0iRGVtYW5kZSIgZGF0YS1zb3VyY2UtbGluZT0iNTgiIGRhdGEtdWlkPSJsbms4IiBpZD0ibGlua19DaXRveWVuX0RlbWFuZGUiPjxwYXRoIGNvZGVMaW5lPSI1OCIgZD0iTTI2MS43MjM0LDM4MS4xODUgQzI2Mi41OTM0LDQwNS43MjUgMjYyLjYwNjUsNDA2LjMxMTUgMjYzLjQ0NjUsNDI5Ljc5MTUiIGZpbGw9Im5vbmUiIGlkPSJDaXRveWVuLURlbWFuZGUiIHN0eWxlPSJzdHJva2U6IzE4MTgxODtzdHJva2Utd2lkdGg6MTsiLz48bGluZSBzdHlsZT0ic3Ryb2tlOiMxODE4MTg7c3Ryb2tlLXdpZHRoOjE7IiB4MT0iMjU3LjU4NDIiIHgyPSIyNjUuNTc5MiIgeTE9IjM3Ny4zMjkyIiB5Mj0iMzc3LjA0NTgiLz48bGluZSBzdHlsZT0ic3Ryb2tlOiMxODE4MTg7c3Ryb2tlLXdpZHRoOjE7IiB4MT0iMjU3LjY5MDUiIHgyPSIyNjUuNjg1NSIgeTE9IjM4MC4zMjczIiB5Mj0iMzgwLjA0MzkiLz48bGluZSBzdHlsZT0ic3Ryb2tlOiMxODE4MTg7c3Ryb2tlLXdpZHRoOjE7IiB4MT0iMjYxLjcyMzQiIHgyPSIyNjEuNDQiIHkxPSIzODEuMTg1IiB5Mj0iMzczLjE5Ii8+PGxpbmUgc3R5bGU9InN0cm9rZTojMTgxODE4O3N0cm9rZS13aWR0aDoxOyIgeDE9IjI2My44MDQiIHgyPSIyNzAuMDg2MiIgeTE9IjQzOS43ODUxIiB5Mj0iNDQ3LjU2NTUiLz48bGluZSBzdHlsZT0ic3Ryb2tlOiMxODE4MTg7c3Ryb2tlLXdpZHRoOjE7IiB4MT0iMjYzLjgwNCIgeDI9IjI1OC4wOTM4IiB5MT0iNDM5Ljc4NTEiIHkyPSI0NDcuOTk0NSIvPjxsaW5lIHN0eWxlPSJzdHJva2U6IzE4MTgxODtzdHJva2Utd2lkdGg6MTsiIHgxPSIyNjMuODA0IiB4Mj0iMjY0LjA5IiB5MT0iNDM5Ljc4NTEiIHkyPSI0NDcuNzgiLz48ZWxsaXBzZSBjeD0iMjYzLjU4OTUiIGN5PSI0MzMuNzg5IiBmaWxsPSJub25lIiByeD0iNCIgcnk9IjQiIHN0eWxlPSJzdHJva2U6IzE4MTgxODtzdHJva2Utd2lkdGg6MTsiLz48dGV4dCBmaWxsPSIjMDAwMDAwIiBmb250LWZhbWlseT0ic2Fucy1zZXJpZiIgZm9udC1zaXplPSIxMyIgbGVuZ3RoQWRqdXN0PSJzcGFjaW5nIiB0ZXh0TGVuZ3RoPSIyNiIgeD0iMjY0LjUiIHk9IjQxNi4yODkxIj5mYWl0PC90ZXh0PjwvZz48IS0tbGluayBEZW1hbmRlIHRvIERvY3VtZW50X0FjdGUtLT48ZyBjbGFzcz0ibGluayIgZGF0YS1lbnRpdHktMT0iRGVtYW5kZSIgZGF0YS1lbnRpdHktMj0iRG9jdW1lbnRfQWN0ZSIgZGF0YS1zb3VyY2UtbGluZT0iNTkiIGRhdGEtdWlkPSJsbms5IiBpZD0ibGlua19EZW1hbmRlX0RvY3VtZW50X0FjdGUiPjxwYXRoIGNvZGVMaW5lPSI1OSIgZD0iTTM3OS40MTA0LDU5MC41NjQ2IEM0MTguMzgwNCw2MTUuNjA0NiA0NDkuMTE5OSw2MzUuMzY1IDQ4OC41MTk5LDY2MC42ODUiIGZpbGw9Im5vbmUiIGlkPSJEZW1hbmRlLURvY3VtZW50X0FjdGUiIHN0eWxlPSJzdHJva2U6IzE4MTgxODtzdHJva2Utd2lkdGg6MTsiLz48bGluZSBzdHlsZT0ic3Ryb2tlOiMxODE4MTg7c3Ryb2tlLXdpZHRoOjE7IiB4MT0iMzczLjg4MjkiIHgyPSIzNzguMjA3NSIgeTE9IjU5MS43Njc1IiB5Mj0iNTg1LjAzNzEiLz48bGluZSBzdHlsZT0ic3Ryb2tlOiMxODE4MTg7c3Ryb2tlLXdpZHRoOjE7IiB4MT0iMzc2LjQwNjgiIHgyPSIzODAuNzMxNCIgeTE9IjU5My4zODkyIiB5Mj0iNTg2LjY1ODgiLz48bGluZSBzdHlsZT0ic3Ryb2tlOiMxODE4MTg7c3Ryb2tlLXdpZHRoOjE7IiB4MT0iMzc5LjQxMDQiIHgyPSIzNzIuNjgiIHkxPSI1OTAuNTY0NiIgeTI9IjU4Ni4yNCIvPjxsaW5lIHN0eWxlPSJzdHJva2U6IzE4MTgxODtzdHJva2Utd2lkdGg6MTsiIHgxPSI0OTQuMDQ3NSIgeDI9IjQ4OS43MjI0IiB5MT0iNjU5LjQ4MjQiIHkyPSI2NjYuMjEyNSIvPjxsaW5lIHN0eWxlPSJzdHJva2U6IzE4MTgxODtzdHJva2Utd2lkdGg6MTsiIHgxPSI0OTEuNTIzNyIgeDI9IjQ4Ny4xOTg3IiB5MT0iNjU3Ljg2MDYiIHkyPSI2NjQuNTkwNyIvPjxsaW5lIHN0eWxlPSJzdHJva2U6IzE4MTgxODtzdHJva2Utd2lkdGg6MTsiIHgxPSI0ODguNTE5OSIgeDI9IjQ5NS4yNSIgeTE9IjY2MC42ODUiIHkyPSI2NjUuMDEiLz48dGV4dCBmaWxsPSIjMDAwMDAwIiBmb250LWZhbWlseT0ic2Fucy1zZXJpZiIgZm9udC1zaXplPSIxMyIgbGVuZ3RoQWRqdXN0PSJzcGFjaW5nIiB0ZXh0TGVuZ3RoPSIzOSIgeD0iNDM3LjUiIHk9IjYyOS4yODkxIj5nJiMyMzM7biYjMjMyO3JlPC90ZXh0PjwvZz48IS0tbGluayBEZW1hbmRlIHRvIFBhaWVtZW50LS0+PGcgY2xhc3M9ImxpbmsiIGRhdGEtZW50aXR5LTE9IkRlbWFuZGUiIGRhdGEtZW50aXR5LTI9IlBhaWVtZW50IiBkYXRhLXNvdXJjZS1saW5lPSI2MCIgZGF0YS11aWQ9ImxuazEwIiBpZD0ibGlua19EZW1hbmRlX1BhaWVtZW50Ij48cGF0aCBjb2RlTGluZT0iNjAiIGQ9Ik0yNTQuOTk1Myw1OTQuMTUwMyBDMjUwLjY2NTMsNjIyLjgyMDMgMjQ4LjA2NDIsNjQwLjA3OTYgMjQzLjg2NDIsNjY3Ljg5OTYiIGZpbGw9Im5vbmUiIGlkPSJEZW1hbmRlLVBhaWVtZW50IiBzdHlsZT0ic3Ryb2tlOiMxODE4MTg7c3Ryb2tlLXdpZHRoOjE7Ii8+PGxpbmUgc3R5bGU9InN0cm9rZTojMTgxODE4O3N0cm9rZS13aWR0aDoxOyIgeDE9IjI1MS42Mzc1IiB4Mj0iMjU5LjU0NzgiIHkxPSI1ODkuNTk3OCIgeTI9IjU5MC43OTI1Ii8+PGxpbmUgc3R5bGU9InN0cm9rZTojMTgxODE4O3N0cm9rZS13aWR0aDoxOyIgeDE9IjI1MS4xODk1IiB4Mj0iMjU5LjA5OTgiIHkxPSI1OTIuNTY0MiIgeTI9IjU5My43NTg4Ii8+PGxpbmUgc3R5bGU9InN0cm9rZTojMTgxODE4O3N0cm9rZS13aWR0aDoxOyIgeDE9IjI1NC45OTUzIiB4Mj0iMjU2LjE5IiB5MT0iNTk0LjE1MDMiIHkyPSI1ODYuMjQiLz48bGluZSBzdHlsZT0ic3Ryb2tlOiMxODE4MTg7c3Ryb2tlLXdpZHRoOjE7IiB4MT0iMjQ3LjIyMjMiIHgyPSIyMzkuMzExOSIgeTE9IjY3Mi40NTE5IiB5Mj0iNjcxLjI1NzciLz48bGluZSBzdHlsZT0ic3Ryb2tlOiMxODE4MTg7c3Ryb2tlLXdpZHRoOjE7IiB4MT0iMjQ3LjY3MDEiIHgyPSIyMzkuNzU5OCIgeTE9IjY2OS40ODU1IiB5Mj0iNjY4LjI5MTMiLz48bGluZSBzdHlsZT0ic3Ryb2tlOiMxODE4MTg7c3Ryb2tlLXdpZHRoOjE7IiB4MT0iMjQzLjg2NDIiIHgyPSIyNDIuNjciIHkxPSI2NjcuODk5NiIgeTI9IjY3NS44MSIvPjx0ZXh0IGZpbGw9IiMwMDAwMDAiIGZvbnQtZmFtaWx5PSJzYW5zLXNlcmlmIiBmb250LXNpemU9IjEzIiBsZW5ndGhBZGp1c3Q9InNwYWNpbmciIHRleHRMZW5ndGg9IjQ1LjUiIHg9IjI1Mi41IiB5PSI2MjkuMjg5MSI+YXNzb2NpJiMyMzM7PC90ZXh0PjwvZz48IS0tbGluayBBZ2VudCB0byBEb2N1bWVudF9BY3RlLS0+PGcgY2xhc3M9ImxpbmsiIGRhdGEtZW50aXR5LTE9IkFnZW50IiBkYXRhLWVudGl0eS0yPSJEb2N1bWVudF9BY3RlIiBkYXRhLXNvdXJjZS1saW5lPSI2MSIgZGF0YS11aWQ9ImxuazExIiBpZD0ibGlua19BZ2VudF9Eb2N1bWVudF9BY3RlIj48cGF0aCBjb2RlTGluZT0iNjEiIGQ9Ik02NDcuNDAzNywxMzcuNTM5NSBDNjU3LjYzMzcsMTYwLjM0OTUgNjY0LjM4LDE3OS42MSA2NjkuNSwyMDUgQzcwMS44OSwzNjUuNTQgNjY0LjcyNDQsNTM5LjYzMSA2MzUuMzY0NCw2NDMuMzExIiBmaWxsPSJub25lIiBpZD0iQWdlbnQtRG9jdW1lbnRfQWN0ZSIgc3R5bGU9InN0cm9rZTojMTgxODE4O3N0cm9rZS13aWR0aDoxOyIvPjxsaW5lIHN0eWxlPSJzdHJva2U6IzE4MTgxODtzdHJva2Utd2lkdGg6MTsiIHgxPSI2NDIuMTE3MSIgeDI9IjY0OS40MTY2IiB5MT0iMTM1LjUyNjYiIHkyPSIxMzIuMjUyOSIvPjxsaW5lIHN0eWxlPSJzdHJva2U6IzE4MTgxODtzdHJva2Utd2lkdGg6MTsiIHgxPSI2NDMuMzQ0OCIgeDI9IjY1MC42NDQzIiB5MT0iMTM4LjI2MzkiIHkyPSIxMzQuOTkwMiIvPjxsaW5lIHN0eWxlPSJzdHJva2U6IzE4MTgxODtzdHJva2Utd2lkdGg6MTsiIHgxPSI2NDcuNDAzNyIgeDI9IjY0NC4xMyIgeTE9IjEzNy41Mzk1IiB5Mj0iMTMwLjI0Ii8+PGxpbmUgc3R5bGU9InN0cm9rZTojMTgxODE4O3N0cm9rZS13aWR0aDoxOyIgeDE9IjYzMi42Mzk3IiB4Mj0iNjM2LjIzMyIgeTE9IjY1Mi45MzI3IiB5Mj0iNjYyLjI2NDgiLz48bGluZSBzdHlsZT0ic3Ryb2tlOiMxODE4MTg7c3Ryb2tlLXdpZHRoOjE7IiB4MT0iNjMyLjYzOTciIHgyPSI2MjQuNjg3IiB5MT0iNjUyLjkzMjciIHkyPSI2NTguOTk1MiIvPjxsaW5lIHN0eWxlPSJzdHJva2U6IzE4MTgxODtzdHJva2Utd2lkdGg6MTsiIHgxPSI2MzIuNjM5NyIgeDI9IjYzMC40NiIgeTE9IjY1Mi45MzI3IiB5Mj0iNjYwLjYzIi8+PGVsbGlwc2UgY3g9IjYzNC4yNzQ1IiBjeT0iNjQ3LjE1OTciIGZpbGw9Im5vbmUiIHJ4PSI0IiByeT0iNCIgc3R5bGU9InN0cm9rZTojMTgxODE4O3N0cm9rZS13aWR0aDoxOyIvPjx0ZXh0IGZpbGw9IiMwMDAwMDAiIGZvbnQtZmFtaWx5PSJzYW5zLXNlcmlmIiBmb250LXNpemU9IjEzIiBsZW5ndGhBZGp1c3Q9InNwYWNpbmciIHRleHRMZW5ndGg9IjM5IiB4PSI2NzguNSIgeT0iNDE2LjI4OTEiPnZhbGlkZTwvdGV4dD48L2c+PCEtLWxpbmsgQWdlbnQgdG8gSGlzdG9yaXF1ZV9Nb2RpZmljYXRpb25zLS0+PGcgY2xhc3M9ImxpbmsiIGRhdGEtZW50aXR5LTE9IkFnZW50IiBkYXRhLWVudGl0eS0yPSJIaXN0b3JpcXVlX01vZGlmaWNhdGlvbnMiIGRhdGEtc291cmNlLWxpbmU9IjYyIiBkYXRhLXVpZD0ibG5rMTIiIGlkPSJsaW5rX0FnZW50X0hpc3RvcmlxdWVfTW9kaWZpY2F0aW9ucyI+PHBhdGggY29kZUxpbmU9IjYyIiBkPSJNNTgzLjU4NzEsMTM3LjQzMSBDNTczLjc0NzEsMTYwLjU1MSA1NzIuNTM4NywxNjMuMzg3NSA1NjEuOTU4NywxODguMjQ3NSIgZmlsbD0ibm9uZSIgaWQ9IkFnZW50LUhpc3RvcmlxdWVfTW9kaWZpY2F0aW9ucyIgc3R5bGU9InN0cm9rZTojMTgxODE4O3N0cm9rZS13aWR0aDoxOyIvPjxsaW5lIHN0eWxlPSJzdHJva2U6IzE4MTgxODtzdHJva2Utd2lkdGg6MTsiIHgxPSI1ODEuNDczIiB4Mj0iNTg4LjgzNDEiIHkxPSIxMzIuMTg0MSIgeTI9IjEzNS4zMTciLz48bGluZSBzdHlsZT0ic3Ryb2tlOiMxODE4MTg7c3Ryb2tlLXdpZHRoOjE7IiB4MT0iNTgwLjI5ODIiIHgyPSI1ODcuNjU5MiIgeTE9IjEzNC45NDQ1IiB5Mj0iMTM4LjA3NzQiLz48bGluZSBzdHlsZT0ic3Ryb2tlOiMxODE4MTg7c3Ryb2tlLXdpZHRoOjE7IiB4MT0iNTgzLjU4NzEiIHgyPSI1ODYuNzIiIHkxPSIxMzcuNDMxIiB5Mj0iMTMwLjA3Ii8+PGxpbmUgc3R5bGU9InN0cm9rZTojMTgxODE4O3N0cm9rZS13aWR0aDoxOyIgeDE9IjU1OC4wNDI4IiB4Mj0iNTYwLjQzMDgiIHkxPSIxOTcuNDQ4OSIgeTI9IjIwNy4xNTk2Ii8+PGxpbmUgc3R5bGU9InN0cm9rZTojMTgxODE4O3N0cm9rZS13aWR0aDoxOyIgeDE9IjU1OC4wNDI4IiB4Mj0iNTQ5LjM4OTIiIHkxPSIxOTcuNDQ4OSIgeTI9IjIwMi40NjA0Ii8+PGxpbmUgc3R5bGU9InN0cm9rZTojMTgxODE4O3N0cm9rZS13aWR0aDoxOyIgeDE9IjU1OC4wNDI4IiB4Mj0iNTU0LjkxIiB5MT0iMTk3LjQ0ODkiIHkyPSIyMDQuODEiLz48ZWxsaXBzZSBjeD0iNTYwLjM5MjMiIGN5PSIxOTEuOTI4MSIgZmlsbD0ibm9uZSIgcng9IjQiIHJ5PSI0IiBzdHlsZT0ic3Ryb2tlOiMxODE4MTg7c3Ryb2tlLXdpZHRoOjE7Ii8+PHRleHQgZmlsbD0iIzAwMDAwMCIgZm9udC1mYW1pbHk9InNhbnMtc2VyaWYiIGZvbnQtc2l6ZT0iMTMiIGxlbmd0aEFkanVzdD0ic3BhY2luZyIgdGV4dExlbmd0aD0iNDUuNSIgeD0iNTcyLjUiIHk9IjE3My4yODkxIj5tb2RpZmllPC90ZXh0PjwvZz48IS0tbGluayBIaXN0b3JpcXVlX01vZGlmaWNhdGlvbnMgdG8gRGVtYW5kZS0tPjxnIGNsYXNzPSJsaW5rIiBkYXRhLWVudGl0eS0xPSJIaXN0b3JpcXVlX01vZGlmaWNhdGlvbnMiIGRhdGEtZW50aXR5LTI9IkRlbWFuZGUiIGRhdGEtc291cmNlLWxpbmU9IjYzIiBkYXRhLXVpZD0ibG5rMTMiIGlkPSJsaW5rX0hpc3RvcmlxdWVfTW9kaWZpY2F0aW9uc19EZW1hbmRlIj48cGF0aCBjb2RlTGluZT0iNjMiIGQ9Ik00MTIuOTQ2MywzODUuMTgxOSBDMzg1LjQ3NjMsNDA5LjcyMTkgMzc1LjEyNjcsNDE4Ljk3MSAzNDguODM2Nyw0NDIuNDUxIiBmaWxsPSJub25lIiBpZD0iSGlzdG9yaXF1ZV9Nb2RpZmljYXRpb25zLURlbWFuZGUiIHN0eWxlPSJzdHJva2U6IzE4MTgxODtzdHJva2Utd2lkdGg6MTsiLz48bGluZSBzdHlsZT0ic3Ryb2tlOiMxODE4MTg7c3Ryb2tlLXdpZHRoOjE7IiB4MT0iNDIwLjQwMzkiIHgyPSI0MjIuMzcyNyIgeTE9IjM3OC41MTk3IiB5Mj0iMzY4LjcxNTQiLz48bGluZSBzdHlsZT0ic3Ryb2tlOiMxODE4MTg7c3Ryb2tlLXdpZHRoOjE7IiB4MT0iNDIwLjQwMzkiIHgyPSI0MzAuMzY3MyIgeTE9IjM3OC41MTk3IiB5Mj0iMzc3LjY2NDYiLz48bGluZSBzdHlsZT0ic3Ryb2tlOiMxODE4MTg7c3Ryb2tlLXdpZHRoOjE7IiB4MT0iNDIwLjQwMzkiIHgyPSI0MjYuMzciIHkxPSIzNzguNTE5NyIgeTI9IjM3My4xOSIvPjxlbGxpcHNlIGN4PSI0MTUuOTI5NCIgY3k9IjM4Mi41MTciIGZpbGw9Im5vbmUiIHJ4PSI0IiByeT0iNCIgc3R5bGU9InN0cm9rZTojMTgxODE4O3N0cm9rZS13aWR0aDoxOyIvPjxsaW5lIHN0eWxlPSJzdHJva2U6IzE4MTgxODtzdHJva2Utd2lkdGg6MTsiIHgxPSIzNDguNTE3OSIgeDI9IjM0My4xODg5IiB5MT0iNDQ4LjA5ODkiIHkyPSI0NDIuMTMyMSIvPjxsaW5lIHN0eWxlPSJzdHJva2U6IzE4MTgxODtzdHJva2Utd2lkdGg6MTsiIHgxPSIzNTAuNzU1NCIgeDI9IjM0NS40MjY0IiB5MT0iNDQ2LjEwMDUiIHkyPSI0NDAuMTMzOCIvPjxsaW5lIHN0eWxlPSJzdHJva2U6IzE4MTgxODtzdHJva2Utd2lkdGg6MTsiIHgxPSIzNDguODM2NyIgeDI9IjM0Mi44NyIgeTE9IjQ0Mi40NTEiIHkyPSI0NDcuNzgiLz48dGV4dCBmaWxsPSIjMDAwMDAwIiBmb250LWZhbWlseT0ic2Fucy1zZXJpZiIgZm9udC1zaXplPSIxMyIgbGVuZ3RoQWRqdXN0PSJzcGFjaW5nIiB0ZXh0TGVuZ3RoPSI1MiIgeD0iMzkzLjUiIHk9IjQxNi4yODkxIj5jb25jZXJuZTwvdGV4dD48L2c+PCEtLWxpbmsgSGlzdG9yaXF1ZV9Nb2RpZmljYXRpb25zIHRvIERvY3VtZW50X0FjdGUtLT48ZyBjbGFzcz0ibGluayIgZGF0YS1lbnRpdHktMT0iSGlzdG9yaXF1ZV9Nb2RpZmljYXRpb25zIiBkYXRhLWVudGl0eS0yPSJEb2N1bWVudF9BY3RlIiBkYXRhLXNvdXJjZS1saW5lPSI2NCIgZGF0YS11aWQ9ImxuazE0IiBpZD0ibGlua19IaXN0b3JpcXVlX01vZGlmaWNhdGlvbnNfRG9jdW1lbnRfQWN0ZSI+PHBhdGggY29kZUxpbmU9IjY0IiBkPSJNNTM5LjE1MzYsMzkwLjg2NzUgQzU1NS4yMzM2LDQ3My4zNjc1IDU3NC42Njk3LDU3My4xNTc3IDU5MC4yMTk3LDY1Mi45NDc3IiBmaWxsPSJub25lIiBpZD0iSGlzdG9yaXF1ZV9Nb2RpZmljYXRpb25zLURvY3VtZW50X0FjdGUiIHN0eWxlPSJzdHJva2U6IzE4MTgxODtzdHJva2Utd2lkdGg6MTsiLz48bGluZSBzdHlsZT0ic3Ryb2tlOiMxODE4MTg7c3Ryb2tlLXdpZHRoOjE7IiB4MT0iNTM3LjI0MDUiIHgyPSI1MjkuODIwOCIgeTE9IjM4MS4wNTIyIiB5Mj0iMzc0LjM0NzkiLz48bGluZSBzdHlsZT0ic3Ryb2tlOiMxODE4MTg7c3Ryb2tlLXdpZHRoOjE7IiB4MT0iNTM3LjI0MDUiIHgyPSI1NDEuNTk5MiIgeTE9IjM4MS4wNTIyIiB5Mj0iMzcyLjA1MjEiLz48bGluZSBzdHlsZT0ic3Ryb2tlOiMxODE4MTg7c3Ryb2tlLXdpZHRoOjE7IiB4MT0iNTM3LjI0MDUiIHgyPSI1MzUuNzEiIHkxPSIzODEuMDUyMiIgeTI9IjM3My4yIi8+PGVsbGlwc2UgY3g9IjUzOC4zODgzIiBjeT0iMzg2Ljk0MTQiIGZpbGw9Im5vbmUiIHJ4PSI0IiByeT0iNCIgc3R5bGU9InN0cm9rZTojMTgxODE4O3N0cm9rZS13aWR0aDoxOyIvPjxsaW5lIHN0eWxlPSJzdHJva2U6IzE4MTgxODtzdHJva2Utd2lkdGg6MTsiIHgxPSI1OTQuOTExIiB4Mj0iNTg3LjA1ODciIHkxPSI2NTYuMTA4NyIgeTI9IjY1Ny42MzkiLz48bGluZSBzdHlsZT0ic3Ryb2tlOiMxODE4MTg7c3Ryb2tlLXdpZHRoOjE7IiB4MT0iNTk0LjMzNzEiIHgyPSI1ODYuNDg0OCIgeTE9IjY1My4xNjQxIiB5Mj0iNjU0LjY5NDQiLz48bGluZSBzdHlsZT0ic3Ryb2tlOiMxODE4MTg7c3Ryb2tlLXdpZHRoOjE7IiB4MT0iNTkwLjIxOTciIHgyPSI1OTEuNzUiIHkxPSI2NTIuOTQ3NyIgeTI9IjY2MC44Ii8+PHRleHQgZmlsbD0iIzAwMDAwMCIgZm9udC1mYW1pbHk9InNhbnMtc2VyaWYiIGZvbnQtc2l6ZT0iMTMiIGxlbmd0aEFkanVzdD0ic3BhY2luZyIgdGV4dExlbmd0aD0iNTIiIHg9IjU3Ni41IiB5PSI1MjIuNzg5MSI+Y29uY2VybmU8L3RleHQ+PC9nPjwhLS1TUkM9W2JMREJSamltNER0aDU0SXNUSXhHZEg4dmc4NHVDNjhkY3k4R002aGkzMjJIQUthUERVQlM5cHc3QmpPWHpJNGI5cTJ4NEpIbFBaWmxwR1VhSE5qYUx4VGVySDdhNU5qQjZGa3NvRjhFT0RfUHF6Q1k4XzExTE1JaWhLUXY5dEViR093SFo1bDg3cFdRbXdLMHlaWTB5N2s0VWVHRjZNY1htUFdIREF5dWJaNm1XSDlVTnZJQ2Vqd0oxM2hRNkxIUzVYMWVUcTJXX1BjS3BWNEx5YkhPNXBRTlRTTC0zbEhjUkNhcnladHpQQ3JQRDF6Y0ltYmhvc3JqWC1ZcmdZaXE1M0FOcDZnRTVZZVlENkZGbENJWUVQRlo0TlFyeU5fdFVEM3FpLXFSNTBXd1N1Q0xqMkhON0ZxaEZTak9mMUFyU3RkQUdNZWQ4RVl5cUR1TEI4YjJEOUFrdlhzQTVtSVRoeDh4U2oyR2YxRUFVcWJJREdzSUljaHlOTy1kT3VZNGZobzNXcy1LQWU3QmxiM2hlRFI1VEk4UGxTQVdPQWdQaVFNSWJkaVcwdTRMQnByTUcxcFFwYzJmVmM0OUVJTjBTU1Bra0lPNkR3SUlld1FrRnpGTlhHempaX0FaN2NvZUJ1T0JZcWhjWS1wSjNLbHQ4eWhVXzgtWmtEWmRILWhQOENBX0RnQ3hnNTJZZUxNb0tFampORnU3bVNoRldRR01rNEYxN0xpSjY4TThvT0JGdEhFWExoU1RMOHRzUGpqa3AxMEliY1dZQ0ZORGtKWnBjQ2t1ZlFhS2o0ZUlTWmU2NGFGRTNWb25sYk5yMFNmb3dZMmpfTnNVSmpWTndlczVEVHhIUUlNendSb2Q0bmlUMHlOaWN4RGlGWkhDdXdBMVNzRUttRVFTakRod0NmRTcza3Z1T0hwcExWU2ZsRjhzOTUtNmxBa014dzE2QUJmMUJWeVhQU0FpSl9tQl0tLT48L2c+PC9zdmc+;" vertex="1" parent="1">
            <mxGeometry x="-520" y="-1120" width="755" height="820" as="geometry" />
          </mxCell>
        </UserObject>
      </root>
    </mxGraphModel>
  </diagram>
  <diagram id="v5RUUEQM3YVxHXzEs5ly" name="Method">
    <mxGraphModel dx="2507" dy="914" grid="1" gridSize="10" guides="1" tooltips="1" connect="1" arrows="1" fold="1" page="1" pageScale="1" pageWidth="827" pageHeight="1169" math="0" shadow="0">
      <root>
        <mxCell id="0" />
        <mxCell id="1" parent="0" />
        <UserObject label="" plantUmlData="{&quot;data&quot;:&quot;@startuml\nactor Citizen\nactor Agent\nrectangle \&quot;Front-End Web\&quot; {\n  Citizen -- (Formulaire de Demande)\n  Agent -- (Tableau de Bord Admin)\n}\nrectangle \&quot;Back-End Applicatif\&quot; {\n  (Gestion des Demandes) --&gt; (Signature Numérique)\n  (Paiement en Ligne) --&gt; (Facturation et Reçus)\n  (Génération PDF) --&gt; (Archivage Actes)\n}\nrectangle \&quot;Infrastructure Réseau Sécurisée\&quot; {\n  (VPN/IPSec) --&gt; (Serveur Central)\n  (Réplication Base de Données) --&gt; (Backup Offsite)\n}\n@enduml&quot;,&quot;format&quot;:&quot;svg&quot;}" id="ab19w5ynOv2QyaYBU_QT-1">
          <mxCell style="shape=image;noLabel=1;verticalAlign=top;aspect=fixed;imageAspect=0;image=data:image/svg+xml,PHN2ZyB4bWxucz0iaHR0cDovL3d3dy53My5vcmcvMjAwMC9zdmciIHhtbG5zOnhsaW5rPSJodHRwOi8vd3d3LnczLm9yZy8xOTk5L3hsaW5rIiBjb250ZW50U3R5bGVUeXBlPSJ0ZXh0L2NzcyIgZGF0YS1kaWFncmFtLXR5cGU9IkRFU0NSSVBUSU9OIiBoZWlnaHQ9IjIyNXB4IiBwcmVzZXJ2ZUFzcGVjdFJhdGlvPSJub25lIiBzdHlsZT0id2lkdGg6MTQ4M3B4O2hlaWdodDoyMjVweDtiYWNrZ3JvdW5kOiNGRkZGRkY7IiB2ZXJzaW9uPSIxLjEiIHZpZXdCb3g9IjAgMCAxNDgzIDIyNSIgd2lkdGg9IjE0ODNweCIgem9vbUFuZFBhbj0ibWFnbmlmeSI+PGRlZnMvPjxnPjwhLS1jbHVzdGVyIEZyb250LUVuZCBXZWItLT48ZyBjbGFzcz0iY2x1c3RlciIgZGF0YS1lbnRpdHk9IkZyb250LUVuZCBXZWIiIGRhdGEtc291cmNlLWxpbmU9IjMiIGRhdGEtdWlkPSJlbnQwMDA0IiBpZD0iY2x1c3Rlcl9Gcm9udC1FbmQgV2ViIj48cmVjdCBmaWxsPSJub25lIiBoZWlnaHQ9IjkwIiByeD0iMi41IiByeT0iMi41IiBzdHlsZT0ic3Ryb2tlOiMxODE4MTg7c3Ryb2tlLXdpZHRoOjE7IiB3aWR0aD0iNDMxIiB4PSI3IiB5PSIxMjkiLz48dGV4dCBmaWxsPSIjMDAwMDAwIiBmb250LWZhbWlseT0ic2Fucy1zZXJpZiIgZm9udC1zaXplPSIxNCIgZm9udC13ZWlnaHQ9ImJvbGQiIGxlbmd0aEFkanVzdD0ic3BhY2luZyIgdGV4dExlbmd0aD0iOTEiIHg9IjE3NyIgeT0iMTQ0LjIzNDQiPkZyb250LUVuZCBXZWI8L3RleHQ+PC9nPjwhLS1jbHVzdGVyIEJhY2stRW5kIEFwcGxpY2F0aWYtLT48ZyBjbGFzcz0iY2x1c3RlciIgZGF0YS1lbnRpdHk9IkJhY2stRW5kIEFwcGxpY2F0aWYiIGRhdGEtc291cmNlLWxpbmU9IjciIGRhdGEtdWlkPSJlbnQwMDA5IiBpZD0iY2x1c3Rlcl9CYWNrLUVuZCBBcHBsaWNhdGlmIj48cmVjdCBmaWxsPSJub25lIiBoZWlnaHQ9IjIwNyIgcng9IjIuNSIgcnk9IjIuNSIgc3R5bGU9InN0cm9rZTojMTgxODE4O3N0cm9rZS13aWR0aDoxOyIgd2lkdGg9IjU5MSIgeD0iNDYyIiB5PSIxMS41Ii8+PHRleHQgZmlsbD0iIzAwMDAwMCIgZm9udC1mYW1pbHk9InNhbnMtc2VyaWYiIGZvbnQtc2l6ZT0iMTQiIGZvbnQtd2VpZ2h0PSJib2xkIiBsZW5ndGhBZGp1c3Q9InNwYWNpbmciIHRleHRMZW5ndGg9IjEzMyIgeD0iNjkxIiB5PSIyNi43MzQ0Ij5CYWNrLUVuZCBBcHBsaWNhdGlmPC90ZXh0PjwvZz48IS0tY2x1c3RlciBJbmZyYXN0cnVjdHVyZSBSP3NlYXUgUz9jdXJpcz9lLS0+PGcgY2xhc3M9ImNsdXN0ZXIiIGRhdGEtZW50aXR5PSJJbmZyYXN0cnVjdHVyZSBSJiMyMzM7c2VhdSBTJiMyMzM7Y3VyaXMmIzIzMztlIiBkYXRhLXNvdXJjZS1saW5lPSIxMiIgZGF0YS11aWQ9ImVudDAwMTkiIGlkPSJjbHVzdGVyX0luZnJhc3RydWN0dXJlIFImIzIzMztzZWF1IFMmIzIzMztjdXJpcyYjMjMzO2UiPjxyZWN0IGZpbGw9Im5vbmUiIGhlaWdodD0iMjA4LjUiIHJ4PSIyLjUiIHJ5PSIyLjUiIHN0eWxlPSJzdHJva2U6IzE4MTgxODtzdHJva2Utd2lkdGg6MTsiIHdpZHRoPSI0MDAiIHg9IjEwNzciIHk9IjciLz48dGV4dCBmaWxsPSIjMDAwMDAwIiBmb250LWZhbWlseT0ic2Fucy1zZXJpZiIgZm9udC1zaXplPSIxNCIgZm9udC13ZWlnaHQ9ImJvbGQiIGxlbmd0aEFkanVzdD0ic3BhY2luZyIgdGV4dExlbmd0aD0iMjE3IiB4PSIxMTY4LjUiIHk9IjIyLjIzNDQiPkluZnJhc3RydWN0dXJlIFImIzIzMztzZWF1IFMmIzIzMztjdXJpcyYjMjMzO2U8L3RleHQ+PC9nPjxnIGNsYXNzPSJlbnRpdHkiIGRhdGEtZW50aXR5PSJGb3JtdWxhaXJlIGRlIERlbWFuZGUiIGRhdGEtc291cmNlLWxpbmU9IjQiIGRhdGEtdWlkPSJlbnQwMDA1IiBpZD0iZW50aXR5X0Zvcm11bGFpcmUgZGUgRGVtYW5kZSI+PGVsbGlwc2UgY3g9IjExMy44ODM5IiBjeT0iMTgyLjU3NjgiIGZpbGw9IiNGMUYxRjEiIHJ4PSI5MC44ODM5IiByeT0iMjAuNTc2OCIgc3R5bGU9InN0cm9rZTojMTgxODE4O3N0cm9rZS13aWR0aDowLjU7Ii8+PHRleHQgZmlsbD0iIzAwMDAwMCIgZm9udC1mYW1pbHk9InNhbnMtc2VyaWYiIGZvbnQtc2l6ZT0iMTQiIGxlbmd0aEFkanVzdD0ic3BhY2luZyIgdGV4dExlbmd0aD0iMTQ3IiB4PSI0MC4zODM5IiB5PSIxODYuMzE5Ij5Gb3JtdWxhaXJlIGRlIERlbWFuZGU8L3RleHQ+PC9nPjxnIGNsYXNzPSJlbnRpdHkiIGRhdGEtZW50aXR5PSJUYWJsZWF1IGRlIEJvcmQgQWRtaW4iIGRhdGEtc291cmNlLWxpbmU9IjUiIGRhdGEtdWlkPSJlbnQwMDA3IiBpZD0iZW50aXR5X1RhYmxlYXUgZGUgQm9yZCBBZG1pbiI+PGVsbGlwc2UgY3g9IjMzMC44ODM5IiBjeT0iMTgyLjU3NjgiIGZpbGw9IiNGMUYxRjEiIHJ4PSI5MC44ODM5IiByeT0iMjAuNTc2OCIgc3R5bGU9InN0cm9rZTojMTgxODE4O3N0cm9rZS13aWR0aDowLjU7Ii8+PHRleHQgZmlsbD0iIzAwMDAwMCIgZm9udC1mYW1pbHk9InNhbnMtc2VyaWYiIGZvbnQtc2l6ZT0iMTQiIGxlbmd0aEFkanVzdD0ic3BhY2luZyIgdGV4dExlbmd0aD0iMTQ3IiB4PSIyNTcuMzgzOSIgeT0iMTg2LjMxOSI+VGFibGVhdSBkZSBCb3JkIEFkbWluPC90ZXh0PjwvZz48ZyBjbGFzcz0iZW50aXR5IiBkYXRhLWVudGl0eT0iR2VzdGlvbiBkZXMgRGVtYW5kZXMiIGRhdGEtc291cmNlLWxpbmU9IjgiIGRhdGEtdWlkPSJlbnQwMDEwIiBpZD0iZW50aXR5X0dlc3Rpb24gZGVzIERlbWFuZGVzIj48ZWxsaXBzZSBjeD0iOTQ5LjIzMDkiIGN5PSI2NC40NDYyIiBmaWxsPSIjRjFGMUYxIiByeD0iODcuNzMwOSIgcnk9IjE5Ljk0NjIiIHN0eWxlPSJzdHJva2U6IzE4MTgxODtzdHJva2Utd2lkdGg6MC41OyIvPjx0ZXh0IGZpbGw9IiMwMDAwMDAiIGZvbnQtZmFtaWx5PSJzYW5zLXNlcmlmIiBmb250LXNpemU9IjE0IiBsZW5ndGhBZGp1c3Q9InNwYWNpbmciIHRleHRMZW5ndGg9IjE0MCIgeD0iODc5LjIzMDkiIHk9IjY4LjE4ODQiPkdlc3Rpb24gZGVzIERlbWFuZGVzPC90ZXh0PjwvZz48ZyBjbGFzcz0iZW50aXR5IiBkYXRhLWVudGl0eT0iU2lnbmF0dXJlIE51bSYjMjMzO3JpcXVlIiBkYXRhLXNvdXJjZS1saW5lPSI4IiBkYXRhLXVpZD0iZW50MDAxMSIgaWQ9ImVudGl0eV9TaWduYXR1cmUgTnVtJiMyMzM7cmlxdWUiPjxlbGxpcHNlIGN4PSI5NTMuMTA2MiIgY3k9IjE4Mi4zMjEyIiBmaWxsPSIjRjFGMUYxIiByeD0iODQuNjA2MiIgcnk9IjE5LjMyMTIiIHN0eWxlPSJzdHJva2U6IzE4MTgxODtzdHJva2Utd2lkdGg6MC41OyIvPjx0ZXh0IGZpbGw9IiMwMDAwMDAiIGZvbnQtZmFtaWx5PSJzYW5zLXNlcmlmIiBmb250LXNpemU9IjE0IiBsZW5ndGhBZGp1c3Q9InNwYWNpbmciIHRleHRMZW5ndGg9IjEzMyIgeD0iODg2LjYwNjIiIHk9IjE4Ni4wNjM0Ij5TaWduYXR1cmUgTnVtJiMyMzM7cmlxdWU8L3RleHQ+PC9nPjxnIGNsYXNzPSJlbnRpdHkiIGRhdGEtZW50aXR5PSJQYWllbWVudCBlbiBMaWduZSIgZGF0YS1zb3VyY2UtbGluZT0iOSIgZGF0YS11aWQ9ImVudDAwMTMiIGlkPSJlbnRpdHlfUGFpZW1lbnQgZW4gTGlnbmUiPjxlbGxpcHNlIGN4PSI3NDUuOTU1OCIgY3k9IjY0LjU5MTIiIGZpbGw9IiNGMUYxRjEiIHJ4PSI3OC40NTU4IiByeT0iMTguMDkxMiIgc3R5bGU9InN0cm9rZTojMTgxODE4O3N0cm9rZS13aWR0aDowLjU7Ii8+PHRleHQgZmlsbD0iIzAwMDAwMCIgZm9udC1mYW1pbHk9InNhbnMtc2VyaWYiIGZvbnQtc2l6ZT0iMTQiIGxlbmd0aEFkanVzdD0ic3BhY2luZyIgdGV4dExlbmd0aD0iMTE5IiB4PSI2ODYuNDU1OCIgeT0iNjguMzMzMyI+UGFpZW1lbnQgZW4gTGlnbmU8L3RleHQ+PC9nPjxnIGNsYXNzPSJlbnRpdHkiIGRhdGEtZW50aXR5PSJGYWN0dXJhdGlvbiBldCBSZSYjMjMxO3VzIiBkYXRhLXNvdXJjZS1saW5lPSI5IiBkYXRhLXVpZD0iZW50MDAxNCIgaWQ9ImVudGl0eV9GYWN0dXJhdGlvbiBldCBSZSYjMjMxO3VzIj48ZWxsaXBzZSBjeD0iNzQ2LjIzMDkiIGN5PSIxODIuNDQ2MiIgZmlsbD0iI0YxRjFGMSIgcng9Ijg3LjczMDkiIHJ5PSIxOS45NDYyIiBzdHlsZT0ic3Ryb2tlOiMxODE4MTg7c3Ryb2tlLXdpZHRoOjAuNTsiLz48dGV4dCBmaWxsPSIjMDAwMDAwIiBmb250LWZhbWlseT0ic2Fucy1zZXJpZiIgZm9udC1zaXplPSIxNCIgbGVuZ3RoQWRqdXN0PSJzcGFjaW5nIiB0ZXh0TGVuZ3RoPSIxNDAiIHg9IjY3Ni4yMzA5IiB5PSIxODYuMTg4NCI+RmFjdHVyYXRpb24gZXQgUmUmIzIzMTt1czwvdGV4dD48L2c+PGcgY2xhc3M9ImVudGl0eSIgZGF0YS1lbnRpdHk9IkcmIzIzMztuJiMyMzM7cmF0aW9uIFBERiIgZGF0YS1zb3VyY2UtbGluZT0iMTAiIGRhdGEtdWlkPSJlbnQwMDE2IiBpZD0iZW50aXR5X0cmIzIzMztuJiMyMzM7cmF0aW9uIFBERiI+PGVsbGlwc2UgY3g9IjU1MS4wNDU2IiBjeT0iNjQuMzA5MSIgZmlsbD0iI0YxRjFGMSIgcng9IjY5LjU0NTYiIHJ5PSIxNi4zMDkxIiBzdHlsZT0ic3Ryb2tlOiMxODE4MTg7c3Ryb2tlLXdpZHRoOjAuNTsiLz48dGV4dCBmaWxsPSIjMDAwMDAwIiBmb250LWZhbWlseT0ic2Fucy1zZXJpZiIgZm9udC1zaXplPSIxNCIgbGVuZ3RoQWRqdXN0PSJzcGFjaW5nIiB0ZXh0TGVuZ3RoPSI5OCIgeD0iNTAyLjA0NTYiIHk9IjY4LjA1MTMiPkcmIzIzMztuJiMyMzM7cmF0aW9uIFBERjwvdGV4dD48L2c+PGcgY2xhc3M9ImVudGl0eSIgZGF0YS1lbnRpdHk9IkFyY2hpdmFnZSBBY3RlcyIgZGF0YS1zb3VyY2UtbGluZT0iMTAiIGRhdGEtdWlkPSJlbnQwMDE3IiBpZD0iZW50aXR5X0FyY2hpdmFnZSBBY3RlcyI+PGVsbGlwc2UgY3g9IjU1MC45NjYzIiBjeT0iMTgyLjM5MzMiIGZpbGw9IiNGMUYxRjEiIHJ4PSI3Mi40NjYzIiByeT0iMTYuODkzMyIgc3R5bGU9InN0cm9rZTojMTgxODE4O3N0cm9rZS13aWR0aDowLjU7Ii8+PHRleHQgZmlsbD0iIzAwMDAwMCIgZm9udC1mYW1pbHk9InNhbnMtc2VyaWYiIGZvbnQtc2l6ZT0iMTQiIGxlbmd0aEFkanVzdD0ic3BhY2luZyIgdGV4dExlbmd0aD0iMTA1IiB4PSI0OTguNDY2MyIgeT0iMTg2LjEzNTUiPkFyY2hpdmFnZSBBY3RlczwvdGV4dD48L2c+PGcgY2xhc3M9ImVudGl0eSIgZGF0YS1lbnRpdHk9IlZQTi9JUFNlYyIgZGF0YS1zb3VyY2UtbGluZT0iMTMiIGRhdGEtdWlkPSJlbnQwMDIwIiBpZD0iZW50aXR5X1ZQTi9JUFNlYyI+PGVsbGlwc2UgY3g9IjE0MDUuMDA1NCIgY3k9IjY0LjYwMTEiIGZpbGw9IiNGMUYxRjEiIHJ4PSI1Ni4wMDU0IiByeT0iMTMuNjAxMSIgc3R5bGU9InN0cm9rZTojMTgxODE4O3N0cm9rZS13aWR0aDowLjU7Ii8+PHRleHQgZmlsbD0iIzAwMDAwMCIgZm9udC1mYW1pbHk9InNhbnMtc2VyaWYiIGZvbnQtc2l6ZT0iMTQiIGxlbmd0aEFkanVzdD0ic3BhY2luZyIgdGV4dExlbmd0aD0iNjMiIHg9IjEzNzMuNTA1NCIgeT0iNjguMzQzMyI+VlBOL0lQU2VjPC90ZXh0PjwvZz48ZyBjbGFzcz0iZW50aXR5IiBkYXRhLWVudGl0eT0iU2VydmV1ciBDZW50cmFsIiBkYXRhLXNvdXJjZS1saW5lPSIxMyIgZGF0YS11aWQ9ImVudDAwMjEiIGlkPSJlbnRpdHlfU2VydmV1ciBDZW50cmFsIj48ZWxsaXBzZSBjeD0iMTM4Ny45NjYzIiBjeT0iMTgyLjM5MzMiIGZpbGw9IiNGMUYxRjEiIHJ4PSI3Mi40NjYzIiByeT0iMTYuODkzMyIgc3R5bGU9InN0cm9rZTojMTgxODE4O3N0cm9rZS13aWR0aDowLjU7Ii8+PHRleHQgZmlsbD0iIzAwMDAwMCIgZm9udC1mYW1pbHk9InNhbnMtc2VyaWYiIGZvbnQtc2l6ZT0iMTQiIGxlbmd0aEFkanVzdD0ic3BhY2luZyIgdGV4dExlbmd0aD0iMTA1IiB4PSIxMzM1LjQ2NjMiIHk9IjE4Ni4xMzU1Ij5TZXJ2ZXVyIENlbnRyYWw8L3RleHQ+PC9nPjxnIGNsYXNzPSJlbnRpdHkiIGRhdGEtZW50aXR5PSJSJiMyMzM7cGxpY2F0aW9uIEJhc2UgZGUgRG9ubiYjMjMzO2VzIiBkYXRhLXNvdXJjZS1saW5lPSIxNCIgZGF0YS11aWQ9ImVudDAwMjMiIGlkPSJlbnRpdHlfUiYjMjMzO3BsaWNhdGlvbiBCYXNlIGRlIERvbm4mIzIzMztlcyI+PGVsbGlwc2UgY3g9IjEyMDIuNzU0NyIgY3k9IjY0LjQ1MDkiIGZpbGw9IiNGMUYxRjEiIHJ4PSIxMTAuMjU0NyIgcnk9IjI0LjQ1MDkiIHN0eWxlPSJzdHJva2U6IzE4MTgxODtzdHJva2Utd2lkdGg6MC41OyIvPjx0ZXh0IGZpbGw9IiMwMDAwMDAiIGZvbnQtZmFtaWx5PSJzYW5zLXNlcmlmIiBmb250LXNpemU9IjE0IiBsZW5ndGhBZGp1c3Q9InNwYWNpbmciIHRleHRMZW5ndGg9IjE4OSIgeD0iMTEwOC4yNTQ3IiB5PSI2OC4xOTMxIj5SJiMyMzM7cGxpY2F0aW9uIEJhc2UgZGUgRG9ubiYjMjMzO2VzPC90ZXh0PjwvZz48ZyBjbGFzcz0iZW50aXR5IiBkYXRhLWVudGl0eT0iQmFja3VwIE9mZnNpdGUiIGRhdGEtc291cmNlLWxpbmU9IjE0IiBkYXRhLXVpZD0iZW50MDAyNCIgaWQ9ImVudGl0eV9CYWNrdXAgT2Zmc2l0ZSI+PGVsbGlwc2UgY3g9IjEyMDMuMDQ1NiIgY3k9IjE4Mi4zMDkxIiBmaWxsPSIjRjFGMUYxIiByeD0iNjkuNTQ1NiIgcnk9IjE2LjMwOTEiIHN0eWxlPSJzdHJva2U6IzE4MTgxODtzdHJva2Utd2lkdGg6MC41OyIvPjx0ZXh0IGZpbGw9IiMwMDAwMDAiIGZvbnQtZmFtaWx5PSJzYW5zLXNlcmlmIiBmb250LXNpemU9IjE0IiBsZW5ndGhBZGp1c3Q9InNwYWNpbmciIHRleHRMZW5ndGg9Ijk4IiB4PSIxMTU0LjA0NTYiIHk9IjE4Ni4wNTEzIj5CYWNrdXAgT2Zmc2l0ZTwvdGV4dD48L2c+PCEtLWVudGl0eSBDaXRpemVuLS0+PGcgY2xhc3M9ImVudGl0eSIgZGF0YS1lbnRpdHk9IkNpdGl6ZW4iIGRhdGEtc291cmNlLWxpbmU9IjEiIGRhdGEtdWlkPSJlbnQwMDAyIiBpZD0iZW50aXR5X0NpdGl6ZW4iPjxlbGxpcHNlIGN4PSIxMTQiIGN5PSIzNS41IiBmaWxsPSIjRjFGMUYxIiByeD0iOCIgcnk9IjgiIHN0eWxlPSJzdHJva2U6IzE4MTgxODtzdHJva2Utd2lkdGg6MC41OyIvPjxwYXRoIGQ9Ik0xMTQsNDMuNSBMMTE0LDcwLjUgTTEwMSw1MS41IEwxMjcsNTEuNSBNMTE0LDcwLjUgTDEwMSw4NS41IE0xMTQsNzAuNSBMMTI3LDg1LjUiIGZpbGw9Im5vbmUiIHN0eWxlPSJzdHJva2U6IzE4MTgxODtzdHJva2Utd2lkdGg6MC41OyIvPjx0ZXh0IGZpbGw9IiMwMDAwMDAiIGZvbnQtZmFtaWx5PSJzYW5zLXNlcmlmIiBmb250LXNpemU9IjE0IiBsZW5ndGhBZGp1c3Q9InNwYWNpbmciIHRleHRMZW5ndGg9IjQ5IiB4PSI4OS41IiB5PSIxMDAuMjM0NCI+Q2l0aXplbjwvdGV4dD48L2c+PCEtLWVudGl0eSBBZ2VudC0tPjxnIGNsYXNzPSJlbnRpdHkiIGRhdGEtZW50aXR5PSJBZ2VudCIgZGF0YS1zb3VyY2UtbGluZT0iMiIgZGF0YS11aWQ9ImVudDAwMDMiIGlkPSJlbnRpdHlfQWdlbnQiPjxlbGxpcHNlIGN4PSIzMzEiIGN5PSIzNS41IiBmaWxsPSIjRjFGMUYxIiByeD0iOCIgcnk9IjgiIHN0eWxlPSJzdHJva2U6IzE4MTgxODtzdHJva2Utd2lkdGg6MC41OyIvPjxwYXRoIGQ9Ik0zMzEsNDMuNSBMMzMxLDcwLjUgTTMxOCw1MS41IEwzNDQsNTEuNSBNMzMxLDcwLjUgTDMxOCw4NS41IE0zMzEsNzAuNSBMMzQ0LDg1LjUiIGZpbGw9Im5vbmUiIHN0eWxlPSJzdHJva2U6IzE4MTgxODtzdHJva2Utd2lkdGg6MC41OyIvPjx0ZXh0IGZpbGw9IiMwMDAwMDAiIGZvbnQtZmFtaWx5PSJzYW5zLXNlcmlmIiBmb250LXNpemU9IjE0IiBsZW5ndGhBZGp1c3Q9InNwYWNpbmciIHRleHRMZW5ndGg9IjM1IiB4PSIzMTMuNSIgeT0iMTAwLjIzNDQiPkFnZW50PC90ZXh0PjwvZz48IS0tbGluayBDaXRpemVuIHRvIEZvcm11bGFpcmUgZGUgRGVtYW5kZS0tPjxnIGNsYXNzPSJsaW5rIiBkYXRhLWVudGl0eS0xPSJDaXRpemVuIiBkYXRhLWVudGl0eS0yPSJGb3JtdWxhaXJlIGRlIERlbWFuZGUiIGRhdGEtc291cmNlLWxpbmU9IjQiIGRhdGEtdWlkPSJsbms2IiBpZD0ibGlua19DaXRpemVuX0Zvcm11bGFpcmUgZGUgRGVtYW5kZSI+PHBhdGggZD0iTTExNCwxMDIuMiBDMTE0LDEyMS45OCAxMTQsMTQ1LjYgMTE0LDE2MS44OSIgZmlsbD0ibm9uZSIgaWQ9IkNpdGl6ZW4tRm9ybXVsYWlyZSBkZSBEZW1hbmRlIiBzdHlsZT0ic3Ryb2tlOiMxODE4MTg7c3Ryb2tlLXdpZHRoOjE7Ii8+PC9nPjwhLS1saW5rIEFnZW50IHRvIFRhYmxlYXUgZGUgQm9yZCBBZG1pbi0tPjxnIGNsYXNzPSJsaW5rIiBkYXRhLWVudGl0eS0xPSJBZ2VudCIgZGF0YS1lbnRpdHktMj0iVGFibGVhdSBkZSBCb3JkIEFkbWluIiBkYXRhLXNvdXJjZS1saW5lPSI1IiBkYXRhLXVpZD0ibG5rOCIgaWQ9ImxpbmtfQWdlbnRfVGFibGVhdSBkZSBCb3JkIEFkbWluIj48cGF0aCBkPSJNMzMxLDEwMi4yIEMzMzEsMTIxLjk4IDMzMSwxNDUuNiAzMzEsMTYxLjg5IiBmaWxsPSJub25lIiBpZD0iQWdlbnQtVGFibGVhdSBkZSBCb3JkIEFkbWluIiBzdHlsZT0ic3Ryb2tlOiMxODE4MTg7c3Ryb2tlLXdpZHRoOjE7Ii8+PC9nPjwhLS1saW5rIEdlc3Rpb24gZGVzIERlbWFuZGVzIHRvIFNpZ25hdHVyZSBOdW0/cmlxdWUtLT48ZyBjbGFzcz0ibGluayIgZGF0YS1lbnRpdHktMT0iR2VzdGlvbiBkZXMgRGVtYW5kZXMiIGRhdGEtZW50aXR5LTI9IlNpZ25hdHVyZSBOdW0mIzIzMztyaXF1ZSIgZGF0YS1zb3VyY2UtbGluZT0iOCIgZGF0YS11aWQ9ImxuazEyIiBpZD0ibGlua19HZXN0aW9uIGRlcyBEZW1hbmRlc19TaWduYXR1cmUgTnVtJiMyMzM7cmlxdWUiPjxwYXRoIGQ9Ik05NDkuNjYsODQuNjYgQzk1MC40MSwxMDYuMjggOTUxLjQwMzMsMTM1LjIzMzYgOTUyLjE0MzMsMTU2LjcwMzYiIGZpbGw9Im5vbmUiIGlkPSJHZXN0aW9uIGRlcyBEZW1hbmRlcy10by1TaWduYXR1cmUgTnVtJiMyMzM7cmlxdWUiIHN0eWxlPSJzdHJva2U6IzE4MTgxODtzdHJva2Utd2lkdGg6MTsiLz48cG9seWdvbiBmaWxsPSIjMTgxODE4IiBwb2ludHM9Ijk1Mi4zNSwxNjIuNyw5NTYuMDM3NiwxNTMuNTY3Niw5NTIuMTc3OCwxNTcuNzAzLDk0OC4wNDI0LDE1My44NDMxLDk1Mi4zNSwxNjIuNyIgc3R5bGU9InN0cm9rZTojMTgxODE4O3N0cm9rZS13aWR0aDoxOyIvPjwvZz48IS0tbGluayBQYWllbWVudCBlbiBMaWduZSB0byBGYWN0dXJhdGlvbiBldCBSZT91cy0tPjxnIGNsYXNzPSJsaW5rIiBkYXRhLWVudGl0eS0xPSJQYWllbWVudCBlbiBMaWduZSIgZGF0YS1lbnRpdHktMj0iRmFjdHVyYXRpb24gZXQgUmUmIzIzMTt1cyIgZGF0YS1zb3VyY2UtbGluZT0iOSIgZGF0YS11aWQ9ImxuazE1IiBpZD0ibGlua19QYWllbWVudCBlbiBMaWduZV9GYWN0dXJhdGlvbiBldCBSZSYjMjMxO3VzIj48cGF0aCBkPSJNNzQ2LDgyLjYyIEM3NDYsMTAzLjkyIDc0NiwxMzQuMTkgNzQ2LDE1Ni4zOCIgZmlsbD0ibm9uZSIgaWQ9IlBhaWVtZW50IGVuIExpZ25lLXRvLUZhY3R1cmF0aW9uIGV0IFJlJiMyMzE7dXMiIHN0eWxlPSJzdHJva2U6IzE4MTgxODtzdHJva2Utd2lkdGg6MTsiLz48cG9seWdvbiBmaWxsPSIjMTgxODE4IiBwb2ludHM9Ijc0NiwxNjIuMzgsNzUwLDE1My4zOCw3NDYsMTU3LjM4LDc0MiwxNTMuMzgsNzQ2LDE2Mi4zOCIgc3R5bGU9InN0cm9rZTojMTgxODE4O3N0cm9rZS13aWR0aDoxOyIvPjwvZz48IS0tbGluayBHP24/cmF0aW9uIFBERiB0byBBcmNoaXZhZ2UgQWN0ZXMtLT48ZyBjbGFzcz0ibGluayIgZGF0YS1lbnRpdHktMT0iRyYjMjMzO24mIzIzMztyYXRpb24gUERGIiBkYXRhLWVudGl0eS0yPSJBcmNoaXZhZ2UgQWN0ZXMiIGRhdGEtc291cmNlLWxpbmU9IjEwIiBkYXRhLXVpZD0ibG5rMTgiIGlkPSJsaW5rX0cmIzIzMztuJiMyMzM7cmF0aW9uIFBERl9BcmNoaXZhZ2UgQWN0ZXMiPjxwYXRoIGQ9Ik01NTEsODEuMTQgQzU1MSwxMDMuMTYgNTUxLDEzNy4wOCA1NTEsMTU5LjM2IiBmaWxsPSJub25lIiBpZD0iRyYjMjMzO24mIzIzMztyYXRpb24gUERGLXRvLUFyY2hpdmFnZSBBY3RlcyIgc3R5bGU9InN0cm9rZTojMTgxODE4O3N0cm9rZS13aWR0aDoxOyIvPjxwb2x5Z29uIGZpbGw9IiMxODE4MTgiIHBvaW50cz0iNTUxLDE2NS4zNiw1NTUsMTU2LjM2LDU1MSwxNjAuMzYsNTQ3LDE1Ni4zNiw1NTEsMTY1LjM2IiBzdHlsZT0ic3Ryb2tlOiMxODE4MTg7c3Ryb2tlLXdpZHRoOjE7Ii8+PC9nPjwhLS1saW5rIFZQTi9JUFNlYyB0byBTZXJ2ZXVyIENlbnRyYWwtLT48ZyBjbGFzcz0ibGluayIgZGF0YS1lbnRpdHktMT0iVlBOL0lQU2VjIiBkYXRhLWVudGl0eS0yPSJTZXJ2ZXVyIENlbnRyYWwiIGRhdGEtc291cmNlLWxpbmU9IjEzIiBkYXRhLXVpZD0ibG5rMjIiIGlkPSJsaW5rX1ZQTi9JUFNlY19TZXJ2ZXVyIENlbnRyYWwiPjxwYXRoIGQ9Ik0xNDAzLjEyLDc4LjM2IEMxNDAwLDk5LjU5IDEzOTQuNjU5NiwxMzYuMDIzMyAxMzkxLjI0OTYsMTU5LjMwMzMiIGZpbGw9Im5vbmUiIGlkPSJWUE4vSVBTZWMtdG8tU2VydmV1ciBDZW50cmFsIiBzdHlsZT0ic3Ryb2tlOiMxODE4MTg7c3Ryb2tlLXdpZHRoOjE7Ii8+PHBvbHlnb24gZmlsbD0iIzE4MTgxOCIgcG9pbnRzPSIxMzkwLjM4LDE2NS4yNCwxMzk1LjY0MjEsMTU2LjkxNDcsMTM5MS4xMDQ3LDE2MC4yOTI4LDEzODcuNzI2NiwxNTUuNzU1MywxMzkwLjM4LDE2NS4yNCIgc3R5bGU9InN0cm9rZTojMTgxODE4O3N0cm9rZS13aWR0aDoxOyIvPjwvZz48IS0tbGluayBSP3BsaWNhdGlvbiBCYXNlIGRlIERvbm4/ZXMgdG8gQmFja3VwIE9mZnNpdGUtLT48ZyBjbGFzcz0ibGluayIgZGF0YS1lbnRpdHktMT0iUiYjMjMzO3BsaWNhdGlvbiBCYXNlIGRlIERvbm4mIzIzMztlcyIgZGF0YS1lbnRpdHktMj0iQmFja3VwIE9mZnNpdGUiIGRhdGEtc291cmNlLWxpbmU9IjE0IiBkYXRhLXVpZD0ibG5rMjUiIGlkPSJsaW5rX1ImIzIzMztwbGljYXRpb24gQmFzZSBkZSBEb25uJiMyMzM7ZXNfQmFja3VwIE9mZnNpdGUiPjxwYXRoIGQ9Ik0xMjAzLDg5LjI1IEMxMjAzLDExMi4xOSAxMjAzLDE0MC4yNSAxMjAzLDE1OS45MyIgZmlsbD0ibm9uZSIgaWQ9IlImIzIzMztwbGljYXRpb24gQmFzZSBkZSBEb25uJiMyMzM7ZXMtdG8tQmFja3VwIE9mZnNpdGUiIHN0eWxlPSJzdHJva2U6IzE4MTgxODtzdHJva2Utd2lkdGg6MTsiLz48cG9seWdvbiBmaWxsPSIjMTgxODE4IiBwb2ludHM9IjEyMDMsMTY1LjkzLDEyMDcsMTU2LjkzLDEyMDMsMTYwLjkzLDExOTksMTU2LjkzLDEyMDMsMTY1LjkzIiBzdHlsZT0ic3Ryb2tlOiMxODE4MTg7c3Ryb2tlLXdpZHRoOjE7Ii8+PC9nPjwhLS1TUkM9W0xQMTFKaUQwMzROdEVPTkxMUmdlazA1SUlhYkwyUE1lSFIxczlxdmdhS29BUHdPQktDLTNTZXZTMzZVUThiWFF6bF9fVlFGbmRTMDNVX3VhY3MyU2lmZ2lKdUlDSHJpdDFCRFNFa2lOWnhRNERwaEN1MmsxY204TTJxWnBKamhHODBqMUlSMlk1Y3I5U3BzQUhsN2ExR3lET0hadG9xdkFvQ2dNeEpvdl80clBlZGNGOFRkZnJCMTFwektyQXJzSnl6blBMUmtSbFBraHhwc2FVd3VqLWczSHN6MEVsVjE3WUQ1ZldLcGo2QS1HSnRmNGFvM05aYTRtLWY2NzdHdFZtS041VWtZakVibk5uSWdWMTljTzh2LW45aVlDcnpwX3ExalIySmVsbUtJOHRUMnhpVVQtdzRxR1RhREZLdVZOT2RrdEFWUGFSazBhUG1od1VjS0tSMkExZ2dWY0loMTRUX3JkUG5OaGpfM3VmTjIydndmb3hCTmd2R1MwXS0tPjwvZz48L3N2Zz4=;" vertex="1" parent="1">
            <mxGeometry x="-820" y="30" width="1483" height="225" as="geometry" />
          </mxCell>
        </UserObject>
      </root>
    </mxGraphModel>
  </diagram>
  <diagram id="h6AwscADPinTSKu6glzX" name="modélisation de la base de données">
    <mxGraphModel dx="1871" dy="1827" grid="1" gridSize="10" guides="1" tooltips="1" connect="1" arrows="1" fold="1" page="1" pageScale="1" pageWidth="827" pageHeight="1169" math="0" shadow="0">
      <root>
        <mxCell id="0" />
        <mxCell id="1" parent="0" />
        <UserObject label="" plantUmlData="{&quot;data&quot;:&quot;@startuml\nentity \&quot;Citoyen\&quot; {\n  +ID_Citoyen : UUID\n  Nom : String\n  Prenom : String\n  Date_Naissance : Date\n  Lieu_Naissance : String\n  Adresse : String\n  Email : String\n  Telephone : String\n}\n\nentity \&quot;Demande\&quot; {\n  +ID_Demande : UUID\n  ID_Citoyen : UUID\n  Type_Acte : Enum [Naissance, Mariage, Décès]\n  Statut : Enum [Soumise, En traitement, Validée, Refusée, Livrée]\n  Date_Demande : DateTime\n  ID_Paiement : UUID\n}\n\nentity \&quot;Document_Acte\&quot; {\n  +ID_Acte : UUID\n  ID_Demande : UUID\n  Date_Delivrance : DateTime\n  Fichier_PDF : Lien\n  Signature_Numerique : String\n  Est_Archive : Boolean\n  Date_Archivage : DateTime\n}\n\nentity \&quot;Paiement\&quot; {\n  +ID_Paiement : UUID\n  Montant : Decimal\n  Mode_Paiement : Enum [Mobile_Money, Carte_Bancaire, Virement]\n  Date_Paiement : DateTime\n  Transaction_ID : String\n}\n\nentity \&quot;Agent\&quot; {\n  +ID_Agent : UUID\n  Nom : String\n  Prenom : String\n  Email : String\n  Role : Enum [Agent, Administrateur]\n}\n\nentity \&quot;Historique_Modifications\&quot; {\n  +ID_Historique : UUID\n  Type_Entite : Enum [Demande, Acte]\n  ID_Entite : UUID\n  ID_Agent : UUID\n  Action : String\n  Date_Modification : DateTime\n  Ancienne_Valeur : Text\n  Nouvelle_Valeur : Text\n}\n\nCitoyen ||--o{ Demande : fait\nDemande ||--|| Document_Acte : génère\nDemande ||--|| Paiement : associé\nAgent ||--o{ Document_Acte : valide\nAgent ||--o{ Historique_Modifications : modifie\nHistorique_Modifications }o--|| Demande : concerne\nHistorique_Modifications }o--|| Document_Acte : concerne\n@enduml&quot;,&quot;format&quot;:&quot;svg&quot;}" id="o21O0w2ipZvnw-wD-3_c-1">
          <mxCell style="shape=image;noLabel=1;verticalAlign=top;aspect=fixed;imageAspect=0;image=data:image/svg+xml,PHN2ZyB4bWxucz0iaHR0cDovL3d3dy53My5vcmcvMjAwMC9zdmciIHhtbG5zOnhsaW5rPSJodHRwOi8vd3d3LnczLm9yZy8xOTk5L3hsaW5rIiBjb250ZW50U3R5bGVUeXBlPSJ0ZXh0L2NzcyIgZGF0YS1kaWFncmFtLXR5cGU9IkNMQVNTIiBoZWlnaHQ9IjgyMHB4IiBwcmVzZXJ2ZUFzcGVjdFJhdGlvPSJub25lIiBzdHlsZT0id2lkdGg6NzU1cHg7aGVpZ2h0OjgyMHB4O2JhY2tncm91bmQ6I0ZGRkZGRjsiIHZlcnNpb249IjEuMSIgdmlld0JveD0iMCAwIDc1NSA4MjAiIHdpZHRoPSI3NTVweCIgem9vbUFuZFBhbj0ibWFnbmlmeSI+PGRlZnMvPjxnPjwhLS1jbGFzcyBDaXRveWVuLS0+PGcgY2xhc3M9ImVudGl0eSIgZGF0YS1lbnRpdHk9IkNpdG95ZW4iIGRhdGEtc291cmNlLWxpbmU9IjEiIGRhdGEtdWlkPSJlbnQwMDAyIiBpZD0iZW50aXR5X0NpdG95ZW4iPjxyZWN0IGZpbGw9IiNGMUYxRjEiIGhlaWdodD0iMTY3Ljg3NSIgcng9IjIuNSIgcnk9IjIuNSIgc3R5bGU9InN0cm9rZTojMTgxODE4O3N0cm9rZS13aWR0aDowLjU7IiB3aWR0aD0iMTg3IiB4PSIxNjUiIHk9IjIwNSIvPjxlbGxpcHNlIGN4PSIyMjkuNzUiIGN5PSIyMjEiIGZpbGw9IiNBREQxQjIiIHJ4PSIxMSIgcnk9IjExIiBzdHlsZT0ic3Ryb2tlOiMxODE4MTg7c3Ryb2tlLXdpZHRoOjE7Ii8+PHBhdGggZD0iTTIzMy4zNzUsMjI3IEwyMzMuMzc1LDIyNS4yNSBMMjI4LjA2MjUsMjI1LjI1IFEyMjguMDYyNSwyMjUuMjUgMjI4LjA2MjUsMjIxLjY4NzUgTDIzMi4zMTI1LDIyMS42ODc1IEwyMzIuMzEyNSwyMTkuOTM3NSBMMjI4LjA2MjUsMjE5LjkzNzUgTDIyOC4wNjI1LDIxNy40Mzc1IEwyMzMuMzc1LDIxNy40Mzc1IEwyMzMuMzc1LDIxNS42ODc1IEwyMjYuMzEyNSwyMTUuNjg3NSBRMjI2LjMxMjUsMjE1LjY4NzUgMjI2LjMxMjUsMjI3IEwyMzMuMzc1LDIyNyBaICIgZmlsbD0iIzAwMDAwMCIvPjx0ZXh0IGZpbGw9IiMwMDAwMDAiIGZvbnQtZmFtaWx5PSJzYW5zLXNlcmlmIiBmb250LXNpemU9IjE0IiBsZW5ndGhBZGp1c3Q9InNwYWNpbmciIHRleHRMZW5ndGg9IjQ5IiB4PSIyNTAuMjUiIHk9IjIyNi43NDIyIj5DaXRveWVuPC90ZXh0PjxsaW5lIHN0eWxlPSJzdHJva2U6IzE4MTgxODtzdHJva2Utd2lkdGg6MC41OyIgeDE9IjE2NiIgeDI9IjM1MSIgeTE9IjIzNyIgeTI9IjIzNyIvPjxlbGxpcHNlIGN4PSIxNzYiIGN5PSIyNDkuOTkyMiIgZmlsbD0ibm9uZSIgcng9IjMiIHJ5PSIzIiBzdHlsZT0ic3Ryb2tlOiMwMzgwNDg7c3Ryb2tlLXdpZHRoOjE7Ii8+PHRleHQgZmlsbD0iIzAwMDAwMCIgZm9udC1mYW1pbHk9InNhbnMtc2VyaWYiIGZvbnQtc2l6ZT0iMTQiIGxlbmd0aEFkanVzdD0ic3BhY2luZyIgdGV4dExlbmd0aD0iMTE5IiB4PSIxODUiIHk9IjI1NC4yMzQ0Ij5JRF9DaXRveWVuIDogVVVJRDwvdGV4dD48dGV4dCBmaWxsPSIjMDAwMDAwIiBmb250LWZhbWlseT0ic2Fucy1zZXJpZiIgZm9udC1zaXplPSIxNCIgbGVuZ3RoQWRqdXN0PSJzcGFjaW5nIiB0ZXh0TGVuZ3RoPSI4NCIgeD0iMTg1IiB5PSIyNjkuMjE4OCI+Tm9tIDogU3RyaW5nPC90ZXh0Pjx0ZXh0IGZpbGw9IiMwMDAwMDAiIGZvbnQtZmFtaWx5PSJzYW5zLXNlcmlmIiBmb250LXNpemU9IjE0IiBsZW5ndGhBZGp1c3Q9InNwYWNpbmciIHRleHRMZW5ndGg9IjEwNSIgeD0iMTg1IiB5PSIyODQuMjAzMSI+UHJlbm9tIDogU3RyaW5nPC90ZXh0Pjx0ZXh0IGZpbGw9IiMwMDAwMDAiIGZvbnQtZmFtaWx5PSJzYW5zLXNlcmlmIiBmb250LXNpemU9IjE0IiBsZW5ndGhBZGp1c3Q9InNwYWNpbmciIHRleHRMZW5ndGg9IjE0NyIgeD0iMTg1IiB5PSIyOTkuMTg3NSI+RGF0ZV9OYWlzc2FuY2UgOiBEYXRlPC90ZXh0Pjx0ZXh0IGZpbGw9IiMwMDAwMDAiIGZvbnQtZmFtaWx5PSJzYW5zLXNlcmlmIiBmb250LXNpemU9IjE0IiBsZW5ndGhBZGp1c3Q9InNwYWNpbmciIHRleHRMZW5ndGg9IjE2MSIgeD0iMTg1IiB5PSIzMTQuMTcxOSI+TGlldV9OYWlzc2FuY2UgOiBTdHJpbmc8L3RleHQ+PHRleHQgZmlsbD0iIzAwMDAwMCIgZm9udC1mYW1pbHk9InNhbnMtc2VyaWYiIGZvbnQtc2l6ZT0iMTQiIGxlbmd0aEFkanVzdD0ic3BhY2luZyIgdGV4dExlbmd0aD0iMTEyIiB4PSIxODUiIHk9IjMyOS4xNTYzIj5BZHJlc3NlIDogU3RyaW5nPC90ZXh0Pjx0ZXh0IGZpbGw9IiMwMDAwMDAiIGZvbnQtZmFtaWx5PSJzYW5zLXNlcmlmIiBmb250LXNpemU9IjE0IiBsZW5ndGhBZGp1c3Q9InNwYWNpbmciIHRleHRMZW5ndGg9Ijk4IiB4PSIxODUiIHk9IjM0NC4xNDA2Ij5FbWFpbCA6IFN0cmluZzwvdGV4dD48dGV4dCBmaWxsPSIjMDAwMDAwIiBmb250LWZhbWlseT0ic2Fucy1zZXJpZiIgZm9udC1zaXplPSIxNCIgbGVuZ3RoQWRqdXN0PSJzcGFjaW5nIiB0ZXh0TGVuZ3RoPSIxMjYiIHg9IjE4NSIgeT0iMzU5LjEyNSI+VGVsZXBob25lIDogU3RyaW5nPC90ZXh0PjxsaW5lIHN0eWxlPSJzdHJva2U6IzE4MTgxODtzdHJva2Utd2lkdGg6MC41OyIgeDE9IjE2NiIgeDI9IjM1MSIgeTE9IjM2NC44NzUiIHkyPSIzNjQuODc1Ii8+PC9nPjwhLS1jbGFzcyBEZW1hbmRlLS0+PGcgY2xhc3M9ImVudGl0eSIgZGF0YS1lbnRpdHk9IkRlbWFuZGUiIGRhdGEtc291cmNlLWxpbmU9IjEyIiBkYXRhLXVpZD0iZW50MDAwMyIgaWQ9ImVudGl0eV9EZW1hbmRlIj48cmVjdCBmaWxsPSIjRjFGMUYxIiBoZWlnaHQ9IjEzNy45MDYzIiByeD0iMi41IiByeT0iMi41IiBzdHlsZT0ic3Ryb2tlOiMxODE4MTg7c3Ryb2tlLXdpZHRoOjAuNTsiIHdpZHRoPSI0NzQiIHg9IjI5LjUiIHk9IjQ0OCIvPjxlbGxpcHNlIGN4PSIyMzcuNzUiIGN5PSI0NjQiIGZpbGw9IiNBREQxQjIiIHJ4PSIxMSIgcnk9IjExIiBzdHlsZT0ic3Ryb2tlOiMxODE4MTg7c3Ryb2tlLXdpZHRoOjE7Ii8+PHBhdGggZD0iTTI0MS4zNzUsNDcwIEwyNDEuMzc1LDQ2OC4yNSBMMjM2LjA2MjUsNDY4LjI1IFEyMzYuMDYyNSw0NjguMjUgMjM2LjA2MjUsNDY0LjY4NzUgTDI0MC4zMTI1LDQ2NC42ODc1IEwyNDAuMzEyNSw0NjIuOTM3NSBMMjM2LjA2MjUsNDYyLjkzNzUgTDIzNi4wNjI1LDQ2MC40Mzc1IEwyNDEuMzc1LDQ2MC40Mzc1IEwyNDEuMzc1LDQ1OC42ODc1IEwyMzQuMzEyNSw0NTguNjg3NSBRMjM0LjMxMjUsNDU4LjY4NzUgMjM0LjMxMjUsNDcwIEwyNDEuMzc1LDQ3MCBaICIgZmlsbD0iIzAwMDAwMCIvPjx0ZXh0IGZpbGw9IiMwMDAwMDAiIGZvbnQtZmFtaWx5PSJzYW5zLXNlcmlmIiBmb250LXNpemU9IjE0IiBsZW5ndGhBZGp1c3Q9InNwYWNpbmciIHRleHRMZW5ndGg9IjQ5IiB4PSIyNTguMjUiIHk9IjQ2OS43NDIyIj5EZW1hbmRlPC90ZXh0PjxsaW5lIHN0eWxlPSJzdHJva2U6IzE4MTgxODtzdHJva2Utd2lkdGg6MC41OyIgeDE9IjMwLjUiIHgyPSI1MDIuNSIgeTE9IjQ4MCIgeTI9IjQ4MCIvPjxlbGxpcHNlIGN4PSI0MC41IiBjeT0iNDkyLjk5MjIiIGZpbGw9Im5vbmUiIHJ4PSIzIiByeT0iMyIgc3R5bGU9InN0cm9rZTojMDM4MDQ4O3N0cm9rZS13aWR0aDoxOyIvPjx0ZXh0IGZpbGw9IiMwMDAwMDAiIGZvbnQtZmFtaWx5PSJzYW5zLXNlcmlmIiBmb250LXNpemU9IjE0IiBsZW5ndGhBZGp1c3Q9InNwYWNpbmciIHRleHRMZW5ndGg9IjExOSIgeD0iNDkuNSIgeT0iNDk3LjIzNDQiPklEX0RlbWFuZGUgOiBVVUlEPC90ZXh0Pjx0ZXh0IGZpbGw9IiMwMDAwMDAiIGZvbnQtZmFtaWx5PSJzYW5zLXNlcmlmIiBmb250LXNpemU9IjE0IiBsZW5ndGhBZGp1c3Q9InNwYWNpbmciIHRleHRMZW5ndGg9IjExOSIgeD0iNDkuNSIgeT0iNTEyLjIxODgiPklEX0NpdG95ZW4gOiBVVUlEPC90ZXh0Pjx0ZXh0IGZpbGw9IiMwMDAwMDAiIGZvbnQtZmFtaWx5PSJzYW5zLXNlcmlmIiBmb250LXNpemU9IjE0IiBsZW5ndGhBZGp1c3Q9InNwYWNpbmciIHRleHRMZW5ndGg9IjMwOCIgeD0iNDkuNSIgeT0iNTI3LjIwMzEiPlR5cGVfQWN0ZSA6IEVudW0gW05haXNzYW5jZSwgTWFyaWFnZSwgRCYjMjMzO2MmIzIzMjtzXTwvdGV4dD48dGV4dCBmaWxsPSIjMDAwMDAwIiBmb250LWZhbWlseT0ic2Fucy1zZXJpZiIgZm9udC1zaXplPSIxNCIgbGVuZ3RoQWRqdXN0PSJzcGFjaW5nIiB0ZXh0TGVuZ3RoPSI0NDgiIHg9IjQ5LjUiIHk9IjU0Mi4xODc1Ij5TdGF0dXQgOiBFbnVtIFtTb3VtaXNlLCBFbiB0cmFpdGVtZW50LCBWYWxpZCYjMjMzO2UsIFJlZnVzJiMyMzM7ZSwgTGl2ciYjMjMzO2VdPC90ZXh0Pjx0ZXh0IGZpbGw9IiMwMDAwMDAiIGZvbnQtZmFtaWx5PSJzYW5zLXNlcmlmIiBmb250LXNpemU9IjE0IiBsZW5ndGhBZGp1c3Q9InNwYWNpbmciIHRleHRMZW5ndGg9IjE2MSIgeD0iNDkuNSIgeT0iNTU3LjE3MTkiPkRhdGVfRGVtYW5kZSA6IERhdGVUaW1lPC90ZXh0Pjx0ZXh0IGZpbGw9IiMwMDAwMDAiIGZvbnQtZmFtaWx5PSJzYW5zLXNlcmlmIiBmb250LXNpemU9IjE0IiBsZW5ndGhBZGp1c3Q9InNwYWNpbmciIHRleHRMZW5ndGg9IjEyNiIgeD0iNDkuNSIgeT0iNTcyLjE1NjMiPklEX1BhaWVtZW50IDogVVVJRDwvdGV4dD48bGluZSBzdHlsZT0ic3Ryb2tlOiMxODE4MTg7c3Ryb2tlLXdpZHRoOjAuNTsiIHgxPSIzMC41IiB4Mj0iNTAyLjUiIHkxPSI1NzcuOTA2MyIgeTI9IjU3Ny45MDYzIi8+PC9nPjwhLS1jbGFzcyBEb2N1bWVudF9BY3RlLS0+PGcgY2xhc3M9ImVudGl0eSIgZGF0YS1lbnRpdHk9IkRvY3VtZW50X0FjdGUiIGRhdGEtc291cmNlLWxpbmU9IjIxIiBkYXRhLXVpZD0iZW50MDAwNCIgaWQ9ImVudGl0eV9Eb2N1bWVudF9BY3RlIj48cmVjdCBmaWxsPSIjRjFGMUYxIiBoZWlnaHQ9IjE1Mi44OTA2IiByeD0iMi41IiByeT0iMi41IiBzdHlsZT0ic3Ryb2tlOiMxODE4MTg7c3Ryb2tlLXdpZHRoOjAuNTsiIHdpZHRoPSIyMjIiIHg9IjQ5NS41IiB5PSI2NjEiLz48ZWxsaXBzZSBjeD0iNTU2Ljc1IiBjeT0iNjc3IiBmaWxsPSIjQUREMUIyIiByeD0iMTEiIHJ5PSIxMSIgc3R5bGU9InN0cm9rZTojMTgxODE4O3N0cm9rZS13aWR0aDoxOyIvPjxwYXRoIGQ9Ik01NjAuMzc1LDY4MyBMNTYwLjM3NSw2ODEuMjUgTDU1NS4wNjI1LDY4MS4yNSBRNTU1LjA2MjUsNjgxLjI1IDU1NS4wNjI1LDY3Ny42ODc1IEw1NTkuMzEyNSw2NzcuNjg3NSBMNTU5LjMxMjUsNjc1LjkzNzUgTDU1NS4wNjI1LDY3NS45Mzc1IEw1NTUuMDYyNSw2NzMuNDM3NSBMNTYwLjM3NSw2NzMuNDM3NSBMNTYwLjM3NSw2NzEuNjg3NSBMNTUzLjMxMjUsNjcxLjY4NzUgUTU1My4zMTI1LDY3MS42ODc1IDU1My4zMTI1LDY4MyBMNTYwLjM3NSw2ODMgWiAiIGZpbGw9IiMwMDAwMDAiLz48dGV4dCBmaWxsPSIjMDAwMDAwIiBmb250LWZhbWlseT0ic2Fucy1zZXJpZiIgZm9udC1zaXplPSIxNCIgbGVuZ3RoQWRqdXN0PSJzcGFjaW5nIiB0ZXh0TGVuZ3RoPSI5MSIgeD0iNTc3LjI1IiB5PSI2ODIuNzQyMiI+RG9jdW1lbnRfQWN0ZTwvdGV4dD48bGluZSBzdHlsZT0ic3Ryb2tlOiMxODE4MTg7c3Ryb2tlLXdpZHRoOjAuNTsiIHgxPSI0OTYuNSIgeDI9IjcxNi41IiB5MT0iNjkzIiB5Mj0iNjkzIi8+PGVsbGlwc2UgY3g9IjUwNi41IiBjeT0iNzA1Ljk5MjIiIGZpbGw9Im5vbmUiIHJ4PSIzIiByeT0iMyIgc3R5bGU9InN0cm9rZTojMDM4MDQ4O3N0cm9rZS13aWR0aDoxOyIvPjx0ZXh0IGZpbGw9IiMwMDAwMDAiIGZvbnQtZmFtaWx5PSJzYW5zLXNlcmlmIiBmb250LXNpemU9IjE0IiBsZW5ndGhBZGp1c3Q9InNwYWNpbmciIHRleHRMZW5ndGg9Ijk4IiB4PSI1MTUuNSIgeT0iNzEwLjIzNDQiPklEX0FjdGUgOiBVVUlEPC90ZXh0Pjx0ZXh0IGZpbGw9IiMwMDAwMDAiIGZvbnQtZmFtaWx5PSJzYW5zLXNlcmlmIiBmb250LXNpemU9IjE0IiBsZW5ndGhBZGp1c3Q9InNwYWNpbmciIHRleHRMZW5ndGg9IjExOSIgeD0iNTE1LjUiIHk9IjcyNS4yMTg4Ij5JRF9EZW1hbmRlIDogVVVJRDwvdGV4dD48dGV4dCBmaWxsPSIjMDAwMDAwIiBmb250LWZhbWlseT0ic2Fucy1zZXJpZiIgZm9udC1zaXplPSIxNCIgbGVuZ3RoQWRqdXN0PSJzcGFjaW5nIiB0ZXh0TGVuZ3RoPSIxODIiIHg9IjUxNS41IiB5PSI3NDAuMjAzMSI+RGF0ZV9EZWxpdnJhbmNlIDogRGF0ZVRpbWU8L3RleHQ+PHRleHQgZmlsbD0iIzAwMDAwMCIgZm9udC1mYW1pbHk9InNhbnMtc2VyaWYiIGZvbnQtc2l6ZT0iMTQiIGxlbmd0aEFkanVzdD0ic3BhY2luZyIgdGV4dExlbmd0aD0iMTI2IiB4PSI1MTUuNSIgeT0iNzU1LjE4NzUiPkZpY2hpZXJfUERGIDogTGllbjwvdGV4dD48dGV4dCBmaWxsPSIjMDAwMDAwIiBmb250LWZhbWlseT0ic2Fucy1zZXJpZiIgZm9udC1zaXplPSIxNCIgbGVuZ3RoQWRqdXN0PSJzcGFjaW5nIiB0ZXh0TGVuZ3RoPSIxOTYiIHg9IjUxNS41IiB5PSI3NzAuMTcxOSI+U2lnbmF0dXJlX051bWVyaXF1ZSA6IFN0cmluZzwvdGV4dD48dGV4dCBmaWxsPSIjMDAwMDAwIiBmb250LWZhbWlseT0ic2Fucy1zZXJpZiIgZm9udC1zaXplPSIxNCIgbGVuZ3RoQWRqdXN0PSJzcGFjaW5nIiB0ZXh0TGVuZ3RoPSIxNDciIHg9IjUxNS41IiB5PSI3ODUuMTU2MyI+RXN0X0FyY2hpdmUgOiBCb29sZWFuPC90ZXh0Pjx0ZXh0IGZpbGw9IiMwMDAwMDAiIGZvbnQtZmFtaWx5PSJzYW5zLXNlcmlmIiBmb250LXNpemU9IjE0IiBsZW5ndGhBZGp1c3Q9InNwYWNpbmciIHRleHRMZW5ndGg9IjE3NSIgeD0iNTE1LjUiIHk9IjgwMC4xNDA2Ij5EYXRlX0FyY2hpdmFnZSA6IERhdGVUaW1lPC90ZXh0PjxsaW5lIHN0eWxlPSJzdHJva2U6IzE4MTgxODtzdHJva2Utd2lkdGg6MC41OyIgeDE9IjQ5Ni41IiB4Mj0iNzE2LjUiIHkxPSI4MDUuODkwNiIgeTI9IjgwNS44OTA2Ii8+PC9nPjwhLS1jbGFzcyBQYWllbWVudC0tPjxnIGNsYXNzPSJlbnRpdHkiIGRhdGEtZW50aXR5PSJQYWllbWVudCIgZGF0YS1zb3VyY2UtbGluZT0iMzEiIGRhdGEtdWlkPSJlbnQwMDA1IiBpZD0iZW50aXR5X1BhaWVtZW50Ij48cmVjdCBmaWxsPSIjRjFGMUYxIiBoZWlnaHQ9IjEyMi45MjE5IiByeD0iMi41IiByeT0iMi41IiBzdHlsZT0ic3Ryb2tlOiMxODE4MTg7c3Ryb2tlLXdpZHRoOjAuNTsiIHdpZHRoPSI0NTMiIHg9IjciIHk9IjY3NiIvPjxlbGxpcHNlIGN4PSIyMDEuMjUiIGN5PSI2OTIiIGZpbGw9IiNBREQxQjIiIHJ4PSIxMSIgcnk9IjExIiBzdHlsZT0ic3Ryb2tlOiMxODE4MTg7c3Ryb2tlLXdpZHRoOjE7Ii8+PHBhdGggZD0iTTIwNC44NzUsNjk4IEwyMDQuODc1LDY5Ni4yNSBMMTk5LjU2MjUsNjk2LjI1IFExOTkuNTYyNSw2OTYuMjUgMTk5LjU2MjUsNjkyLjY4NzUgTDIwMy44MTI1LDY5Mi42ODc1IEwyMDMuODEyNSw2OTAuOTM3NSBMMTk5LjU2MjUsNjkwLjkzNzUgTDE5OS41NjI1LDY4OC40Mzc1IEwyMDQuODc1LDY4OC40Mzc1IEwyMDQuODc1LDY4Ni42ODc1IEwxOTcuODEyNSw2ODYuNjg3NSBRMTk3LjgxMjUsNjg2LjY4NzUgMTk3LjgxMjUsNjk4IEwyMDQuODc1LDY5OCBaICIgZmlsbD0iIzAwMDAwMCIvPjx0ZXh0IGZpbGw9IiMwMDAwMDAiIGZvbnQtZmFtaWx5PSJzYW5zLXNlcmlmIiBmb250LXNpemU9IjE0IiBsZW5ndGhBZGp1c3Q9InNwYWNpbmciIHRleHRMZW5ndGg9IjU2IiB4PSIyMjEuNzUiIHk9IjY5Ny43NDIyIj5QYWllbWVudDwvdGV4dD48bGluZSBzdHlsZT0ic3Ryb2tlOiMxODE4MTg7c3Ryb2tlLXdpZHRoOjAuNTsiIHgxPSI4IiB4Mj0iNDU5IiB5MT0iNzA4IiB5Mj0iNzA4Ii8+PGVsbGlwc2UgY3g9IjE4IiBjeT0iNzIwLjk5MjIiIGZpbGw9Im5vbmUiIHJ4PSIzIiByeT0iMyIgc3R5bGU9InN0cm9rZTojMDM4MDQ4O3N0cm9rZS13aWR0aDoxOyIvPjx0ZXh0IGZpbGw9IiMwMDAwMDAiIGZvbnQtZmFtaWx5PSJzYW5zLXNlcmlmIiBmb250LXNpemU9IjE0IiBsZW5ndGhBZGp1c3Q9InNwYWNpbmciIHRleHRMZW5ndGg9IjEyNiIgeD0iMjciIHk9IjcyNS4yMzQ0Ij5JRF9QYWllbWVudCA6IFVVSUQ8L3RleHQ+PHRleHQgZmlsbD0iIzAwMDAwMCIgZm9udC1mYW1pbHk9InNhbnMtc2VyaWYiIGZvbnQtc2l6ZT0iMTQiIGxlbmd0aEFkanVzdD0ic3BhY2luZyIgdGV4dExlbmd0aD0iMTE5IiB4PSIyNyIgeT0iNzQwLjIxODgiPk1vbnRhbnQgOiBEZWNpbWFsPC90ZXh0Pjx0ZXh0IGZpbGw9IiMwMDAwMDAiIGZvbnQtZmFtaWx5PSJzYW5zLXNlcmlmIiBmb250LXNpemU9IjE0IiBsZW5ndGhBZGp1c3Q9InNwYWNpbmciIHRleHRMZW5ndGg9IjQyNyIgeD0iMjciIHk9Ijc1NS4yMDMxIj5Nb2RlX1BhaWVtZW50IDogRW51bSBbTW9iaWxlX01vbmV5LCBDYXJ0ZV9CYW5jYWlyZSwgVmlyZW1lbnRdPC90ZXh0Pjx0ZXh0IGZpbGw9IiMwMDAwMDAiIGZvbnQtZmFtaWx5PSJzYW5zLXNlcmlmIiBmb250LXNpemU9IjE0IiBsZW5ndGhBZGp1c3Q9InNwYWNpbmciIHRleHRMZW5ndGg9IjE2OCIgeD0iMjciIHk9Ijc3MC4xODc1Ij5EYXRlX1BhaWVtZW50IDogRGF0ZVRpbWU8L3RleHQ+PHRleHQgZmlsbD0iIzAwMDAwMCIgZm9udC1mYW1pbHk9InNhbnMtc2VyaWYiIGZvbnQtc2l6ZT0iMTQiIGxlbmd0aEFkanVzdD0ic3BhY2luZyIgdGV4dExlbmd0aD0iMTYxIiB4PSIyNyIgeT0iNzg1LjE3MTkiPlRyYW5zYWN0aW9uX0lEIDogU3RyaW5nPC90ZXh0PjxsaW5lIHN0eWxlPSJzdHJva2U6IzE4MTgxODtzdHJva2Utd2lkdGg6MC41OyIgeDE9IjgiIHgyPSI0NTkiIHkxPSI3OTAuOTIxOSIgeTI9Ijc5MC45MjE5Ii8+PC9nPjwhLS1jbGFzcyBBZ2VudC0tPjxnIGNsYXNzPSJlbnRpdHkiIGRhdGEtZW50aXR5PSJBZ2VudCIgZGF0YS1zb3VyY2UtbGluZT0iMzkiIGRhdGEtdWlkPSJlbnQwMDA2IiBpZD0iZW50aXR5X0FnZW50Ij48cmVjdCBmaWxsPSIjRjFGMUYxIiBoZWlnaHQ9IjEyMi45MjE5IiByeD0iMi41IiByeT0iMi41IiBzdHlsZT0ic3Ryb2tlOiMxODE4MTg7c3Ryb2tlLXdpZHRoOjAuNTsiIHdpZHRoPSIyNzEiIHg9IjQ3NyIgeT0iNyIvPjxlbGxpcHNlIGN4PSI1OTAuNzUiIGN5PSIyMyIgZmlsbD0iI0FERDFCMiIgcng9IjExIiByeT0iMTEiIHN0eWxlPSJzdHJva2U6IzE4MTgxODtzdHJva2Utd2lkdGg6MTsiLz48cGF0aCBkPSJNNTk0LjM3NSwyOSBMNTk0LjM3NSwyNy4yNSBMNTg5LjA2MjUsMjcuMjUgUTU4OS4wNjI1LDI3LjI1IDU4OS4wNjI1LDIzLjY4NzUgTDU5My4zMTI1LDIzLjY4NzUgTDU5My4zMTI1LDIxLjkzNzUgTDU4OS4wNjI1LDIxLjkzNzUgTDU4OS4wNjI1LDE5LjQzNzUgTDU5NC4zNzUsMTkuNDM3NSBMNTk0LjM3NSwxNy42ODc1IEw1ODcuMzEyNSwxNy42ODc1IFE1ODcuMzEyNSwxNy42ODc1IDU4Ny4zMTI1LDI5IEw1OTQuMzc1LDI5IFogIiBmaWxsPSIjMDAwMDAwIi8+PHRleHQgZmlsbD0iIzAwMDAwMCIgZm9udC1mYW1pbHk9InNhbnMtc2VyaWYiIGZvbnQtc2l6ZT0iMTQiIGxlbmd0aEFkanVzdD0ic3BhY2luZyIgdGV4dExlbmd0aD0iMzUiIHg9IjYxMS4yNSIgeT0iMjguNzQyMiI+QWdlbnQ8L3RleHQ+PGxpbmUgc3R5bGU9InN0cm9rZTojMTgxODE4O3N0cm9rZS13aWR0aDowLjU7IiB4MT0iNDc4IiB4Mj0iNzQ3IiB5MT0iMzkiIHkyPSIzOSIvPjxlbGxpcHNlIGN4PSI0ODgiIGN5PSI1MS45OTIyIiBmaWxsPSJub25lIiByeD0iMyIgcnk9IjMiIHN0eWxlPSJzdHJva2U6IzAzODA0ODtzdHJva2Utd2lkdGg6MTsiLz48dGV4dCBmaWxsPSIjMDAwMDAwIiBmb250LWZhbWlseT0ic2Fucy1zZXJpZiIgZm9udC1zaXplPSIxNCIgbGVuZ3RoQWRqdXN0PSJzcGFjaW5nIiB0ZXh0TGVuZ3RoPSIxMDUiIHg9IjQ5NyIgeT0iNTYuMjM0NCI+SURfQWdlbnQgOiBVVUlEPC90ZXh0Pjx0ZXh0IGZpbGw9IiMwMDAwMDAiIGZvbnQtZmFtaWx5PSJzYW5zLXNlcmlmIiBmb250LXNpemU9IjE0IiBsZW5ndGhBZGp1c3Q9InNwYWNpbmciIHRleHRMZW5ndGg9Ijg0IiB4PSI0OTciIHk9IjcxLjIxODgiPk5vbSA6IFN0cmluZzwvdGV4dD48dGV4dCBmaWxsPSIjMDAwMDAwIiBmb250LWZhbWlseT0ic2Fucy1zZXJpZiIgZm9udC1zaXplPSIxNCIgbGVuZ3RoQWRqdXN0PSJzcGFjaW5nIiB0ZXh0TGVuZ3RoPSIxMDUiIHg9IjQ5NyIgeT0iODYuMjAzMSI+UHJlbm9tIDogU3RyaW5nPC90ZXh0Pjx0ZXh0IGZpbGw9IiMwMDAwMDAiIGZvbnQtZmFtaWx5PSJzYW5zLXNlcmlmIiBmb250LXNpemU9IjE0IiBsZW5ndGhBZGp1c3Q9InNwYWNpbmciIHRleHRMZW5ndGg9Ijk4IiB4PSI0OTciIHk9IjEwMS4xODc1Ij5FbWFpbCA6IFN0cmluZzwvdGV4dD48dGV4dCBmaWxsPSIjMDAwMDAwIiBmb250LWZhbWlseT0ic2Fucy1zZXJpZiIgZm9udC1zaXplPSIxNCIgbGVuZ3RoQWRqdXN0PSJzcGFjaW5nIiB0ZXh0TGVuZ3RoPSIyNDUiIHg9IjQ5NyIgeT0iMTE2LjE3MTkiPlJvbGUgOiBFbnVtIFtBZ2VudCwgQWRtaW5pc3RyYXRldXJdPC90ZXh0PjxsaW5lIHN0eWxlPSJzdHJva2U6IzE4MTgxODtzdHJva2Utd2lkdGg6MC41OyIgeDE9IjQ3OCIgeDI9Ijc0NyIgeTE9IjEyMS45MjE5IiB5Mj0iMTIxLjkyMTkiLz48L2c+PCEtLWNsYXNzIEhpc3RvcmlxdWVfTW9kaWZpY2F0aW9ucy0tPjxnIGNsYXNzPSJlbnRpdHkiIGRhdGEtZW50aXR5PSJIaXN0b3JpcXVlX01vZGlmaWNhdGlvbnMiIGRhdGEtc291cmNlLWxpbmU9IjQ3IiBkYXRhLXVpZD0iZW50MDAwNyIgaWQ9ImVudGl0eV9IaXN0b3JpcXVlX01vZGlmaWNhdGlvbnMiPjxyZWN0IGZpbGw9IiNGMUYxRjEiIGhlaWdodD0iMTY3Ljg3NSIgcng9IjIuNSIgcnk9IjIuNSIgc3R5bGU9InN0cm9rZTojMTgxODE4O3N0cm9rZS13aWR0aDowLjU7IiB3aWR0aD0iMjY0IiB4PSIzODcuNSIgeT0iMjA1Ii8+PGVsbGlwc2UgY3g9IjQzMS4zIiBjeT0iMjIxIiBmaWxsPSIjQUREMUIyIiByeD0iMTEiIHJ5PSIxMSIgc3R5bGU9InN0cm9rZTojMTgxODE4O3N0cm9rZS13aWR0aDoxOyIvPjxwYXRoIGQ9Ik00MzQuOTI1LDIyNyBMNDM0LjkyNSwyMjUuMjUgTDQyOS42MTI1LDIyNS4yNSBRNDI5LjYxMjUsMjI1LjI1IDQyOS42MTI1LDIyMS42ODc1IEw0MzMuODYyNSwyMjEuNjg3NSBMNDMzLjg2MjUsMjE5LjkzNzUgTDQyOS42MTI1LDIxOS45Mzc1IEw0MjkuNjEyNSwyMTcuNDM3NSBMNDM0LjkyNSwyMTcuNDM3NSBMNDM0LjkyNSwyMTUuNjg3NSBMNDI3Ljg2MjUsMjE1LjY4NzUgUTQyNy44NjI1LDIxNS42ODc1IDQyNy44NjI1LDIyNyBMNDM0LjkyNSwyMjcgWiAiIGZpbGw9IiMwMDAwMDAiLz48dGV4dCBmaWxsPSIjMDAwMDAwIiBmb250LWZhbWlseT0ic2Fucy1zZXJpZiIgZm9udC1zaXplPSIxNCIgbGVuZ3RoQWRqdXN0PSJzcGFjaW5nIiB0ZXh0TGVuZ3RoPSIxNjgiIHg9IjQ1MS43IiB5PSIyMjYuNzQyMiI+SGlzdG9yaXF1ZV9Nb2RpZmljYXRpb25zPC90ZXh0PjxsaW5lIHN0eWxlPSJzdHJva2U6IzE4MTgxODtzdHJva2Utd2lkdGg6MC41OyIgeDE9IjM4OC41IiB4Mj0iNjUwLjUiIHkxPSIyMzciIHkyPSIyMzciLz48ZWxsaXBzZSBjeD0iMzk4LjUiIGN5PSIyNDkuOTkyMiIgZmlsbD0ibm9uZSIgcng9IjMiIHJ5PSIzIiBzdHlsZT0ic3Ryb2tlOiMwMzgwNDg7c3Ryb2tlLXdpZHRoOjE7Ii8+PHRleHQgZmlsbD0iIzAwMDAwMCIgZm9udC1mYW1pbHk9InNhbnMtc2VyaWYiIGZvbnQtc2l6ZT0iMTQiIGxlbmd0aEFkanVzdD0ic3BhY2luZyIgdGV4dExlbmd0aD0iMTQwIiB4PSI0MDcuNSIgeT0iMjU0LjIzNDQiPklEX0hpc3RvcmlxdWUgOiBVVUlEPC90ZXh0Pjx0ZXh0IGZpbGw9IiMwMDAwMDAiIGZvbnQtZmFtaWx5PSJzYW5zLXNlcmlmIiBmb250LXNpemU9IjE0IiBsZW5ndGhBZGp1c3Q9InNwYWNpbmciIHRleHRMZW5ndGg9IjIzOCIgeD0iNDA3LjUiIHk9IjI2OS4yMTg4Ij5UeXBlX0VudGl0ZSA6IEVudW0gW0RlbWFuZGUsIEFjdGVdPC90ZXh0Pjx0ZXh0IGZpbGw9IiMwMDAwMDAiIGZvbnQtZmFtaWx5PSJzYW5zLXNlcmlmIiBmb250LXNpemU9IjE0IiBsZW5ndGhBZGp1c3Q9InNwYWNpbmciIHRleHRMZW5ndGg9IjExMiIgeD0iNDA3LjUiIHk9IjI4NC4yMDMxIj5JRF9FbnRpdGUgOiBVVUlEPC90ZXh0Pjx0ZXh0IGZpbGw9IiMwMDAwMDAiIGZvbnQtZmFtaWx5PSJzYW5zLXNlcmlmIiBmb250LXNpemU9IjE0IiBsZW5ndGhBZGp1c3Q9InNwYWNpbmciIHRleHRMZW5ndGg9IjEwNSIgeD0iNDA3LjUiIHk9IjI5OS4xODc1Ij5JRF9BZ2VudCA6IFVVSUQ8L3RleHQ+PHRleHQgZmlsbD0iIzAwMDAwMCIgZm9udC1mYW1pbHk9InNhbnMtc2VyaWYiIGZvbnQtc2l6ZT0iMTQiIGxlbmd0aEFkanVzdD0ic3BhY2luZyIgdGV4dExlbmd0aD0iMTA1IiB4PSI0MDcuNSIgeT0iMzE0LjE3MTkiPkFjdGlvbiA6IFN0cmluZzwvdGV4dD48dGV4dCBmaWxsPSIjMDAwMDAwIiBmb250LWZhbWlseT0ic2Fucy1zZXJpZiIgZm9udC1zaXplPSIxNCIgbGVuZ3RoQWRqdXN0PSJzcGFjaW5nIiB0ZXh0TGVuZ3RoPSIxOTYiIHg9IjQwNy41IiB5PSIzMjkuMTU2MyI+RGF0ZV9Nb2RpZmljYXRpb24gOiBEYXRlVGltZTwvdGV4dD48dGV4dCBmaWxsPSIjMDAwMDAwIiBmb250LWZhbWlseT0ic2Fucy1zZXJpZiIgZm9udC1zaXplPSIxNCIgbGVuZ3RoQWRqdXN0PSJzcGFjaW5nIiB0ZXh0TGVuZ3RoPSIxNTQiIHg9IjQwNy41IiB5PSIzNDQuMTQwNiI+QW5jaWVubmVfVmFsZXVyIDogVGV4dDwvdGV4dD48dGV4dCBmaWxsPSIjMDAwMDAwIiBmb250LWZhbWlseT0ic2Fucy1zZXJpZiIgZm9udC1zaXplPSIxNCIgbGVuZ3RoQWRqdXN0PSJzcGFjaW5nIiB0ZXh0TGVuZ3RoPSIxNTQiIHg9IjQwNy41IiB5PSIzNTkuMTI1Ij5Ob3V2ZWxsZV9WYWxldXIgOiBUZXh0PC90ZXh0PjxsaW5lIHN0eWxlPSJzdHJva2U6IzE4MTgxODtzdHJva2Utd2lkdGg6MC41OyIgeDE9IjM4OC41IiB4Mj0iNjUwLjUiIHkxPSIzNjQuODc1IiB5Mj0iMzY0Ljg3NSIvPjwvZz48IS0tbGluayBDaXRveWVuIHRvIERlbWFuZGUtLT48ZyBjbGFzcz0ibGluayIgZGF0YS1lbnRpdHktMT0iQ2l0b3llbiIgZGF0YS1lbnRpdHktMj0iRGVtYW5kZSIgZGF0YS1zb3VyY2UtbGluZT0iNTgiIGRhdGEtdWlkPSJsbms4IiBpZD0ibGlua19DaXRveWVuX0RlbWFuZGUiPjxwYXRoIGNvZGVMaW5lPSI1OCIgZD0iTTI2MS43MjM0LDM4MS4xODUgQzI2Mi41OTM0LDQwNS43MjUgMjYyLjYwNjUsNDA2LjMxMTUgMjYzLjQ0NjUsNDI5Ljc5MTUiIGZpbGw9Im5vbmUiIGlkPSJDaXRveWVuLURlbWFuZGUiIHN0eWxlPSJzdHJva2U6IzE4MTgxODtzdHJva2Utd2lkdGg6MTsiLz48bGluZSBzdHlsZT0ic3Ryb2tlOiMxODE4MTg7c3Ryb2tlLXdpZHRoOjE7IiB4MT0iMjU3LjU4NDIiIHgyPSIyNjUuNTc5MiIgeTE9IjM3Ny4zMjkyIiB5Mj0iMzc3LjA0NTgiLz48bGluZSBzdHlsZT0ic3Ryb2tlOiMxODE4MTg7c3Ryb2tlLXdpZHRoOjE7IiB4MT0iMjU3LjY5MDUiIHgyPSIyNjUuNjg1NSIgeTE9IjM4MC4zMjczIiB5Mj0iMzgwLjA0MzkiLz48bGluZSBzdHlsZT0ic3Ryb2tlOiMxODE4MTg7c3Ryb2tlLXdpZHRoOjE7IiB4MT0iMjYxLjcyMzQiIHgyPSIyNjEuNDQiIHkxPSIzODEuMTg1IiB5Mj0iMzczLjE5Ii8+PGxpbmUgc3R5bGU9InN0cm9rZTojMTgxODE4O3N0cm9rZS13aWR0aDoxOyIgeDE9IjI2My44MDQiIHgyPSIyNzAuMDg2MiIgeTE9IjQzOS43ODUxIiB5Mj0iNDQ3LjU2NTUiLz48bGluZSBzdHlsZT0ic3Ryb2tlOiMxODE4MTg7c3Ryb2tlLXdpZHRoOjE7IiB4MT0iMjYzLjgwNCIgeDI9IjI1OC4wOTM4IiB5MT0iNDM5Ljc4NTEiIHkyPSI0NDcuOTk0NSIvPjxsaW5lIHN0eWxlPSJzdHJva2U6IzE4MTgxODtzdHJva2Utd2lkdGg6MTsiIHgxPSIyNjMuODA0IiB4Mj0iMjY0LjA5IiB5MT0iNDM5Ljc4NTEiIHkyPSI0NDcuNzgiLz48ZWxsaXBzZSBjeD0iMjYzLjU4OTUiIGN5PSI0MzMuNzg5IiBmaWxsPSJub25lIiByeD0iNCIgcnk9IjQiIHN0eWxlPSJzdHJva2U6IzE4MTgxODtzdHJva2Utd2lkdGg6MTsiLz48dGV4dCBmaWxsPSIjMDAwMDAwIiBmb250LWZhbWlseT0ic2Fucy1zZXJpZiIgZm9udC1zaXplPSIxMyIgbGVuZ3RoQWRqdXN0PSJzcGFjaW5nIiB0ZXh0TGVuZ3RoPSIyNiIgeD0iMjY0LjUiIHk9IjQxNi4yODkxIj5mYWl0PC90ZXh0PjwvZz48IS0tbGluayBEZW1hbmRlIHRvIERvY3VtZW50X0FjdGUtLT48ZyBjbGFzcz0ibGluayIgZGF0YS1lbnRpdHktMT0iRGVtYW5kZSIgZGF0YS1lbnRpdHktMj0iRG9jdW1lbnRfQWN0ZSIgZGF0YS1zb3VyY2UtbGluZT0iNTkiIGRhdGEtdWlkPSJsbms5IiBpZD0ibGlua19EZW1hbmRlX0RvY3VtZW50X0FjdGUiPjxwYXRoIGNvZGVMaW5lPSI1OSIgZD0iTTM3OS40MTA0LDU5MC41NjQ2IEM0MTguMzgwNCw2MTUuNjA0NiA0NDkuMTE5OSw2MzUuMzY1IDQ4OC41MTk5LDY2MC42ODUiIGZpbGw9Im5vbmUiIGlkPSJEZW1hbmRlLURvY3VtZW50X0FjdGUiIHN0eWxlPSJzdHJva2U6IzE4MTgxODtzdHJva2Utd2lkdGg6MTsiLz48bGluZSBzdHlsZT0ic3Ryb2tlOiMxODE4MTg7c3Ryb2tlLXdpZHRoOjE7IiB4MT0iMzczLjg4MjkiIHgyPSIzNzguMjA3NSIgeTE9IjU5MS43Njc1IiB5Mj0iNTg1LjAzNzEiLz48bGluZSBzdHlsZT0ic3Ryb2tlOiMxODE4MTg7c3Ryb2tlLXdpZHRoOjE7IiB4MT0iMzc2LjQwNjgiIHgyPSIzODAuNzMxNCIgeTE9IjU5My4zODkyIiB5Mj0iNTg2LjY1ODgiLz48bGluZSBzdHlsZT0ic3Ryb2tlOiMxODE4MTg7c3Ryb2tlLXdpZHRoOjE7IiB4MT0iMzc5LjQxMDQiIHgyPSIzNzIuNjgiIHkxPSI1OTAuNTY0NiIgeTI9IjU4Ni4yNCIvPjxsaW5lIHN0eWxlPSJzdHJva2U6IzE4MTgxODtzdHJva2Utd2lkdGg6MTsiIHgxPSI0OTQuMDQ3NSIgeDI9IjQ4OS43MjI0IiB5MT0iNjU5LjQ4MjQiIHkyPSI2NjYuMjEyNSIvPjxsaW5lIHN0eWxlPSJzdHJva2U6IzE4MTgxODtzdHJva2Utd2lkdGg6MTsiIHgxPSI0OTEuNTIzNyIgeDI9IjQ4Ny4xOTg3IiB5MT0iNjU3Ljg2MDYiIHkyPSI2NjQuNTkwNyIvPjxsaW5lIHN0eWxlPSJzdHJva2U6IzE4MTgxODtzdHJva2Utd2lkdGg6MTsiIHgxPSI0ODguNTE5OSIgeDI9IjQ5NS4yNSIgeTE9IjY2MC42ODUiIHkyPSI2NjUuMDEiLz48dGV4dCBmaWxsPSIjMDAwMDAwIiBmb250LWZhbWlseT0ic2Fucy1zZXJpZiIgZm9udC1zaXplPSIxMyIgbGVuZ3RoQWRqdXN0PSJzcGFjaW5nIiB0ZXh0TGVuZ3RoPSIzOSIgeD0iNDM3LjUiIHk9IjYyOS4yODkxIj5nJiMyMzM7biYjMjMyO3JlPC90ZXh0PjwvZz48IS0tbGluayBEZW1hbmRlIHRvIFBhaWVtZW50LS0+PGcgY2xhc3M9ImxpbmsiIGRhdGEtZW50aXR5LTE9IkRlbWFuZGUiIGRhdGEtZW50aXR5LTI9IlBhaWVtZW50IiBkYXRhLXNvdXJjZS1saW5lPSI2MCIgZGF0YS11aWQ9ImxuazEwIiBpZD0ibGlua19EZW1hbmRlX1BhaWVtZW50Ij48cGF0aCBjb2RlTGluZT0iNjAiIGQ9Ik0yNTQuOTk1Myw1OTQuMTUwMyBDMjUwLjY2NTMsNjIyLjgyMDMgMjQ4LjA2NDIsNjQwLjA3OTYgMjQzLjg2NDIsNjY3Ljg5OTYiIGZpbGw9Im5vbmUiIGlkPSJEZW1hbmRlLVBhaWVtZW50IiBzdHlsZT0ic3Ryb2tlOiMxODE4MTg7c3Ryb2tlLXdpZHRoOjE7Ii8+PGxpbmUgc3R5bGU9InN0cm9rZTojMTgxODE4O3N0cm9rZS13aWR0aDoxOyIgeDE9IjI1MS42Mzc1IiB4Mj0iMjU5LjU0NzgiIHkxPSI1ODkuNTk3OCIgeTI9IjU5MC43OTI1Ii8+PGxpbmUgc3R5bGU9InN0cm9rZTojMTgxODE4O3N0cm9rZS13aWR0aDoxOyIgeDE9IjI1MS4xODk1IiB4Mj0iMjU5LjA5OTgiIHkxPSI1OTIuNTY0MiIgeTI9IjU5My43NTg4Ii8+PGxpbmUgc3R5bGU9InN0cm9rZTojMTgxODE4O3N0cm9rZS13aWR0aDoxOyIgeDE9IjI1NC45OTUzIiB4Mj0iMjU2LjE5IiB5MT0iNTk0LjE1MDMiIHkyPSI1ODYuMjQiLz48bGluZSBzdHlsZT0ic3Ryb2tlOiMxODE4MTg7c3Ryb2tlLXdpZHRoOjE7IiB4MT0iMjQ3LjIyMjMiIHgyPSIyMzkuMzExOSIgeTE9IjY3Mi40NTE5IiB5Mj0iNjcxLjI1NzciLz48bGluZSBzdHlsZT0ic3Ryb2tlOiMxODE4MTg7c3Ryb2tlLXdpZHRoOjE7IiB4MT0iMjQ3LjY3MDEiIHgyPSIyMzkuNzU5OCIgeTE9IjY2OS40ODU1IiB5Mj0iNjY4LjI5MTMiLz48bGluZSBzdHlsZT0ic3Ryb2tlOiMxODE4MTg7c3Ryb2tlLXdpZHRoOjE7IiB4MT0iMjQzLjg2NDIiIHgyPSIyNDIuNjciIHkxPSI2NjcuODk5NiIgeTI9IjY3NS44MSIvPjx0ZXh0IGZpbGw9IiMwMDAwMDAiIGZvbnQtZmFtaWx5PSJzYW5zLXNlcmlmIiBmb250LXNpemU9IjEzIiBsZW5ndGhBZGp1c3Q9InNwYWNpbmciIHRleHRMZW5ndGg9IjQ1LjUiIHg9IjI1Mi41IiB5PSI2MjkuMjg5MSI+YXNzb2NpJiMyMzM7PC90ZXh0PjwvZz48IS0tbGluayBBZ2VudCB0byBEb2N1bWVudF9BY3RlLS0+PGcgY2xhc3M9ImxpbmsiIGRhdGEtZW50aXR5LTE9IkFnZW50IiBkYXRhLWVudGl0eS0yPSJEb2N1bWVudF9BY3RlIiBkYXRhLXNvdXJjZS1saW5lPSI2MSIgZGF0YS11aWQ9ImxuazExIiBpZD0ibGlua19BZ2VudF9Eb2N1bWVudF9BY3RlIj48cGF0aCBjb2RlTGluZT0iNjEiIGQ9Ik02NDcuNDAzNywxMzcuNTM5NSBDNjU3LjYzMzcsMTYwLjM0OTUgNjY0LjM4LDE3OS42MSA2NjkuNSwyMDUgQzcwMS44OSwzNjUuNTQgNjY0LjcyNDQsNTM5LjYzMSA2MzUuMzY0NCw2NDMuMzExIiBmaWxsPSJub25lIiBpZD0iQWdlbnQtRG9jdW1lbnRfQWN0ZSIgc3R5bGU9InN0cm9rZTojMTgxODE4O3N0cm9rZS13aWR0aDoxOyIvPjxsaW5lIHN0eWxlPSJzdHJva2U6IzE4MTgxODtzdHJva2Utd2lkdGg6MTsiIHgxPSI2NDIuMTE3MSIgeDI9IjY0OS40MTY2IiB5MT0iMTM1LjUyNjYiIHkyPSIxMzIuMjUyOSIvPjxsaW5lIHN0eWxlPSJzdHJva2U6IzE4MTgxODtzdHJva2Utd2lkdGg6MTsiIHgxPSI2NDMuMzQ0OCIgeDI9IjY1MC42NDQzIiB5MT0iMTM4LjI2MzkiIHkyPSIxMzQuOTkwMiIvPjxsaW5lIHN0eWxlPSJzdHJva2U6IzE4MTgxODtzdHJva2Utd2lkdGg6MTsiIHgxPSI2NDcuNDAzNyIgeDI9IjY0NC4xMyIgeTE9IjEzNy41Mzk1IiB5Mj0iMTMwLjI0Ii8+PGxpbmUgc3R5bGU9InN0cm9rZTojMTgxODE4O3N0cm9rZS13aWR0aDoxOyIgeDE9IjYzMi42Mzk3IiB4Mj0iNjM2LjIzMyIgeTE9IjY1Mi45MzI3IiB5Mj0iNjYyLjI2NDgiLz48bGluZSBzdHlsZT0ic3Ryb2tlOiMxODE4MTg7c3Ryb2tlLXdpZHRoOjE7IiB4MT0iNjMyLjYzOTciIHgyPSI2MjQuNjg3IiB5MT0iNjUyLjkzMjciIHkyPSI2NTguOTk1MiIvPjxsaW5lIHN0eWxlPSJzdHJva2U6IzE4MTgxODtzdHJva2Utd2lkdGg6MTsiIHgxPSI2MzIuNjM5NyIgeDI9IjYzMC40NiIgeTE9IjY1Mi45MzI3IiB5Mj0iNjYwLjYzIi8+PGVsbGlwc2UgY3g9IjYzNC4yNzQ1IiBjeT0iNjQ3LjE1OTciIGZpbGw9Im5vbmUiIHJ4PSI0IiByeT0iNCIgc3R5bGU9InN0cm9rZTojMTgxODE4O3N0cm9rZS13aWR0aDoxOyIvPjx0ZXh0IGZpbGw9IiMwMDAwMDAiIGZvbnQtZmFtaWx5PSJzYW5zLXNlcmlmIiBmb250LXNpemU9IjEzIiBsZW5ndGhBZGp1c3Q9InNwYWNpbmciIHRleHRMZW5ndGg9IjM5IiB4PSI2NzguNSIgeT0iNDE2LjI4OTEiPnZhbGlkZTwvdGV4dD48L2c+PCEtLWxpbmsgQWdlbnQgdG8gSGlzdG9yaXF1ZV9Nb2RpZmljYXRpb25zLS0+PGcgY2xhc3M9ImxpbmsiIGRhdGEtZW50aXR5LTE9IkFnZW50IiBkYXRhLWVudGl0eS0yPSJIaXN0b3JpcXVlX01vZGlmaWNhdGlvbnMiIGRhdGEtc291cmNlLWxpbmU9IjYyIiBkYXRhLXVpZD0ibG5rMTIiIGlkPSJsaW5rX0FnZW50X0hpc3RvcmlxdWVfTW9kaWZpY2F0aW9ucyI+PHBhdGggY29kZUxpbmU9IjYyIiBkPSJNNTgzLjU4NzEsMTM3LjQzMSBDNTczLjc0NzEsMTYwLjU1MSA1NzIuNTM4NywxNjMuMzg3NSA1NjEuOTU4NywxODguMjQ3NSIgZmlsbD0ibm9uZSIgaWQ9IkFnZW50LUhpc3RvcmlxdWVfTW9kaWZpY2F0aW9ucyIgc3R5bGU9InN0cm9rZTojMTgxODE4O3N0cm9rZS13aWR0aDoxOyIvPjxsaW5lIHN0eWxlPSJzdHJva2U6IzE4MTgxODtzdHJva2Utd2lkdGg6MTsiIHgxPSI1ODEuNDczIiB4Mj0iNTg4LjgzNDEiIHkxPSIxMzIuMTg0MSIgeTI9IjEzNS4zMTciLz48bGluZSBzdHlsZT0ic3Ryb2tlOiMxODE4MTg7c3Ryb2tlLXdpZHRoOjE7IiB4MT0iNTgwLjI5ODIiIHgyPSI1ODcuNjU5MiIgeTE9IjEzNC45NDQ1IiB5Mj0iMTM4LjA3NzQiLz48bGluZSBzdHlsZT0ic3Ryb2tlOiMxODE4MTg7c3Ryb2tlLXdpZHRoOjE7IiB4MT0iNTgzLjU4NzEiIHgyPSI1ODYuNzIiIHkxPSIxMzcuNDMxIiB5Mj0iMTMwLjA3Ii8+PGxpbmUgc3R5bGU9InN0cm9rZTojMTgxODE4O3N0cm9rZS13aWR0aDoxOyIgeDE9IjU1OC4wNDI4IiB4Mj0iNTYwLjQzMDgiIHkxPSIxOTcuNDQ4OSIgeTI9IjIwNy4xNTk2Ii8+PGxpbmUgc3R5bGU9InN0cm9rZTojMTgxODE4O3N0cm9rZS13aWR0aDoxOyIgeDE9IjU1OC4wNDI4IiB4Mj0iNTQ5LjM4OTIiIHkxPSIxOTcuNDQ4OSIgeTI9IjIwMi40NjA0Ii8+PGxpbmUgc3R5bGU9InN0cm9rZTojMTgxODE4O3N0cm9rZS13aWR0aDoxOyIgeDE9IjU1OC4wNDI4IiB4Mj0iNTU0LjkxIiB5MT0iMTk3LjQ0ODkiIHkyPSIyMDQuODEiLz48ZWxsaXBzZSBjeD0iNTYwLjM5MjMiIGN5PSIxOTEuOTI4MSIgZmlsbD0ibm9uZSIgcng9IjQiIHJ5PSI0IiBzdHlsZT0ic3Ryb2tlOiMxODE4MTg7c3Ryb2tlLXdpZHRoOjE7Ii8+PHRleHQgZmlsbD0iIzAwMDAwMCIgZm9udC1mYW1pbHk9InNhbnMtc2VyaWYiIGZvbnQtc2l6ZT0iMTMiIGxlbmd0aEFkanVzdD0ic3BhY2luZyIgdGV4dExlbmd0aD0iNDUuNSIgeD0iNTcyLjUiIHk9IjE3My4yODkxIj5tb2RpZmllPC90ZXh0PjwvZz48IS0tbGluayBIaXN0b3JpcXVlX01vZGlmaWNhdGlvbnMgdG8gRGVtYW5kZS0tPjxnIGNsYXNzPSJsaW5rIiBkYXRhLWVudGl0eS0xPSJIaXN0b3JpcXVlX01vZGlmaWNhdGlvbnMiIGRhdGEtZW50aXR5LTI9IkRlbWFuZGUiIGRhdGEtc291cmNlLWxpbmU9IjYzIiBkYXRhLXVpZD0ibG5rMTMiIGlkPSJsaW5rX0hpc3RvcmlxdWVfTW9kaWZpY2F0aW9uc19EZW1hbmRlIj48cGF0aCBjb2RlTGluZT0iNjMiIGQ9Ik00MTIuOTQ2MywzODUuMTgxOSBDMzg1LjQ3NjMsNDA5LjcyMTkgMzc1LjEyNjcsNDE4Ljk3MSAzNDguODM2Nyw0NDIuNDUxIiBmaWxsPSJub25lIiBpZD0iSGlzdG9yaXF1ZV9Nb2RpZmljYXRpb25zLURlbWFuZGUiIHN0eWxlPSJzdHJva2U6IzE4MTgxODtzdHJva2Utd2lkdGg6MTsiLz48bGluZSBzdHlsZT0ic3Ryb2tlOiMxODE4MTg7c3Ryb2tlLXdpZHRoOjE7IiB4MT0iNDIwLjQwMzkiIHgyPSI0MjIuMzcyNyIgeTE9IjM3OC41MTk3IiB5Mj0iMzY4LjcxNTQiLz48bGluZSBzdHlsZT0ic3Ryb2tlOiMxODE4MTg7c3Ryb2tlLXdpZHRoOjE7IiB4MT0iNDIwLjQwMzkiIHgyPSI0MzAuMzY3MyIgeTE9IjM3OC41MTk3IiB5Mj0iMzc3LjY2NDYiLz48bGluZSBzdHlsZT0ic3Ryb2tlOiMxODE4MTg7c3Ryb2tlLXdpZHRoOjE7IiB4MT0iNDIwLjQwMzkiIHgyPSI0MjYuMzciIHkxPSIzNzguNTE5NyIgeTI9IjM3My4xOSIvPjxlbGxpcHNlIGN4PSI0MTUuOTI5NCIgY3k9IjM4Mi41MTciIGZpbGw9Im5vbmUiIHJ4PSI0IiByeT0iNCIgc3R5bGU9InN0cm9rZTojMTgxODE4O3N0cm9rZS13aWR0aDoxOyIvPjxsaW5lIHN0eWxlPSJzdHJva2U6IzE4MTgxODtzdHJva2Utd2lkdGg6MTsiIHgxPSIzNDguNTE3OSIgeDI9IjM0My4xODg5IiB5MT0iNDQ4LjA5ODkiIHkyPSI0NDIuMTMyMSIvPjxsaW5lIHN0eWxlPSJzdHJva2U6IzE4MTgxODtzdHJva2Utd2lkdGg6MTsiIHgxPSIzNTAuNzU1NCIgeDI9IjM0NS40MjY0IiB5MT0iNDQ2LjEwMDUiIHkyPSI0NDAuMTMzOCIvPjxsaW5lIHN0eWxlPSJzdHJva2U6IzE4MTgxODtzdHJva2Utd2lkdGg6MTsiIHgxPSIzNDguODM2NyIgeDI9IjM0Mi44NyIgeTE9IjQ0Mi40NTEiIHkyPSI0NDcuNzgiLz48dGV4dCBmaWxsPSIjMDAwMDAwIiBmb250LWZhbWlseT0ic2Fucy1zZXJpZiIgZm9udC1zaXplPSIxMyIgbGVuZ3RoQWRqdXN0PSJzcGFjaW5nIiB0ZXh0TGVuZ3RoPSI1MiIgeD0iMzkzLjUiIHk9IjQxNi4yODkxIj5jb25jZXJuZTwvdGV4dD48L2c+PCEtLWxpbmsgSGlzdG9yaXF1ZV9Nb2RpZmljYXRpb25zIHRvIERvY3VtZW50X0FjdGUtLT48ZyBjbGFzcz0ibGluayIgZGF0YS1lbnRpdHktMT0iSGlzdG9yaXF1ZV9Nb2RpZmljYXRpb25zIiBkYXRhLWVudGl0eS0yPSJEb2N1bWVudF9BY3RlIiBkYXRhLXNvdXJjZS1saW5lPSI2NCIgZGF0YS11aWQ9ImxuazE0IiBpZD0ibGlua19IaXN0b3JpcXVlX01vZGlmaWNhdGlvbnNfRG9jdW1lbnRfQWN0ZSI+PHBhdGggY29kZUxpbmU9IjY0IiBkPSJNNTM5LjE1MzYsMzkwLjg2NzUgQzU1NS4yMzM2LDQ3My4zNjc1IDU3NC42Njk3LDU3My4xNTc3IDU5MC4yMTk3LDY1Mi45NDc3IiBmaWxsPSJub25lIiBpZD0iSGlzdG9yaXF1ZV9Nb2RpZmljYXRpb25zLURvY3VtZW50X0FjdGUiIHN0eWxlPSJzdHJva2U6IzE4MTgxODtzdHJva2Utd2lkdGg6MTsiLz48bGluZSBzdHlsZT0ic3Ryb2tlOiMxODE4MTg7c3Ryb2tlLXdpZHRoOjE7IiB4MT0iNTM3LjI0MDUiIHgyPSI1MjkuODIwOCIgeTE9IjM4MS4wNTIyIiB5Mj0iMzc0LjM0NzkiLz48bGluZSBzdHlsZT0ic3Ryb2tlOiMxODE4MTg7c3Ryb2tlLXdpZHRoOjE7IiB4MT0iNTM3LjI0MDUiIHgyPSI1NDEuNTk5MiIgeTE9IjM4MS4wNTIyIiB5Mj0iMzcyLjA1MjEiLz48bGluZSBzdHlsZT0ic3Ryb2tlOiMxODE4MTg7c3Ryb2tlLXdpZHRoOjE7IiB4MT0iNTM3LjI0MDUiIHgyPSI1MzUuNzEiIHkxPSIzODEuMDUyMiIgeTI9IjM3My4yIi8+PGVsbGlwc2UgY3g9IjUzOC4zODgzIiBjeT0iMzg2Ljk0MTQiIGZpbGw9Im5vbmUiIHJ4PSI0IiByeT0iNCIgc3R5bGU9InN0cm9rZTojMTgxODE4O3N0cm9rZS13aWR0aDoxOyIvPjxsaW5lIHN0eWxlPSJzdHJva2U6IzE4MTgxODtzdHJva2Utd2lkdGg6MTsiIHgxPSI1OTQuOTExIiB4Mj0iNTg3LjA1ODciIHkxPSI2NTYuMTA4NyIgeTI9IjY1Ny42MzkiLz48bGluZSBzdHlsZT0ic3Ryb2tlOiMxODE4MTg7c3Ryb2tlLXdpZHRoOjE7IiB4MT0iNTk0LjMzNzEiIHgyPSI1ODYuNDg0OCIgeTE9IjY1My4xNjQxIiB5Mj0iNjU0LjY5NDQiLz48bGluZSBzdHlsZT0ic3Ryb2tlOiMxODE4MTg7c3Ryb2tlLXdpZHRoOjE7IiB4MT0iNTkwLjIxOTciIHgyPSI1OTEuNzUiIHkxPSI2NTIuOTQ3NyIgeTI9IjY2MC44Ii8+PHRleHQgZmlsbD0iIzAwMDAwMCIgZm9udC1mYW1pbHk9InNhbnMtc2VyaWYiIGZvbnQtc2l6ZT0iMTMiIGxlbmd0aEFkanVzdD0ic3BhY2luZyIgdGV4dExlbmd0aD0iNTIiIHg9IjU3Ni41IiB5PSI1MjIuNzg5MSI+Y29uY2VybmU8L3RleHQ+PC9nPjwhLS1TUkM9W2JMREJSamltNER0aDU0SXNUSXhHZEg4dmc4NHVDNjhkY3k4R002aGkzMjJIQUthUERVQlM5cHc3QmpPWHpJNGI5cTJ4NEpIbFBaWmxwR1VhSE5qYUx4VGVySDdhNU5qQjZGa3NvRjhFT0RfUHF6Q1k4XzExTE1JaWhLUXY5dEViR093SFo1bDg3cFdRbXdLMHlaWTB5N2s0VWVHRjZNY1htUFdIREF5dWJaNm1XSDlVTnZJQ2Vqd0oxM2hRNkxIUzVYMWVUcTJXX1BjS3BWNEx5YkhPNXBRTlRTTC0zbEhjUkNhcnladHpQQ3JQRDF6Y0ltYmhvc3JqWC1ZcmdZaXE1M0FOcDZnRTVZZVlENkZGbENJWUVQRlo0TlFyeU5fdFVEM3FpLXFSNTBXd1N1Q0xqMkhON0ZxaEZTak9mMUFyU3RkQUdNZWQ4RVl5cUR1TEI4YjJEOUFrdlhzQTVtSVRoeDh4U2oyR2YxRUFVcWJJREdzSUljaHlOTy1kT3VZNGZobzNXcy1LQWU3QmxiM2hlRFI1VEk4UGxTQVdPQWdQaVFNSWJkaVcwdTRMQnByTUcxcFFwYzJmVmM0OUVJTjBTU1Bra0lPNkR3SUlld1FrRnpGTlhHempaX0FaN2NvZUJ1T0JZcWhjWS1wSjNLbHQ4eWhVXzgtWmtEWmRILWhQOENBX0RnQ3hnNTJZZUxNb0tFampORnU3bVNoRldRR01rNEYxN0xpSjY4TThvT0JGdEhFWExoU1RMOHRzUGpqa3AxMEliY1dZQ0ZORGtKWnBjQ2t1ZlFhS2o0ZUlTWmU2NGFGRTNWb25sYk5yMFNmb3dZMmpfTnNVSmpWTndlczVEVHhIUUlNendSb2Q0bmlUMHlOaWN4RGlGWkhDdXdBMVNzRUttRVFTakRod0NmRTcza3Z1T0hwcExWU2ZsRjhzOTUtNmxBa014dzE2QUJmMUJWeVhQU0FpSl9tQl0tLT48L2c+PC9zdmc+;" parent="1" vertex="1">
            <mxGeometry x="-820" y="-1160" width="755" height="820" as="geometry" />
          </mxCell>
        </UserObject>
      </root>
    </mxGraphModel>
  </diagram>
  <diagram name="Workflow Métier" id="4zgTjG0HbLRPyuG36KVj">
    <mxGraphModel dx="1428" dy="777" grid="1" gridSize="10" guides="1" tooltips="1" connect="1" arrows="1" fold="1" page="1" pageScale="1" pageWidth="827" pageHeight="1169" math="0" shadow="0">
      <root>
        <mxCell id="0" />
        <mxCell id="1" parent="0" />
        <UserObject label="" plantUmlData="{&quot;data&quot;:&quot;@startuml\nstart\n:Citoyen remplit le formulaire de demande sur la plateforme;\n:Validation des champs obligatoires;\nif (Paiement effectué ?) then (non)\n  :Rediriger vers le module de paiement sécurisé;\n  :Paiement par Mobile Money ou Carte Bancaire;\nendif\n:Enregistrement de la Demande;\n:Notification à l&#39;agent administratif;\n\n:Agent vérifie les pièces justificatives;\nif (Dossier complet ?) then (oui)\n  :Agent valide la demande;\n  :Acte généré et signé numériquement;\n  :Envoi d&#39;une notification au citoyen;\nelse (non)\n  :Demande refusée ou demande d&#39;informations complémentaires;\nendif\n\nif (Acte validé) then (oui)\n  :Téléchargement du document PDF signé;\n  stop\nelse\n  :Reprise ou annulation de la demande;\n  stop\nendif\n@enduml&quot;,&quot;format&quot;:&quot;svg&quot;}" id="o43ODcq8GTiQEf1-xYxU-1">
          <mxCell style="shape=image;noLabel=1;verticalAlign=top;aspect=fixed;imageAspect=0;image=data:image/svg+xml,PHN2ZyB4bWxucz0iaHR0cDovL3d3dy53My5vcmcvMjAwMC9zdmciIHhtbG5zOnhsaW5rPSJodHRwOi8vd3d3LnczLm9yZy8xOTk5L3hsaW5rIiBjb250ZW50U3R5bGVUeXBlPSJ0ZXh0L2NzcyIgZGF0YS1kaWFncmFtLXR5cGU9IkFDVElWSVRZIiBoZWlnaHQ9Ijg2OXB4IiBwcmVzZXJ2ZUFzcGVjdFJhdGlvPSJub25lIiBzdHlsZT0id2lkdGg6NjM0cHg7aGVpZ2h0Ojg2OXB4O2JhY2tncm91bmQ6I0ZGRkZGRjsiIHZlcnNpb249IjEuMSIgdmlld0JveD0iMCAwIDYzNCA4NjkiIHdpZHRoPSI2MzRweCIgem9vbUFuZFBhbj0ibWFnbmlmeSI+PGRlZnMvPjxnPjxlbGxpcHNlIGN4PSIyODQiIGN5PSIyMCIgZmlsbD0iIzIyMjIyMiIgcng9IjEwIiByeT0iMTAiIHN0eWxlPSJzdHJva2U6IzIyMjIyMjtzdHJva2Utd2lkdGg6MTsiLz48cmVjdCBmaWxsPSIjRjFGMUYxIiBoZWlnaHQ9IjMyLjg0MzgiIHJ4PSIxMi41IiByeT0iMTIuNSIgc3R5bGU9InN0cm9rZTojMTgxODE4O3N0cm9rZS13aWR0aDowLjU7IiB3aWR0aD0iMzY4IiB4PSIxMDAiIHk9IjUwIi8+PHRleHQgZmlsbD0iIzAwMDAwMCIgZm9udC1mYW1pbHk9InNhbnMtc2VyaWYiIGZvbnQtc2l6ZT0iMTIiIGxlbmd0aEFkanVzdD0ic3BhY2luZyIgdGV4dExlbmd0aD0iMzQ4IiB4PSIxMTAiIHk9IjcxLjM0MzgiPkNpdG95ZW4gcmVtcGxpdCBsZSBmb3JtdWxhaXJlIGRlIGRlbWFuZGUgc3VyIGxhIHBsYXRlZm9ybWU8L3RleHQ+PHJlY3QgZmlsbD0iI0YxRjFGMSIgaGVpZ2h0PSIzMi44NDM4IiByeD0iMTIuNSIgcnk9IjEyLjUiIHN0eWxlPSJzdHJva2U6IzE4MTgxODtzdHJva2Utd2lkdGg6MC41OyIgd2lkdGg9IjIyNCIgeD0iMTcyIiB5PSIxMDIuODQzOCIvPjx0ZXh0IGZpbGw9IiMwMDAwMDAiIGZvbnQtZmFtaWx5PSJzYW5zLXNlcmlmIiBmb250LXNpemU9IjEyIiBsZW5ndGhBZGp1c3Q9InNwYWNpbmciIHRleHRMZW5ndGg9IjIwNCIgeD0iMTgyIiB5PSIxMjQuMTg3NSI+VmFsaWRhdGlvbiBkZXMgY2hhbXBzIG9ibGlnYXRvaXJlczwvdGV4dD48cmVjdCBmaWxsPSIjRjFGMUYxIiBoZWlnaHQ9IjMyLjg0MzgiIHJ4PSIxMi41IiByeT0iMTIuNSIgc3R5bGU9InN0cm9rZTojMTgxODE4O3N0cm9rZS13aWR0aDowLjU7IiB3aWR0aD0iMjkwIiB4PSIxMzkiIHk9IjIwMy42ODc1Ii8+PHRleHQgZmlsbD0iIzAwMDAwMCIgZm9udC1mYW1pbHk9InNhbnMtc2VyaWYiIGZvbnQtc2l6ZT0iMTIiIGxlbmd0aEFkanVzdD0ic3BhY2luZyIgdGV4dExlbmd0aD0iMjcwIiB4PSIxNDkiIHk9IjIyNS4wMzEzIj5SZWRpcmlnZXIgdmVycyBsZSBtb2R1bGUgZGUgcGFpZW1lbnQgcyYjMjMzO2N1cmlzJiMyMzM7PC90ZXh0PjxyZWN0IGZpbGw9IiNGMUYxRjEiIGhlaWdodD0iMzIuODQzOCIgcng9IjEyLjUiIHJ5PSIxMi41IiBzdHlsZT0ic3Ryb2tlOiMxODE4MTg7c3Ryb2tlLXdpZHRoOjAuNTsiIHdpZHRoPSIyNzgiIHg9IjE0NSIgeT0iMjcxLjUzMTMiLz48dGV4dCBmaWxsPSIjMDAwMDAwIiBmb250LWZhbWlseT0ic2Fucy1zZXJpZiIgZm9udC1zaXplPSIxMiIgbGVuZ3RoQWRqdXN0PSJzcGFjaW5nIiB0ZXh0TGVuZ3RoPSIyNTgiIHg9IjE1NSIgeT0iMjkyLjg3NSI+UGFpZW1lbnQgcGFyIE1vYmlsZSBNb25leSBvdSBDYXJ0ZSBCYW5jYWlyZTwvdGV4dD48cG9seWdvbiBmaWxsPSIjRjFGMUYxIiBwb2ludHM9IjIzMS43NSwxNTUuNjg3NSwzMzYuMjUsMTU1LjY4NzUsMzQ4LjI1LDE2Ny42ODc1LDMzNi4yNSwxNzkuNjg3NSwyMzEuNzUsMTc5LjY4NzUsMjE5Ljc1LDE2Ny42ODc1LDIzMS43NSwxNTUuNjg3NSIgc3R5bGU9InN0cm9rZTojMTgxODE4O3N0cm9rZS13aWR0aDowLjU7Ii8+PHRleHQgZmlsbD0iIzAwMDAwMCIgZm9udC1mYW1pbHk9InNhbnMtc2VyaWYiIGZvbnQtc2l6ZT0iMTEiIGxlbmd0aEFkanVzdD0ic3BhY2luZyIgdGV4dExlbmd0aD0iMTYuNSIgeD0iMjg4IiB5PSIxOTAuMDg1OSI+bm9uPC90ZXh0Pjx0ZXh0IGZpbGw9IiMwMDAwMDAiIGZvbnQtZmFtaWx5PSJzYW5zLXNlcmlmIiBmb250LXNpemU9IjExIiBsZW5ndGhBZGp1c3Q9InNwYWNpbmciIHRleHRMZW5ndGg9IjEwNC41IiB4PSIyMzEuNzUiIHk9IjE3Mi4xOTkyIj5QYWllbWVudCBlZmZlY3R1JiMyMzM7ID88L3RleHQ+PHBvbHlnb24gZmlsbD0iI0YxRjFGMSIgcG9pbnRzPSIyODQsMzI0LjM3NSwyOTYsMzM2LjM3NSwyODQsMzQ4LjM3NSwyNzIsMzM2LjM3NSwyODQsMzI0LjM3NSIgc3R5bGU9InN0cm9rZTojMTgxODE4O3N0cm9rZS13aWR0aDowLjU7Ii8+PHJlY3QgZmlsbD0iI0YxRjFGMSIgaGVpZ2h0PSIzMi44NDM4IiByeD0iMTIuNSIgcnk9IjEyLjUiIHN0eWxlPSJzdHJva2U6IzE4MTgxODtzdHJva2Utd2lkdGg6MC41OyIgd2lkdGg9IjE4OCIgeD0iMTkwIiB5PSIzNjguMzc1Ii8+PHRleHQgZmlsbD0iIzAwMDAwMCIgZm9udC1mYW1pbHk9InNhbnMtc2VyaWYiIGZvbnQtc2l6ZT0iMTIiIGxlbmd0aEFkanVzdD0ic3BhY2luZyIgdGV4dExlbmd0aD0iMTY4IiB4PSIyMDAiIHk9IjM4OS43MTg4Ij5FbnJlZ2lzdHJlbWVudCBkZSBsYSBEZW1hbmRlPC90ZXh0PjxyZWN0IGZpbGw9IiNGMUYxRjEiIGhlaWdodD0iMzIuODQzOCIgcng9IjEyLjUiIHJ5PSIxMi41IiBzdHlsZT0ic3Ryb2tlOiMxODE4MTg7c3Ryb2tlLXdpZHRoOjAuNTsiIHdpZHRoPSIyMzYiIHg9IjE2NiIgeT0iNDIxLjIxODgiLz48dGV4dCBmaWxsPSIjMDAwMDAwIiBmb250LWZhbWlseT0ic2Fucy1zZXJpZiIgZm9udC1zaXplPSIxMiIgbGVuZ3RoQWRqdXN0PSJzcGFjaW5nIiB0ZXh0TGVuZ3RoPSIyMTYiIHg9IjE3NiIgeT0iNDQyLjU2MjUiPk5vdGlmaWNhdGlvbiAmIzIyNDsgbCdhZ2VudCBhZG1pbmlzdHJhdGlmPC90ZXh0PjxyZWN0IGZpbGw9IiNGMUYxRjEiIGhlaWdodD0iMzIuODQzOCIgcng9IjEyLjUiIHJ5PSIxMi41IiBzdHlsZT0ic3Ryb2tlOiMxODE4MTg7c3Ryb2tlLXdpZHRoOjAuNTsiIHdpZHRoPSIyNTQiIHg9IjE1NyIgeT0iNDc0LjA2MjUiLz48dGV4dCBmaWxsPSIjMDAwMDAwIiBmb250LWZhbWlseT0ic2Fucy1zZXJpZiIgZm9udC1zaXplPSIxMiIgbGVuZ3RoQWRqdXN0PSJzcGFjaW5nIiB0ZXh0TGVuZ3RoPSIyMzQiIHg9IjE2NyIgeT0iNDk1LjQwNjMiPkFnZW50IHYmIzIzMztyaWZpZSBsZXMgcGkmIzIzMjtjZXMganVzdGlmaWNhdGl2ZXM8L3RleHQ+PHBvbHlnb24gZmlsbD0iI0YxRjFGMSIgcG9pbnRzPSIyMzcuMjUsNTI2LjkwNjMsMzMwLjc1LDUyNi45MDYzLDM0Mi43NSw1MzguOTA2MywzMzAuNzUsNTUwLjkwNjMsMjM3LjI1LDU1MC45MDYzLDIyNS4yNSw1MzguOTA2MywyMzcuMjUsNTI2LjkwNjMiIHN0eWxlPSJzdHJva2U6IzE4MTgxODtzdHJva2Utd2lkdGg6MC41OyIvPjx0ZXh0IGZpbGw9IiMwMDAwMDAiIGZvbnQtZmFtaWx5PSJzYW5zLXNlcmlmIiBmb250LXNpemU9IjExIiBsZW5ndGhBZGp1c3Q9InNwYWNpbmciIHRleHRMZW5ndGg9IjkzLjUiIHg9IjIzNy4yNSIgeT0iNTQzLjQxOCI+RG9zc2llciBjb21wbGV0ID88L3RleHQ+PHRleHQgZmlsbD0iIzAwMDAwMCIgZm9udC1mYW1pbHk9InNhbnMtc2VyaWYiIGZvbnQtc2l6ZT0iMTEiIGxlbmd0aEFkanVzdD0ic3BhY2luZyIgdGV4dExlbmd0aD0iMTYuNSIgeD0iMjA4Ljc1IiB5PSI1MzcuNTMxMyI+b3VpPC90ZXh0Pjx0ZXh0IGZpbGw9IiMwMDAwMDAiIGZvbnQtZmFtaWx5PSJzYW5zLXNlcmlmIiBmb250LXNpemU9IjExIiBsZW5ndGhBZGp1c3Q9InNwYWNpbmciIHRleHRMZW5ndGg9IjE2LjUiIHg9IjM0Mi43NSIgeT0iNTM3LjUzMTMiPm5vbjwvdGV4dD48cmVjdCBmaWxsPSIjRjFGMUYxIiBoZWlnaHQ9IjMyLjg0MzgiIHJ4PSIxMi41IiByeT0iMTIuNSIgc3R5bGU9InN0cm9rZTojMTgxODE4O3N0cm9rZS13aWR0aDowLjU7IiB3aWR0aD0iMTU4IiB4PSI0NyIgeT0iNTYwLjkwNjMiLz48dGV4dCBmaWxsPSIjMDAwMDAwIiBmb250LWZhbWlseT0ic2Fucy1zZXJpZiIgZm9udC1zaXplPSIxMiIgbGVuZ3RoQWRqdXN0PSJzcGFjaW5nIiB0ZXh0TGVuZ3RoPSIxMzgiIHg9IjU3IiB5PSI1ODIuMjUiPkFnZW50IHZhbGlkZSBsYSBkZW1hbmRlPC90ZXh0PjxyZWN0IGZpbGw9IiNGMUYxRjEiIGhlaWdodD0iMzIuODQzOCIgcng9IjEyLjUiIHJ5PSIxMi41IiBzdHlsZT0ic3Ryb2tlOiMxODE4MTg7c3Ryb2tlLXdpZHRoOjAuNTsiIHdpZHRoPSIyMjQiIHg9IjE0IiB5PSI2MTMuNzUiLz48dGV4dCBmaWxsPSIjMDAwMDAwIiBmb250LWZhbWlseT0ic2Fucy1zZXJpZiIgZm9udC1zaXplPSIxMiIgbGVuZ3RoQWRqdXN0PSJzcGFjaW5nIiB0ZXh0TGVuZ3RoPSIyMDQiIHg9IjI0IiB5PSI2MzUuMDkzOCI+QWN0ZSBnJiMyMzM7biYjMjMzO3ImIzIzMzsgZXQgc2lnbiYjMjMzOyBudW0mIzIzMztyaXF1ZW1lbnQ8L3RleHQ+PHJlY3QgZmlsbD0iI0YxRjFGMSIgaGVpZ2h0PSIzMi44NDM4IiByeD0iMTIuNSIgcnk9IjEyLjUiIHN0eWxlPSJzdHJva2U6IzE4MTgxODtzdHJva2Utd2lkdGg6MC41OyIgd2lkdGg9IjIzMCIgeD0iMTEiIHk9IjY2Ni41OTM4Ii8+PHRleHQgZmlsbD0iIzAwMDAwMCIgZm9udC1mYW1pbHk9InNhbnMtc2VyaWYiIGZvbnQtc2l6ZT0iMTIiIGxlbmd0aEFkanVzdD0ic3BhY2luZyIgdGV4dExlbmd0aD0iMjEwIiB4PSIyMSIgeT0iNjg3LjkzNzUiPkVudm9pIGQndW5lIG5vdGlmaWNhdGlvbiBhdSBjaXRveWVuPC90ZXh0PjxyZWN0IGZpbGw9IiNGMUYxRjEiIGhlaWdodD0iMzIuODQzOCIgcng9IjEyLjUiIHJ5PSIxMi41IiBzdHlsZT0ic3Ryb2tlOiMxODE4MTg7c3Ryb2tlLXdpZHRoOjAuNTsiIHdpZHRoPSIzNjIiIHg9IjI2MSIgeT0iNTYwLjkwNjMiLz48dGV4dCBmaWxsPSIjMDAwMDAwIiBmb250LWZhbWlseT0ic2Fucy1zZXJpZiIgZm9udC1zaXplPSIxMiIgbGVuZ3RoQWRqdXN0PSJzcGFjaW5nIiB0ZXh0TGVuZ3RoPSIzNDIiIHg9IjI3MSIgeT0iNTgyLjI1Ij5EZW1hbmRlIHJlZnVzJiMyMzM7ZSBvdSBkZW1hbmRlIGQnaW5mb3JtYXRpb25zIGNvbXBsJiMyMzM7bWVudGFpcmVzPC90ZXh0Pjxwb2x5Z29uIGZpbGw9IiNGMUYxRjEiIHBvaW50cz0iMjg0LDcwNS40Mzc1LDI5Niw3MTcuNDM3NSwyODQsNzI5LjQzNzUsMjcyLDcxNy40Mzc1LDI4NCw3MDUuNDM3NSIgc3R5bGU9InN0cm9rZTojMTgxODE4O3N0cm9rZS13aWR0aDowLjU7Ii8+PHBvbHlnb24gZmlsbD0iI0YxRjFGMSIgcG9pbnRzPSIyNTMuNzUsNzQ5LjQzNzUsMzE0LjI1LDc0OS40Mzc1LDMyNi4yNSw3NjEuNDM3NSwzMTQuMjUsNzczLjQzNzUsMjUzLjc1LDc3My40Mzc1LDI0MS43NSw3NjEuNDM3NSwyNTMuNzUsNzQ5LjQzNzUiIHN0eWxlPSJzdHJva2U6IzE4MTgxODtzdHJva2Utd2lkdGg6MC41OyIvPjx0ZXh0IGZpbGw9IiMwMDAwMDAiIGZvbnQtZmFtaWx5PSJzYW5zLXNlcmlmIiBmb250LXNpemU9IjExIiBsZW5ndGhBZGp1c3Q9InNwYWNpbmciIHRleHRMZW5ndGg9IjYwLjUiIHg9IjI1My43NSIgeT0iNzY1Ljk0OTIiPkFjdGUgdmFsaWQmIzIzMzs8L3RleHQ+PHRleHQgZmlsbD0iIzAwMDAwMCIgZm9udC1mYW1pbHk9InNhbnMtc2VyaWYiIGZvbnQtc2l6ZT0iMTEiIGxlbmd0aEFkanVzdD0ic3BhY2luZyIgdGV4dExlbmd0aD0iMTYuNSIgeD0iMjI1LjI1IiB5PSI3NjAuMDYyNSI+b3VpPC90ZXh0PjxyZWN0IGZpbGw9IiNGMUYxRjEiIGhlaWdodD0iMzIuODQzOCIgcng9IjEyLjUiIHJ5PSIxMi41IiBzdHlsZT0ic3Ryb2tlOiMxODE4MTg7c3Ryb2tlLXdpZHRoOjAuNTsiIHdpZHRoPSIyMzYiIHg9IjM5LjUiIHk9Ijc4My40Mzc1Ii8+PHRleHQgZmlsbD0iIzAwMDAwMCIgZm9udC1mYW1pbHk9InNhbnMtc2VyaWYiIGZvbnQtc2l6ZT0iMTIiIGxlbmd0aEFkanVzdD0ic3BhY2luZyIgdGV4dExlbmd0aD0iMjE2IiB4PSI0OS41IiB5PSI4MDQuNzgxMyI+VCYjMjMzO2wmIzIzMztjaGFyZ2VtZW50IGR1IGRvY3VtZW50IFBERiBzaWduJiMyMzM7PC90ZXh0PjxlbGxpcHNlIGN4PSIxNTcuNSIgY3k9Ijg0Ny4yODEzIiBmaWxsPSJub25lIiByeD0iMTEiIHJ5PSIxMSIgc3R5bGU9InN0cm9rZTojMjIyMjIyO3N0cm9rZS13aWR0aDoxOyIvPjxlbGxpcHNlIGN4PSIxNTcuNSIgY3k9Ijg0Ny4yODEzIiBmaWxsPSIjMjIyMjIyIiByeD0iNiIgcnk9IjYiIHN0eWxlPSJzdHJva2U6IzIyMjIyMjtzdHJva2Utd2lkdGg6MTsiLz48cmVjdCBmaWxsPSIjRjFGMUYxIiBoZWlnaHQ9IjMyLjg0MzgiIHJ4PSIxMi41IiByeT0iMTIuNSIgc3R5bGU9InN0cm9rZTojMTgxODE4O3N0cm9rZS13aWR0aDowLjU7IiB3aWR0aD0iMjMwIiB4PSIyOTUuNSIgeT0iNzgzLjQzNzUiLz48dGV4dCBmaWxsPSIjMDAwMDAwIiBmb250LWZhbWlseT0ic2Fucy1zZXJpZiIgZm9udC1zaXplPSIxMiIgbGVuZ3RoQWRqdXN0PSJzcGFjaW5nIiB0ZXh0TGVuZ3RoPSIyMTAiIHg9IjMwNS41IiB5PSI4MDQuNzgxMyI+UmVwcmlzZSBvdSBhbm51bGF0aW9uIGRlIGxhIGRlbWFuZGU8L3RleHQ+PGVsbGlwc2UgY3g9IjQxMC41IiBjeT0iODQ3LjI4MTMiIGZpbGw9Im5vbmUiIHJ4PSIxMSIgcnk9IjExIiBzdHlsZT0ic3Ryb2tlOiMyMjIyMjI7c3Ryb2tlLXdpZHRoOjE7Ii8+PGVsbGlwc2UgY3g9IjQxMC41IiBjeT0iODQ3LjI4MTMiIGZpbGw9IiMyMjIyMjIiIHJ4PSI2IiByeT0iNiIgc3R5bGU9InN0cm9rZTojMjIyMjIyO3N0cm9rZS13aWR0aDoxOyIvPjxsaW5lIHN0eWxlPSJzdHJva2U6IzE4MTgxODtzdHJva2Utd2lkdGg6MTsiIHgxPSIyODQiIHgyPSIyODQiIHkxPSIzMCIgeTI9IjUwIi8+PHBvbHlnb24gZmlsbD0iIzE4MTgxOCIgcG9pbnRzPSIyODAsNDAsMjg0LDUwLDI4OCw0MCwyODQsNDQiIHN0eWxlPSJzdHJva2U6IzE4MTgxODtzdHJva2Utd2lkdGg6MTsiLz48bGluZSBzdHlsZT0ic3Ryb2tlOiMxODE4MTg7c3Ryb2tlLXdpZHRoOjE7IiB4MT0iMjg0IiB4Mj0iMjg0IiB5MT0iODIuODQzOCIgeTI9IjEwMi44NDM4Ii8+PHBvbHlnb24gZmlsbD0iIzE4MTgxOCIgcG9pbnRzPSIyODAsOTIuODQzOCwyODQsMTAyLjg0MzgsMjg4LDkyLjg0MzgsMjg0LDk2Ljg0MzgiIHN0eWxlPSJzdHJva2U6IzE4MTgxODtzdHJva2Utd2lkdGg6MTsiLz48bGluZSBzdHlsZT0ic3Ryb2tlOiMxODE4MTg7c3Ryb2tlLXdpZHRoOjE7IiB4MT0iMjg0IiB4Mj0iMjg0IiB5MT0iMjM2LjUzMTMiIHkyPSIyNzEuNTMxMyIvPjxwb2x5Z29uIGZpbGw9IiMxODE4MTgiIHBvaW50cz0iMjgwLDI2MS41MzEzLDI4NCwyNzEuNTMxMywyODgsMjYxLjUzMTMsMjg0LDI2NS41MzEzIiBzdHlsZT0ic3Ryb2tlOiMxODE4MTg7c3Ryb2tlLXdpZHRoOjE7Ii8+PGxpbmUgc3R5bGU9InN0cm9rZTojMTgxODE4O3N0cm9rZS13aWR0aDoxOyIgeDE9IjI4NCIgeDI9IjI4NCIgeTE9IjE3OS42ODc1IiB5Mj0iMjAzLjY4NzUiLz48cG9seWdvbiBmaWxsPSIjMTgxODE4IiBwb2ludHM9IjI4MCwxOTMuNjg3NSwyODQsMjAzLjY4NzUsMjg4LDE5My42ODc1LDI4NCwxOTcuNjg3NSIgc3R5bGU9InN0cm9rZTojMTgxODE4O3N0cm9rZS13aWR0aDoxOyIvPjxsaW5lIHN0eWxlPSJzdHJva2U6IzE4MTgxODtzdHJva2Utd2lkdGg6MTsiIHgxPSIzNDguMjUiIHgyPSI0MzkiIHkxPSIxNjcuNjg3NSIgeTI9IjE2Ny42ODc1Ii8+PHBvbHlnb24gZmlsbD0iIzE4MTgxOCIgcG9pbnRzPSI0MzUsMjQ0LjAzMTMsNDM5LDI1NC4wMzEzLDQ0MywyNDQuMDMxMyw0MzksMjQ4LjAzMTMiIHN0eWxlPSJzdHJva2U6IzE4MTgxODtzdHJva2Utd2lkdGg6MTsiLz48bGluZSBzdHlsZT0ic3Ryb2tlOiMxODE4MTg7c3Ryb2tlLXdpZHRoOjE7IiB4MT0iNDM5IiB4Mj0iNDM5IiB5MT0iMTY3LjY4NzUiIHkyPSIzMzYuMzc1Ii8+PGxpbmUgc3R5bGU9InN0cm9rZTojMTgxODE4O3N0cm9rZS13aWR0aDoxOyIgeDE9IjQzOSIgeDI9IjI5NiIgeTE9IjMzNi4zNzUiIHkyPSIzMzYuMzc1Ii8+PHBvbHlnb24gZmlsbD0iIzE4MTgxOCIgcG9pbnRzPSIzMDYsMzMyLjM3NSwyOTYsMzM2LjM3NSwzMDYsMzQwLjM3NSwzMDIsMzM2LjM3NSIgc3R5bGU9InN0cm9rZTojMTgxODE4O3N0cm9rZS13aWR0aDoxOyIvPjxsaW5lIHN0eWxlPSJzdHJva2U6IzE4MTgxODtzdHJva2Utd2lkdGg6MTsiIHgxPSIyODQiIHgyPSIyODQiIHkxPSIzMDQuMzc1IiB5Mj0iMzI0LjM3NSIvPjxwb2x5Z29uIGZpbGw9IiMxODE4MTgiIHBvaW50cz0iMjgwLDMxNC4zNzUsMjg0LDMyNC4zNzUsMjg4LDMxNC4zNzUsMjg0LDMxOC4zNzUiIHN0eWxlPSJzdHJva2U6IzE4MTgxODtzdHJva2Utd2lkdGg6MTsiLz48bGluZSBzdHlsZT0ic3Ryb2tlOiMxODE4MTg7c3Ryb2tlLXdpZHRoOjE7IiB4MT0iMjg0IiB4Mj0iMjg0IiB5MT0iMTM1LjY4NzUiIHkyPSIxNTUuNjg3NSIvPjxwb2x5Z29uIGZpbGw9IiMxODE4MTgiIHBvaW50cz0iMjgwLDE0NS42ODc1LDI4NCwxNTUuNjg3NSwyODgsMTQ1LjY4NzUsMjg0LDE0OS42ODc1IiBzdHlsZT0ic3Ryb2tlOiMxODE4MTg7c3Ryb2tlLXdpZHRoOjE7Ii8+PGxpbmUgc3R5bGU9InN0cm9rZTojMTgxODE4O3N0cm9rZS13aWR0aDoxOyIgeDE9IjI4NCIgeDI9IjI4NCIgeTE9IjM0OC4zNzUiIHkyPSIzNjguMzc1Ii8+PHBvbHlnb24gZmlsbD0iIzE4MTgxOCIgcG9pbnRzPSIyODAsMzU4LjM3NSwyODQsMzY4LjM3NSwyODgsMzU4LjM3NSwyODQsMzYyLjM3NSIgc3R5bGU9InN0cm9rZTojMTgxODE4O3N0cm9rZS13aWR0aDoxOyIvPjxsaW5lIHN0eWxlPSJzdHJva2U6IzE4MTgxODtzdHJva2Utd2lkdGg6MTsiIHgxPSIyODQiIHgyPSIyODQiIHkxPSI0MDEuMjE4OCIgeTI9IjQyMS4yMTg4Ii8+PHBvbHlnb24gZmlsbD0iIzE4MTgxOCIgcG9pbnRzPSIyODAsNDExLjIxODgsMjg0LDQyMS4yMTg4LDI4OCw0MTEuMjE4OCwyODQsNDE1LjIxODgiIHN0eWxlPSJzdHJva2U6IzE4MTgxODtzdHJva2Utd2lkdGg6MTsiLz48bGluZSBzdHlsZT0ic3Ryb2tlOiMxODE4MTg7c3Ryb2tlLXdpZHRoOjE7IiB4MT0iMjg0IiB4Mj0iMjg0IiB5MT0iNDU0LjA2MjUiIHkyPSI0NzQuMDYyNSIvPjxwb2x5Z29uIGZpbGw9IiMxODE4MTgiIHBvaW50cz0iMjgwLDQ2NC4wNjI1LDI4NCw0NzQuMDYyNSwyODgsNDY0LjA2MjUsMjg0LDQ2OC4wNjI1IiBzdHlsZT0ic3Ryb2tlOiMxODE4MTg7c3Ryb2tlLXdpZHRoOjE7Ii8+PGxpbmUgc3R5bGU9InN0cm9rZTojMTgxODE4O3N0cm9rZS13aWR0aDoxOyIgeDE9IjEyNiIgeDI9IjEyNiIgeTE9IjU5My43NSIgeTI9IjYxMy43NSIvPjxwb2x5Z29uIGZpbGw9IiMxODE4MTgiIHBvaW50cz0iMTIyLDYwMy43NSwxMjYsNjEzLjc1LDEzMCw2MDMuNzUsMTI2LDYwNy43NSIgc3R5bGU9InN0cm9rZTojMTgxODE4O3N0cm9rZS13aWR0aDoxOyIvPjxsaW5lIHN0eWxlPSJzdHJva2U6IzE4MTgxODtzdHJva2Utd2lkdGg6MTsiIHgxPSIxMjYiIHgyPSIxMjYiIHkxPSI2NDYuNTkzOCIgeTI9IjY2Ni41OTM4Ii8+PHBvbHlnb24gZmlsbD0iIzE4MTgxOCIgcG9pbnRzPSIxMjIsNjU2LjU5MzgsMTI2LDY2Ni41OTM4LDEzMCw2NTYuNTkzOCwxMjYsNjYwLjU5MzgiIHN0eWxlPSJzdHJva2U6IzE4MTgxODtzdHJva2Utd2lkdGg6MTsiLz48bGluZSBzdHlsZT0ic3Ryb2tlOiMxODE4MTg7c3Ryb2tlLXdpZHRoOjE7IiB4MT0iMjI1LjI1IiB4Mj0iMTI2IiB5MT0iNTM4LjkwNjMiIHkyPSI1MzguOTA2MyIvPjxsaW5lIHN0eWxlPSJzdHJva2U6IzE4MTgxODtzdHJva2Utd2lkdGg6MTsiIHgxPSIxMjYiIHgyPSIxMjYiIHkxPSI1MzguOTA2MyIgeTI9IjU2MC45MDYzIi8+PHBvbHlnb24gZmlsbD0iIzE4MTgxOCIgcG9pbnRzPSIxMjIsNTUwLjkwNjMsMTI2LDU2MC45MDYzLDEzMCw1NTAuOTA2MywxMjYsNTU0LjkwNjMiIHN0eWxlPSJzdHJva2U6IzE4MTgxODtzdHJva2Utd2lkdGg6MTsiLz48bGluZSBzdHlsZT0ic3Ryb2tlOiMxODE4MTg7c3Ryb2tlLXdpZHRoOjE7IiB4MT0iMzQyLjc1IiB4Mj0iNDQyIiB5MT0iNTM4LjkwNjMiIHkyPSI1MzguOTA2MyIvPjxsaW5lIHN0eWxlPSJzdHJva2U6IzE4MTgxODtzdHJva2Utd2lkdGg6MTsiIHgxPSI0NDIiIHgyPSI0NDIiIHkxPSI1MzguOTA2MyIgeTI9IjU2MC45MDYzIi8+PHBvbHlnb24gZmlsbD0iIzE4MTgxOCIgcG9pbnRzPSI0MzgsNTUwLjkwNjMsNDQyLDU2MC45MDYzLDQ0Niw1NTAuOTA2Myw0NDIsNTU0LjkwNjMiIHN0eWxlPSJzdHJva2U6IzE4MTgxODtzdHJva2Utd2lkdGg6MTsiLz48bGluZSBzdHlsZT0ic3Ryb2tlOiMxODE4MTg7c3Ryb2tlLXdpZHRoOjE7IiB4MT0iMTI2IiB4Mj0iMTI2IiB5MT0iNjk5LjQzNzUiIHkyPSI3MTcuNDM3NSIvPjxsaW5lIHN0eWxlPSJzdHJva2U6IzE4MTgxODtzdHJva2Utd2lkdGg6MTsiIHgxPSIxMjYiIHgyPSIyNzIiIHkxPSI3MTcuNDM3NSIgeTI9IjcxNy40Mzc1Ii8+PHBvbHlnb24gZmlsbD0iIzE4MTgxOCIgcG9pbnRzPSIyNjIsNzEzLjQzNzUsMjcyLDcxNy40Mzc1LDI2Miw3MjEuNDM3NSwyNjYsNzE3LjQzNzUiIHN0eWxlPSJzdHJva2U6IzE4MTgxODtzdHJva2Utd2lkdGg6MTsiLz48bGluZSBzdHlsZT0ic3Ryb2tlOiMxODE4MTg7c3Ryb2tlLXdpZHRoOjE7IiB4MT0iNDQyIiB4Mj0iNDQyIiB5MT0iNTkzLjc1IiB5Mj0iNzE3LjQzNzUiLz48bGluZSBzdHlsZT0ic3Ryb2tlOiMxODE4MTg7c3Ryb2tlLXdpZHRoOjE7IiB4MT0iNDQyIiB4Mj0iMjk2IiB5MT0iNzE3LjQzNzUiIHkyPSI3MTcuNDM3NSIvPjxwb2x5Z29uIGZpbGw9IiMxODE4MTgiIHBvaW50cz0iMzA2LDcxMy40Mzc1LDI5Niw3MTcuNDM3NSwzMDYsNzIxLjQzNzUsMzAyLDcxNy40Mzc1IiBzdHlsZT0ic3Ryb2tlOiMxODE4MTg7c3Ryb2tlLXdpZHRoOjE7Ii8+PGxpbmUgc3R5bGU9InN0cm9rZTojMTgxODE4O3N0cm9rZS13aWR0aDoxOyIgeDE9IjI4NCIgeDI9IjI4NCIgeTE9IjUwNi45MDYzIiB5Mj0iNTI2LjkwNjMiLz48cG9seWdvbiBmaWxsPSIjMTgxODE4IiBwb2ludHM9IjI4MCw1MTYuOTA2MywyODQsNTI2LjkwNjMsMjg4LDUxNi45MDYzLDI4NCw1MjAuOTA2MyIgc3R5bGU9InN0cm9rZTojMTgxODE4O3N0cm9rZS13aWR0aDoxOyIvPjxsaW5lIHN0eWxlPSJzdHJva2U6IzE4MTgxODtzdHJva2Utd2lkdGg6MTsiIHgxPSIxNTcuNSIgeDI9IjE1Ny41IiB5MT0iODE2LjI4MTMiIHkyPSI4MzYuMjgxMyIvPjxwb2x5Z29uIGZpbGw9IiMxODE4MTgiIHBvaW50cz0iMTUzLjUsODI2LjI4MTMsMTU3LjUsODM2LjI4MTMsMTYxLjUsODI2LjI4MTMsMTU3LjUsODMwLjI4MTMiIHN0eWxlPSJzdHJva2U6IzE4MTgxODtzdHJva2Utd2lkdGg6MTsiLz48bGluZSBzdHlsZT0ic3Ryb2tlOiMxODE4MTg7c3Ryb2tlLXdpZHRoOjE7IiB4MT0iNDEwLjUiIHgyPSI0MTAuNSIgeTE9IjgxNi4yODEzIiB5Mj0iODM2LjI4MTMiLz48cG9seWdvbiBmaWxsPSIjMTgxODE4IiBwb2ludHM9IjQwNi41LDgyNi4yODEzLDQxMC41LDgzNi4yODEzLDQxNC41LDgyNi4yODEzLDQxMC41LDgzMC4yODEzIiBzdHlsZT0ic3Ryb2tlOiMxODE4MTg7c3Ryb2tlLXdpZHRoOjE7Ii8+PGxpbmUgc3R5bGU9InN0cm9rZTojMTgxODE4O3N0cm9rZS13aWR0aDoxOyIgeDE9IjI0MS43NSIgeDI9IjE1Ny41IiB5MT0iNzYxLjQzNzUiIHkyPSI3NjEuNDM3NSIvPjxsaW5lIHN0eWxlPSJzdHJva2U6IzE4MTgxODtzdHJva2Utd2lkdGg6MTsiIHgxPSIxNTcuNSIgeDI9IjE1Ny41IiB5MT0iNzYxLjQzNzUiIHkyPSI3ODMuNDM3NSIvPjxwb2x5Z29uIGZpbGw9IiMxODE4MTgiIHBvaW50cz0iMTUzLjUsNzczLjQzNzUsMTU3LjUsNzgzLjQzNzUsMTYxLjUsNzczLjQzNzUsMTU3LjUsNzc3LjQzNzUiIHN0eWxlPSJzdHJva2U6IzE4MTgxODtzdHJva2Utd2lkdGg6MTsiLz48bGluZSBzdHlsZT0ic3Ryb2tlOiMxODE4MTg7c3Ryb2tlLXdpZHRoOjE7IiB4MT0iMzI2LjI1IiB4Mj0iNDEwLjUiIHkxPSI3NjEuNDM3NSIgeTI9Ijc2MS40Mzc1Ii8+PGxpbmUgc3R5bGU9InN0cm9rZTojMTgxODE4O3N0cm9rZS13aWR0aDoxOyIgeDE9IjQxMC41IiB4Mj0iNDEwLjUiIHkxPSI3NjEuNDM3NSIgeTI9Ijc4My40Mzc1Ii8+PHBvbHlnb24gZmlsbD0iIzE4MTgxOCIgcG9pbnRzPSI0MDYuNSw3NzMuNDM3NSw0MTAuNSw3ODMuNDM3NSw0MTQuNSw3NzMuNDM3NSw0MTAuNSw3NzcuNDM3NSIgc3R5bGU9InN0cm9rZTojMTgxODE4O3N0cm9rZS13aWR0aDoxOyIvPjxsaW5lIHN0eWxlPSJzdHJva2U6IzE4MTgxODtzdHJva2Utd2lkdGg6MTsiIHgxPSIyODQiIHgyPSIyODQiIHkxPSI3MjkuNDM3NSIgeTI9Ijc0OS40Mzc1Ii8+PHBvbHlnb24gZmlsbD0iIzE4MTgxOCIgcG9pbnRzPSIyODAsNzM5LjQzNzUsMjg0LDc0OS40Mzc1LDI4OCw3MzkuNDM3NSwyODQsNzQzLjQzNzUiIHN0eWxlPSJzdHJva2U6IzE4MTgxODtzdHJva2Utd2lkdGg6MTsiLz48IS0tU1JDPVtOUDlCSmlLbTM0TmROT0xkM3hSRzNYM21PMFAyMjM0RllMa0NLZ1ZheW9Ic212Mms4bmwzSUxmMEk5TklEbHhTUy1xR2JPelRWcXRIVkkyM250Y241QzRZWkN4Rm9JaG8yQU95aXM4dkdfOVc1SW5NSEltSEU3SnppeDlhTDJKNzRYUDBsd2Z2MlUxVUI0cWdFWWFHWGV2NkU3akdYM0RvMTFuN3IzN2I1SXhFOFJ2QXRwRHNWRHUxejh6ZW9ERTQ3YXhlR3o0bkV2RGlyUjNpLUk2bEVkY0lPb1d2RnRLTnZVN0VsUDI0dHBkNjN0MDloZUtGdUtnbkJZWDNYc25leEZlUnpaWEhZQnZiSWRNWEVaUDhHUmZ0YUtSSTNJZl9XWnNlZ1NHZkNuRU5EQmFQWHd4aEItbGxLcnd6bjRpSHVMeWVWc2F2dHJCT1l2bnMydXVrMTE4dXhTSGRaQl95QmI3YnQtZUxId2lhaXFpZ1RyZjhmaG9vVDFGbDkzdEc5MV8wUUl1MnRiRTVnUjR0Vjc4NHZmME9XVl8yZzBJdzNMa3lpMDVfaFRfZVBHVjY5RFBZU015VmtwYUdidDdONmc3OXBzbGZmamZ5Y3dzTGlTZ2kxN2R6Wl9VS0x5Y0ozVjdKUGhwcVMzaEx6dVZaeEtQSzQ0OXFJck5PcmNBSFVMVDlZYmRNU2prc1ZuUXJkMkJiNm0wMF0tLT48L2c+PC9zdmc+;" vertex="1" parent="1">
            <mxGeometry x="30" y="20" width="634" height="869" as="geometry" />
          </mxCell>
        </UserObject>
      </root>
    </mxGraphModel>
  </diagram>
</mxfile>
